<?xml version="1.0" standalone="no"?>
<!DOCTYPE svg PUBLIC "-//W3C//DTD SVG 1.1//EN" "http://www.w3.org/Graphics/SVG/1.1/DTD/svg11.dtd" >
<svg xmlns="http://www.w3.org/2000/svg" xmlns:xlink="http://www.w3.org/1999/xlink" version="1.1">
<metadata>
Created by FontForge 20170910 at Sun Feb 18 07:55:58 2018
 By Jimmy Wärting
Copyright 2018 The Inter UI project authors
</metadata>
<defs>
<font id="InterUI-Medium" horiz-adv-x="0" >
  <font-face 
    font-family="Inter UI Medium"
    font-weight="500"
    font-stretch="normal"
    units-per-em="2816"
    panose-1="2 11 6 2 3 0 0 0 0 4"
    ascent="2252"
    descent="-564"
    x-height="1536"
    cap-height="2048"
    bbox="-2064 -1076 3884 2973"
    underline-thickness="170"
    underline-position="-507"
    unicode-range="U+0002-1F16B"
  />
<missing-glyph horiz-adv-x="2815" 
d="M256 2176v512h2304v-512h-2304zM256 1472v512h2304v-512h-2304zM256 768v512h2304v-512h-2304zM256 64v512h2304v-512h-2304zM256 -640v512h2304v-512h-2304z" />
    <glyph glyph-name=".notdef" horiz-adv-x="2815" 
d="M256 2176v512h2304v-512h-2304zM256 1472v512h2304v-512h-2304zM256 768v512h2304v-512h-2304zM256 64v512h2304v-512h-2304zM256 -640v512h2304v-512h-2304z" />
    <glyph glyph-name=".null" 
 />
    <glyph glyph-name="space" unicode=" " horiz-adv-x="784" 
 />
    <glyph glyph-name="A" unicode="A" horiz-adv-x="1988" 
d="M411 0h-336l753 2048h333l753 -2048h-337l-172 496h-822zM982 1642l-305 -878h634l-305 878h-24z" />
    <glyph glyph-name="Adieresis" unicode="&#xc4;" horiz-adv-x="1988" 
d="M710 2254q-70 0 -120.5 49.5t-50.5 116.5q0 72 50.5 120t120.5 48q74 0 122 -48t48 -120q0 -67 -48 -116.5t-122 -49.5zM1280 2254q-71 0 -121.5 49.5t-50.5 116.5q0 72 50.5 120t121.5 48q74 0 122 -48t48 -120q0 -67 -48 -116.5t-122 -49.5zM411 0h-336l753 2048h333
l753 -2048h-337l-172 496h-822zM982 1642l-305 -878h634l-305 878h-24z" />
    <glyph glyph-name="Atilde" unicode="&#xc3;" horiz-adv-x="1988" 
d="M1296 2640l202 -16q0 -154 -88 -253t-220 -99q-90 0 -144 31t-102.5 62t-122.5 31q-53 0 -88.5 -40t-35.5 -103l-206 10q0 151 88 254t220 103q75 0 131.5 -31t112 -61.5t125.5 -30.5q53 0 90.5 40t37.5 103zM411 0h-336l753 2048h333l753 -2048h-337l-172 496h-822z
M982 1642l-305 -878h634l-305 878h-24z" />
    <glyph glyph-name="uni023A" unicode="&#x23a;" horiz-adv-x="1988" 
d="M1780 2176l-409 -700l543 -1476h-337l-172 496h-605l-413 -708h-252l124 212h-184l753 2048h333l113 -308l255 436h251zM982 1642l-305 -878h28l380 651l-79 227h-24zM956 764h355l-132 381z" />
    <glyph glyph-name="Lambda" unicode="&#x39b;" horiz-adv-x="1988" 
d="M411 0h-336l753 2048h333l753 -2048h-337l-571 1642h-24z" />
    <glyph glyph-name="AE" unicode="&#xc6;" horiz-adv-x="2815" 
d="M2668 266v-266h-1213l-20 498h-734l-268 -498h-367l1155 2048h1363v-266h-894l24 -613h758v-265h-747l25 -638h918zM845 764h579l-41 998z" />
    <glyph glyph-name="B" unicode="B" horiz-adv-x="1817" 
d="M987 0h-772v2048h732q225 0 372 -73t219 -197t72 -279q0 -192 -99 -291.5t-242 -136.5v-19q103 -9 196.5 -70.5t152.5 -171.5t59 -262q0 -158 -73.5 -282t-226.5 -195t-390 -71zM532 1776v-613h397q168 0 270.5 84t102.5 231q0 122 -82.5 210t-275.5 88h-412zM1371 568
q0 140 -100 243t-283 103h-456v-642h443q214 0 305 84.5t91 211.5z" />
    <glyph glyph-name="uni0243" unicode="&#x243;" horiz-adv-x="1883" 
d="M1054 0h-772v485h-255v209h255v1354h732q225 0 372 -73t219 -197t72 -279q0 -192 -99 -291.5t-242 -136.5v-19q103 -9 196.5 -70.5t152.5 -171.5t59 -262q0 -158 -73.5 -282t-226 -195t-390.5 -71zM599 1776v-613h397q168 0 270.5 84t102.5 231q0 122 -82.5 210
t-275.5 88h-412zM943 694v-209h-344v-213h443q214 0 305 84.5t91 211.5q0 140 -100 243t-283 103h-456v-220h344z" />
    <glyph glyph-name="Bhook" unicode="&#x181;" horiz-adv-x="2190" 
d="M1360 0h-772v1777h-101q-80 0 -120 -36.5t-53.5 -93.5t-13.5 -121v-92h-289v160q0 196 124 325t349 129h836q225 0 372 -73t219 -197t72 -279q0 -192 -99 -291.5t-242 -136.5v-19q103 -9 196.5 -70.5t152.5 -171.5t59 -262q0 -158 -73.5 -282t-226 -195t-390.5 -71z
M905 1776v-613h397q168 0 270.5 84t102.5 231q0 122 -82.5 210t-276.5 88h-411zM1744 568q0 140 -100 243t-283 103h-456v-642h443q213 0 304.5 84.5t91.5 211.5z" />
    <glyph glyph-name="C" unicode="C" horiz-adv-x="2028" 
d="M1890 1407l-312 -21q-45 196 -190.5 297.5t-330.5 101.5q-169 0 -302.5 -85t-211 -254.5t-77.5 -422.5t77.5 -422t211 -253.5t302.5 -84.5q185 0 329 100t189 295l313 -21q-44 -211 -162.5 -359.5t-291 -227t-377.5 -78.5q-261 0 -465.5 126.5t-321.5 362t-117 562.5
t117 563t321.5 363t465.5 127q205 0 378 -79t292 -228.5t163 -361.5z" />
    <glyph glyph-name="Chook" unicode="&#x187;" horiz-adv-x="2191" 
d="M1890 1386h-304v1l-8 -1q-45 196 -190.5 297.5t-330.5 101.5q-169 0 -302.5 -85t-211 -254.5t-77.5 -422.5t77.5 -422t211 -253.5t302.5 -84.5q185 0 329 100t189 295l313 -21q-44 -211 -162.5 -359.5t-291 -227t-377.5 -78.5q-261 0 -465.5 126.5t-321.5 362t-117 562.5
t117 563t321.5 363t465.5 127q348 0 582 -213q60 114 173.5 173.5t251.5 59.5q42 0 82.5 -1.5t77.5 -10.5v-255q-18 2 -44 4.5t-48 2.5q-95 0 -168.5 -48t-73.5 -178v-224z" />
    <glyph glyph-name="uni023B" unicode="&#x23b;" horiz-adv-x="2028" 
d="M650 -200l-190 76l96 243q-186 129 -294.5 359t-108.5 542q0 327 117 563t321.5 363t465.5 127q133 0 255 -34l81 205l190 -76l-82 -208q146 -83 247.5 -224t141.5 -332l-312 -20q-22 97 -71 171t-117 124l-544 -1381q98 -38 211 -38q185 0 329 100.5t189 294.5l313 -20
q-44 -211 -162.5 -360t-291 -227.5t-377.5 -78.5q-170 0 -319 55zM466 1020q0 -210 55 -362.5t150 -246.5l533 1354q-71 17 -147 17q-169 0 -302.5 -85t-211 -254.5t-77.5 -422.5z" />
    <glyph glyph-name="Oopen" unicode="&#x186;" horiz-adv-x="2028" 
d="M143 1407q44 212 163 361.5t292 228.5t378 79q262 0 466 -127t321 -363t117 -563t-117 -562.5t-321 -362t-466 -126.5q-205 0 -377.5 78.5t-291.5 227t-162 359.5l313 21q45 -195 189.5 -295t328.5 -100q168 0 302 84.5t211.5 253.5t77.5 422t-77.5 422.5t-211.5 254.5
t-302 85q-184 0 -330 -101.5t-191 -297.5z" />
    <glyph glyph-name="D" unicode="D" horiz-adv-x="2004" 
d="M876 0h-661v2048h680q299 0 513 -122.5t328.5 -351t114.5 -547.5q0 -320 -115.5 -550t-333.5 -353.5t-526 -123.5zM877 1770h-345v-1492h327q341 0 510 193t169 556q0 360 -167 551.5t-494 191.5z" />
    <glyph glyph-name="Dhook" unicode="&#x18a;" horiz-adv-x="2389" 
d="M1261 0h-661v1770h-113q-120 0 -153.5 -74.5t-33.5 -169.5v-92h-289v160q0 196 124 325t349 129h796q299 0 513 -122.5t328.5 -351t114.5 -547.5q0 -320 -115 -550t-333 -353.5t-527 -123.5zM1262 1770h-345v-1492h327q340 0 509.5 193t169.5 556q0 360 -167 551.5
t-494 191.5z" />
    <glyph glyph-name="Dbar1" unicode="&#x189;" horiz-adv-x="2128" 
d="M1000 0h-661v907h-288v209h288v932h680q299 0 513 -122.5t328.5 -351t114.5 -547.5q0 -320 -115.5 -550t-333.5 -353.5t-526 -123.5zM967 1116v-209h-311v-629h327q341 0 510 193t169 556q0 360 -167 551.5t-494 191.5h-345v-654h311z" />
    <glyph glyph-name="Dzcaron_" unicode="&#x1c5;" horiz-adv-x="3340" 
d="M876 0h-661v2048h680q299 0 513 -122.5t328.5 -351t114.5 -547.5q0 -320 -115.5 -550t-333.5 -353.5t-526 -123.5zM2355 2048l229 -222l230 222h251v-15l-390 -381h-184l-388 381v15h252zM877 1770h-345v-1492h327q341 0 510 193t169 556q0 360 -167 551.5t-494 191.5z
M3185 265v-265h-1210v219l800 1052h-802v265h1193v-211l-799 -1060h818z" />
    <glyph glyph-name="E" unicode="E" horiz-adv-x="1675" 
d="M1504 272v-272h-1289v2048h1278v-272h-961v-614h845v-273h-845v-617h972z" />
    <glyph glyph-name="uni0246" unicode="&#x246;" horiz-adv-x="1718" 
d="M579 -221l-193 63l51 158h-222v2048h886l70 217l193 -63l-50 -154h179v-272h-267l-199 -614h350v-273h-438l-200 -617h765v-272h-853zM532 1162h282l199 614h-481v-614zM532 889v-596l193 596h-193z" />
    <glyph glyph-name="Eturn" unicode="&#x18e;" horiz-adv-x="1664" 
d="M166 0v272h961v614h-845v273h845v617h-972v272h1289v-2048h-1278z" />
    <glyph glyph-name="F" unicode="F" horiz-adv-x="1653" 
d="M1353 1162v-273h-821v-889h-317v2048h1273v-272h-956v-614h821z" />
    <glyph glyph-name="Fhook" unicode="&#x191;" horiz-adv-x="1648" 
d="M1353 1162v-273h-821v-1026q0 -159 -65.5 -255.5t-169 -140t-217.5 -43.5q-37 0 -83 1.5t-76 9.5v251q39 -7 79 -7q90 0 152.5 39t62.5 148v2182h1273v-272h-956v-614h821z" />
    <glyph glyph-name="Fturn" unicode="&#x2132;" horiz-adv-x="1653" 
d="M160 0v272h956v614h-821v273h821v889h317v-2048h-1273z" />
    <glyph glyph-name="G" unicode="G" horiz-adv-x="2063" 
d="M1902 1042v-259q0 -247 -111.5 -429t-301.5 -282t-427 -100q-264 0 -469 126t-322.5 361.5t-117.5 563.5q0 329 116.5 564.5t319.5 362t460 126.5q302 0 524.5 -172.5t314.5 -486.5l-321 -21q-63 194 -203 291.5t-315 97.5q-163 0 -295 -84.5t-210 -253.5t-78 -424
t78.5 -423.5t213.5 -252.5t304 -84q154 0 274 65t189 182.5t69 272.5h-467v259h775z" />
    <glyph glyph-name="Gbar" unicode="&#x1e4;" horiz-adv-x="2147" 
d="M1902 1042v-259q0 -63 -8 -124h206v-214h-264q-94 -222 -301 -347.5t-473 -125.5q-264 0 -469 126t-322.5 361.5t-117.5 563.5q0 329 116.5 564.5t319.5 362t460 126.5q302 0 524.5 -172.5t314.5 -486.5l-321 -21q-63 194 -203 291.5t-315 97.5q-163 0 -295 -84.5
t-210 -253.5t-78 -424t78.5 -423.5t213.5 -252.5t304 -84q131 0 238.5 48t178.5 134h-352v214h454q13 60 13 124v27h-467v232h775z" />
    <glyph glyph-name="Ghook" unicode="&#x193;" horiz-adv-x="2222" 
d="M1902 1042v-259q0 -247 -111.5 -429t-301.5 -282t-427 -100q-264 0 -469 126t-322.5 361.5t-117.5 563.5q0 329 116.5 564.5t319.5 362t460 126.5q339 0 572 -212q55 124 169 189t270 65q43 0 83.5 -3t76.5 -13v-254q-20 3 -43.5 6.5t-48.5 3.5q-95 0 -166 -41t-71 -165
v-256h-324q-63 194 -203 291.5t-315 97.5q-163 0 -295 -84.5t-210 -253.5t-78 -424t78.5 -423.5t213.5 -252.5t304 -84q154 0 274 65t189 182.5t69 272.5h-467v259h775z" />
    <glyph glyph-name="H" unicode="H" horiz-adv-x="2042" 
d="M532 2048v-886h978v886h317v-2048h-317v889h-978v-889h-317v2048h317z" />
    <glyph glyph-name="Hcedilla" unicode="&#x1e28;" horiz-adv-x="2006" 
d="M288 0h-78v2048h317v-886h978v886h317v-2048h-317v889h-978v-889h-1l-16 -77q77 -12 142 -65.5t65 -170.5q0 -137 -113 -222t-333 -85l-9 188q82 0 135.5 27.5t53.5 92.5q0 64 -48.5 87.5t-158.5 31.5z" />
    <glyph glyph-name="Hbar" unicode="&#x126;" horiz-adv-x="2006" 
d="M535 2048v-403h978v403h317v-403h157v-220h-157v-1425h-317v889h-978v-889h-318v1425h-162v220h162v403h318zM535 1162h978v263h-978v-263z" />
    <glyph glyph-name="Enhookcyrillic" unicode="&#x4c7;" horiz-adv-x="2042" 
d="M532 2048v-886h978v886h317v-2170q0 -154 -65 -257.5t-174.5 -156t-240.5 -52.5q-40 0 -82 1.5t-78 10.5v258q18 -2 44.5 -4t48.5 -2q94 0 162 45t68 169v999h-978v-889h-317v2048h317z" />
    <glyph glyph-name="Endescendercyrillic" unicode="&#x4a2;" horiz-adv-x="2303" 
d="M2047 248v-743h-303v495h-240v889h-978v-889h-317v2048h317v-886h978v886h317v-1800h226z" />
    <glyph glyph-name="uni04C9" unicode="&#x4c9;" horiz-adv-x="2102" 
d="M2081 202v-221q-2 -143 -59.5 -279t-149.5 -249l-208 63q50 112 89 218t39 235v31h-317v889h-978v-889h-317v2048h317v-886h978v886h317v-1846h289z" />
    <glyph glyph-name="Enghecyrillic" unicode="&#x4a4;" horiz-adv-x="2815" 
d="M488 2048v-886h978v886h1130v-265h-813v-1783h-317v889h-978v-889h-318v2048h318z" />
    <glyph glyph-name="uni01F6" unicode="&#x1f6;" horiz-adv-x="3082" 
d="M531 2048v-889h979v889h316v-1385q0 -414 378 -414q369 0 369 414v858h316v-858q0 -343 -188 -517t-497 -174q-316 0 -505 176.5t-189 514.5v227h-979v-890h-316v2048h316z" />
    <glyph glyph-name="I" unicode="I" horiz-adv-x="747" 
d="M532 2048v-2048h-317v2048h317z" />
    <glyph glyph-name="Idieresis" unicode="&#xcf;" horiz-adv-x="935" 
d="M183 2254q-71 0 -121 49.5t-50 116.5q0 72 50 120t121 48q74 0 122 -48t48 -120q0 -67 -48 -116.5t-122 -49.5zM753 2254q-71 0 -121.5 49.5t-50.5 116.5q0 72 50.5 120t121.5 48q73 0 121.5 -48t48.5 -120q0 -67 -48.5 -116.5t-121.5 -49.5zM624 2048v-2048h-317v2048
h317z" />
    <glyph glyph-name="Idieresisacute" unicode="&#x1e2e;" horiz-adv-x="915" 
d="M338 2432l175 294h267l-250 -294h-192zM106 2205q-43 22 -59 70.5t12 91.5q29 47 79 62.5t93 -6.5q47 -23 60.5 -69t-14.5 -93q-28 -43 -76 -61t-95 5zM678 2205q-43 22 -58.5 70.5t12.5 91.5q28 47 78 62.5t93 -6.5q47 -23 60.5 -69t-14.5 -93q-28 -43 -76 -61t-95 5z
M590 2048v-2048h-317v2048h317z" />
    <glyph glyph-name="Istroke" unicode="&#x197;" horiz-adv-x="964" 
d="M940 1181v-209h-295v-972h-317v972h-304v209h304v867h317v-867h295z" />
    <glyph glyph-name="Itildebelow" unicode="&#x1e2c;" horiz-adv-x="1042" 
d="M679 2048v-2048h-317v2048h317zM815 -130l202 -16q0 -154 -88 -253t-220 -99q-90 0 -144 31t-102.5 62t-122.5 31q-53 0 -88.5 -40t-35.5 -103l-206 10q0 151 88 254t220 103q74 0 131 -31t112.5 -61.5t125.5 -30.5q53 0 90.5 40t37.5 103z" />
    <glyph glyph-name="J" unicode="J" horiz-adv-x="1484" 
d="M970 598v1450h316v-1450q0 -298 -174.5 -462t-455.5 -164q-173 0 -313.5 66.5t-223 193.5t-82.5 309h312q1 -144 94 -222t224 -78q77 0 146.5 33.5t113 111.5t43.5 212z" />
    <glyph glyph-name="uni0248" unicode="&#x248;" horiz-adv-x="1579" 
d="M989 598v374h-382v209h382v867h316v-867h218v-209h-218v-374q0 -298 -174.5 -462t-455.5 -164q-173 0 -313.5 66.5t-223 193.5t-82.5 309h312q1 -144 94 -222t224 -78q77 0 146.5 33.5t113 111.5t43.5 212z" />
    <glyph glyph-name="K" unicode="K" horiz-adv-x="1904" 
d="M1444 0l-660 893l-252 -280v-613h-317v2048h317v-965h25l873 965h415l-863 -932l843 -1116h-381z" />
    <glyph glyph-name="Kabashkircyrillic" unicode="&#x4a0;" horiz-adv-x="2358" 
d="M1898 0l-660 892l-252 -280v-612h-317v1783h-637v265h954v-965h26l872 965h415l-863 -932l844 -1116h-382z" />
    <glyph glyph-name="Kadescendercyrillic" unicode="&#x49a;" horiz-adv-x="2050" 
d="M1476 0l-660 893l-252 -280v-613h-317v2048h317v-965h25l873 965h415l-863 -932l656 -868h286v-743h-303v495h-177z" />
    <glyph glyph-name="Khook" unicode="&#x198;" horiz-adv-x="1929" 
d="M1444 0l-660 893l-252 -280v-613h-317v2048h317v-965h25l657 725l91 101q133 146 294 162.5t309 -80.5l-114 -231q-72 43 -136.5 31.5t-138.5 -94.5l-51 -56l-486 -525l843 -1116h-381z" />
    <glyph glyph-name="L" unicode="L" horiz-adv-x="1579" 
d="M1444 272v-272h-1229v2048h317v-1776h912z" />
    <glyph glyph-name="L_slash" unicode="&#x141;" horiz-adv-x="1661" 
d="M1499 272v-272h-1229v898l-197 -59v200l197 60v949h317v-853l334 102v-202l-334 -101v-722h912z" />
    <glyph glyph-name="L_bar" unicode="&#x23d;" horiz-adv-x="1661" 
d="M953 1181v-209h-347v-700h912v-272h-1229v972h-252v209h252v867h317v-867h347z" />
    <glyph glyph-name="M" unicode="M" horiz-adv-x="2495" 
d="M215 2048h379l644 -1557h24l638 1557h380v-2048h-306v1471h-19l-582 -1450h-252l-581 1452h-19v-1473h-306v2048z" />
    <glyph glyph-name="uni04CD" unicode="&#x4cd;" horiz-adv-x="2570" 
d="M215 2048h379l644 -1557h24l638 1557h380v-1846h215v-221q-2 -143 -59.5 -279t-149.5 -249l-208 63q50 112 89 218t39 235v31h-232v1471h-19l-582 -1450h-252l-581 1452h-19v-1473h-306v2048z" />
    <glyph glyph-name="N" unicode="N" horiz-adv-x="2039" 
d="M1824 2048v-2048h-309l-964 1494h-19v-1494h-317v2048h310l966 -1499h19v1499h314z" />
    <glyph glyph-name="Nhook" unicode="&#x19d;" horiz-adv-x="2039" 
d="M1824 2048v-2048h-309l-964 1494h-19v-1631q0 -159 -65.5 -255.5t-169 -140t-217.5 -43.5q-37 0 -83 1.5t-76 9.5v251q39 -7 79 -7q90 0 152.5 39t62.5 148v2182h310l966 -1499h19v1499h314z" />
    <glyph glyph-name="Eng" unicode="&#x14a;" horiz-adv-x="2039" 
d="M1824 2048v-2170q0 -154 -65 -257.5t-174 -156t-240 -52.5q-40 0 -82.5 1.5t-78.5 10.5v258q18 -2 44.5 -4t48.5 -2q95 0 164 45t69 169v118l-959 1486h-19v-1494h-317v2048h310l966 -1499h19v1499h314z" />
    <glyph glyph-name="afii10026" unicode="&#x418;" horiz-adv-x="2039" 
d="M1824 -14h-314v1499h-19l-966 -1499h-310v2048h317v-1494h19l964 1494h309v-2048z" />
    <glyph glyph-name="uni048A" unicode="&#x48a;" horiz-adv-x="2275" 
d="M1194 2514h249q0 -170 -119.5 -278t-323.5 -108q-202 0 -320.5 108t-118.5 278h247q0 -75 43.5 -132t148.5 -57t149.5 57t44.5 132zM1791 -14h-314v1499h-19l-966 -1499h-310v2048h317v-1494h19l964 1494h309v-2048zM2100 202v-221q-2 -143 -60 -279t-149 -249l-208 63
q49 112 88.5 218t39.5 235v233h289z" />
    <glyph glyph-name="uni0376" unicode="&#x376;" horiz-adv-x="2080" 
d="M1841 -14h-314v1499h-19l-966 -1499h-310v2048h317v-1494h19l964 1494h309v-2048z" />
    <glyph glyph-name="O" unicode="O" horiz-adv-x="2111" 
d="M1958 1023q0 -328 -117 -563.5t-321 -361.5t-463 -126q-261 0 -465 126t-321.5 361.5t-117.5 563.5q0 329 117.5 564.5t321.5 362t465 126.5q259 0 463 -126.5t321 -362t117 -564.5zM1645 1023q0 255 -77.5 424t-210.5 253.5t-300 84.5t-301 -84.5t-212 -253.5t-78 -424
t78 -423.5t212 -252.5t301 -84t300 84t210.5 252.5t77.5 423.5z" />
    <glyph glyph-name="Odieresis" unicode="&#xd6;" horiz-adv-x="2111" 
d="M771 2254q-71 0 -121 49.5t-50 116.5q0 72 50 120t121 48q74 0 122 -48t48 -120q0 -67 -48 -116.5t-122 -49.5zM1341 2254q-71 0 -121.5 49.5t-50.5 116.5q0 72 50.5 120t121.5 48q73 0 121.5 -48t48.5 -120q0 -67 -48.5 -116.5t-121.5 -49.5zM1958 1023
q0 -328 -117 -563.5t-321 -361.5t-463 -126q-261 0 -465 126t-321.5 361.5t-117.5 563.5q0 329 117.5 564.5t321.5 362t465 126.5q259 0 463 -126.5t321 -362t117 -564.5zM1645 1023q0 255 -77.5 424t-210.5 253.5t-300 84.5t-301 -84.5t-212 -253.5t-78 -424t78 -423.5
t212 -252.5t301 -84t300 84t210.5 252.5t77.5 423.5z" />
    <glyph glyph-name="Otilde" unicode="&#xd5;" horiz-adv-x="2111" 
d="M1357 2640l202 -16q0 -154 -88 -253t-220 -99q-90 0 -144 31t-102.5 62t-122.5 31q-53 0 -88.5 -40t-35.5 -103l-206 10q0 151 88 254t220 103q74 0 131 -31t112.5 -61.5t125.5 -30.5q53 0 90.5 40t37.5 103zM1958 1023q0 -328 -117 -563.5t-321 -361.5t-463 -126
q-261 0 -465 126t-321.5 361.5t-117.5 563.5q0 329 117.5 564.5t321.5 362t465 126.5q259 0 463 -126.5t321 -362t117 -564.5zM1645 1023q0 255 -77.5 424t-210.5 253.5t-300 84.5t-301 -84.5t-212 -253.5t-78 -424t78 -423.5t212 -252.5t301 -84t300 84t210.5 252.5
t77.5 423.5z" />
    <glyph glyph-name="Oslash" unicode="&#xd8;" horiz-adv-x="2111" 
d="M429 -89l-167 114l151 223q-122 136 -191 331.5t-69 443.5q0 329 117.5 564.5t322 362t464.5 126.5q279 0 492 -145l137 202l167 -114l-151 -223q120 -136 188 -331.5t68 -441.5q0 -328 -117 -563.5t-321 -361.5t-463 -126q-278 0 -491 143zM466 1023q0 -162 33 -289.5
t93 -220.5l790 1170q-138 102 -325 102q-167 0 -301 -84.5t-212 -253.5t-78 -424zM1645 1023q0 161 -32 287.5t-90 219.5l-790 -1168q138 -99 324 -99q167 0 300 84t210.5 252.5t77.5 423.5z" />
    <glyph glyph-name="Ohorn" unicode="&#x1a0;" horiz-adv-x="2154" 
d="M1958 1023q0 -328 -117 -563.5t-321 -361.5t-463 -126q-261 0 -465 126t-321.5 361.5t-117.5 563.5q0 329 117.5 564.5t321.5 362t465 126.5q384 0 630 -264q99 29 142.5 123.5t43.5 242.5h249q0 -212 -75 -352t-229 -196q67 -122 103.5 -275t36.5 -332zM1645 1023
q0 255 -77.5 424t-210.5 253.5t-300 84.5t-301 -84.5t-212 -253.5t-78 -424t78 -423.5t212 -252.5t301 -84t300 84t210.5 252.5t77.5 423.5z" />
    <glyph glyph-name="P" unicode="P" horiz-adv-x="1788" 
d="M936 728h-404v-728h-317v2048h718q247 0 402 -85t227.5 -233.5t72.5 -338.5q0 -191 -73 -341t-227.5 -236t-398.5 -86zM532 1776v-776h404q215 0 300.5 112t85.5 279t-86 276t-303 109h-401z" />
    <glyph glyph-name="uni048E" unicode="&#x48e;" horiz-adv-x="1788" 
d="M936 728h-404v-728h-317v2048h718q247 0 402 -85t227.5 -233.5t72.5 -338.5q0 -145 -41.5 -267.5t-128.5 -211.5l146 -177l-178 -150l-165 199q-142 -56 -332 -56zM1088 1368l178 -216q30 49 43 110t13 129q0 167 -86 276t-303 109h-401v-776h404q77 0 140 16l-166 200z
" />
    <glyph glyph-name="Phook" unicode="&#x1a4;" horiz-adv-x="2161" 
d="M1309 728h-404v-728h-317v1777h-101q-80 0 -120 -36.5t-53.5 -93.5t-13.5 -121v-92h-289v160q0 196 124 325t349 129h822q247 0 402 -85t227.5 -233.5t72.5 -338.5q0 -191 -73.5 -341t-228 -236t-397.5 -86zM905 1776v-776h404q215 0 300.5 112t85.5 279t-85.5 276
t-303.5 109h-401z" />
    <glyph glyph-name="Q" unicode="Q" horiz-adv-x="2111" 
d="M1958 1023q0 -286 -90.5 -502t-247.5 -350l267 -363h-322l-167 228q-158 -64 -341 -64q-261 0 -465 126t-321.5 361.5t-117.5 563.5q0 329 117.5 564.5t321.5 362t465 126.5q259 0 463 -126.5t321 -362t117 -564.5zM943 660h307l187 -250q96 93 152 246.5t56 366.5
q0 255 -77.5 424t-210.5 253.5t-300 84.5t-301 -84.5t-212 -253.5t-78 -424t78 -423.5t212 -252.5t301 -84q87 0 165 23z" />
    <glyph glyph-name="R" unicode="R" horiz-adv-x="1788" 
d="M1353 0l-394 782h-427v-782h-317v2048h717q244 0 399 -83t229.5 -226t74.5 -323q0 -212 -95.5 -354t-262.5 -216l434 -846h-358zM532 1776v-717h381q223 0 316 97t93 256q0 94 -35 177t-120 135t-235 52h-400z" />
    <glyph glyph-name="response" unicode="&#x211f;" horiz-adv-x="1788" 
d="M1353 0l-394 781l-435 -1258l-202 49l146 428h-253v2048h717q121 0 224 -23l40 117l-265 110l79 206l459 -203l-107 -309q140 -83 206.5 -221.5t66.5 -308.5q0 -212 -95.5 -354t-262.5 -216l434 -846h-358zM532 1776v-717h296l239 703q-61 14 -135 14h-400zM1322 1412
q0 63 -15 122.5t-50 108.5l-197 -570q141 31 201.5 120.5t60.5 218.5zM532 782v-592l201 592h-201z" />
    <glyph glyph-name="Rx" unicode="&#x211e;" horiz-adv-x="1987" 
d="M1235 0h-338l327 452l-236 330h-456v-782h-317v2048h717q244 0 399 -83t229.5 -226t74.5 -323q0 -213 -96 -355t-265 -216l117 -162l164 227h330l-327 -458l327 -452h-338l-156 218zM532 1776v-717h381q223 0 316 97t93 256q0 94 -35 177t-120 135t-235 52h-400z" />
    <glyph glyph-name="uni024C" unicode="&#x24c;" horiz-adv-x="1793" 
d="M1358 0l-394 782h-427v-782h-317v782h-215v277h215v989h717q243 0 399 -83t230.5 -226t74.5 -323q0 -212 -95.5 -353.5t-262.5 -216.5l434 -846h-359zM537 1776v-717h381q224 0 317 97t93 256q0 94 -35 177t-120 135t-236 52h-400z" />
    <glyph glyph-name="S" unicode="S" horiz-adv-x="1784" 
d="M1311 1494q-20 149 -127.5 228.5t-282.5 79.5q-181 0 -293.5 -82.5t-112.5 -212.5q0 -115 100.5 -185.5t292.5 -126.5l159 -46q290 -85 438.5 -222.5t148.5 -361.5q0 -177 -90 -311.5t-257 -210.5t-398 -76q-215 0 -383 71.5t-268 206.5t-108 327h318q12 -166 138.5 -248
t302.5 -82q197 0 318 91t121 231q0 124 -98 195t-315 136l-184 53q-245 72 -394 206.5t-149 348.5q0 172 94.5 301t257.5 200.5t367 71.5q205 0 362 -73.5t248 -205t98 -303.5h-304z" />
    <glyph glyph-name="Germandbls" unicode="&#x1e9e;" horiz-adv-x="1922" 
d="M681 45l94 260q51 -23 127 -45t176 -22q182 0 278.5 91t96.5 240q0 191 -106.5 282.5t-309.5 91.5h-194v233l390 476q-67 49 -156 88t-214 39q-191 0 -266.5 -128t-75.5 -326v-1325h-317v1325q0 721 659 721q236 0 419.5 -93t347.5 -233l-447 -544q286 -27 442.5 -181
t156.5 -423q0 -194 -90 -328t-245 -203t-350 -69q-117 0 -220 19t-196 54z" />
    <glyph glyph-name="T" unicode="T" horiz-adv-x="1812" 
d="M1694 2048v-272h-630v-1776h-316v1776h-630v272h1576z" />
    <glyph glyph-name="Thook" unicode="&#x1ac;" horiz-adv-x="1901" 
d="M1805 2048v-272h-630v-1776h-317v1776h-371q-111 0 -150 -74t-39 -162v-93h-274v150q0 205 122 328t341 123h1318z" />
    <glyph glyph-name="Trthook" unicode="&#x1ae;" horiz-adv-x="1812" 
d="M1692 2048v-272h-629v-1913q0 -109 69 -142t159 -33h79v-264h-159q-115 0 -221.5 42.5t-174.5 138t-68 255.5v1916h-630v272h1575z" />
    <glyph glyph-name="uni023E" unicode="&#x23e;" horiz-adv-x="1813" 
d="M520 -155l-188 85l419 957v889h-630v272h1138l93 212l188 -84l-56 -128h212v-272h-331l-299 -683v-1093h-315v373zM1066 1776v-169l74 169h-74z" />
    <glyph glyph-name="U" unicode="U" horiz-adv-x="2044" 
d="M1513 2048h317v-1355q0 -231 -107.5 -393t-290 -247.5t-408.5 -85.5t-409.5 85.5t-291.5 247.5t-108 393v1355h317v-1350q0 -140 67 -239t179 -150.5t246 -51.5t245 51.5t177.5 150.5t66.5 239v1350z" />
    <glyph glyph-name="Uhorn" unicode="&#x1af;" horiz-adv-x="2366" 
d="M1513 2048h317v-294q131 32 172.5 134t41.5 265h246q0 -267 -103.5 -423.5t-356.5 -187.5v-849q0 -231 -107.5 -393t-290 -247.5t-408.5 -85.5t-409.5 85.5t-291.5 247.5t-108 393v1355h317v-1350q0 -140 67 -239t179 -150.5t246 -51.5t245 51.5t177.5 150.5t66.5 239
v1350z" />
    <glyph glyph-name="uni0244" unicode="&#x244;" horiz-adv-x="2167" 
d="M2136 1179v-196h-236v-290q0 -231 -107.5 -393t-290 -247.5t-408.5 -85.5t-409.5 85.5t-291.5 247.5t-108 393v290h-253v196h253v869h317v-869h981v869h317v-869h236zM602 698q0 -140 67 -239t179 -150.5t246 -51.5t245.5 51.5t177.5 150.5t66 239v285h-981v-285z" />
    <glyph glyph-name="V" unicode="V" horiz-adv-x="1988" 
d="M408 2048l574 -1642h24l575 1642h333l-753 -2048h-333l-753 2048h333z" />
    <glyph glyph-name="W" unicode="W" horiz-adv-x="2744" 
d="M381 2048l401 -1575h19l410 1575h321l411 -1576h18l402 1576h305l-547 -2048h-325l-416 1521h-16l-416 -1521h-325l-548 2048h306z" />
    <glyph glyph-name="X" unicode="X" horiz-adv-x="1862" 
d="M446 2048l477 -793h16l477 793h366l-629 -1024l634 -1024h-369l-479 784h-16l-479 -784h-369l644 1024l-639 1024h366z" />
    <glyph glyph-name="Hadescendercyrillic" unicode="&#x4b2;" horiz-adv-x="1980" 
d="M1883 248v-743h-303v495h-162l-479 784h-16l-479 -784h-369l644 1024l-639 1024h366l477 -793h16l477 793h366l-629 -1024l480 -776h250z" />
    <glyph glyph-name="uni04FC" unicode="&#x4fc;" horiz-adv-x="1900" 
d="M446 2048l477 -793h16l477 793h366l-629 -1024l453 -731h225v-368q0 -233 -121 -371t-347 -138q-47 0 -86.5 4t-84.5 16l20 265q22 -9 64.5 -14t68.5 -5q80 0 131.5 63t51.5 180v75h-110l-479 784h-16l-479 -784h-369l644 1024l-639 1024h366z" />
    <glyph glyph-name="Y" unicode="Y" horiz-adv-x="1967" 
d="M427 2048l545 -928h24l544 928h355l-753 -1224v-824h-317v824l-753 1224h355z" />
    <glyph glyph-name="Yhook" unicode="&#x1b3;" horiz-adv-x="2053" 
d="M427 2048l545 -928h24l360 614l52 87q110 189 273 234t324 -26l-74 -247q-83 31 -147 11t-120 -116l-38 -65l-484 -788v-824h-317v824l-753 1224h355z" />
    <glyph glyph-name="uni024E" unicode="&#x24e;" horiz-adv-x="1951" 
d="M418 2048l249 -423h616l249 423h355l-260 -423h294v-185h-408l-379 -616v-824h-317v824l-379 616h-409v185h295l-260 423h354zM963 1120h24l188 320h-400z" />
    <glyph glyph-name="Z" unicode="Z" horiz-adv-x="1780" 
d="M1623 272v-272h-1457v209l1064 1567h-1072v272h1457v-209l-1065 -1567h1073z" />
    <glyph glyph-name="uni0224" unicode="&#x224;" horiz-adv-x="1780" 
d="M1615 1839l-1063 -1567h629q218 0 340.5 -123t122.5 -328v-143h-273v86q0 89 -38.5 162.5t-151.5 73.5h-1015v209l1063 1567h-1071v272h1457v-209z" />
    <glyph glyph-name="Zbar" unicode="&#x1b5;" horiz-adv-x="1780" 
d="M1623 272v-272h-1457v209l474 698h-212v209h354l448 660h-1072v272h1457v-209l-491 -723h220v-209h-362l-432 -635h1073z" />
    <glyph glyph-name="uni2C7F" unicode="&#x2c7f;" horiz-adv-x="1780" 
d="M283 0h-118v203l1059 1562h-1068v269h1452v-202l-1068 -1582q140 -34 247.5 -101.5t193 -147.5t160.5 -154t150 -121.5t161 -47.5q57 0 102.5 7t87.5 18v-264q-34 -15 -96.5 -27t-134.5 -12q-134 0 -239.5 60.5t-200 150t-193 179t-218 150t-277.5 60.5z" />
    <glyph glyph-name="OE" unicode="&#x152;" horiz-adv-x="2715" 
d="M970 2048h1558v-272h-961v-614h845v-273h-845v-617h972v-272h-1569q-236 0 -415.5 103t-280 287t-100.5 426v420q0 242 100 425t279 285t417 102zM970 265h279v1518h-279q-217 0 -343 -135.5t-126 -411.5v-420q0 -276 127.5 -413.5t341.5 -137.5z" />
    <glyph glyph-name="a" unicode="a" horiz-adv-x="1576" 
d="M1082 0v191h-14q-26 -49 -79.5 -101t-139.5 -87.5t-208 -35.5q-142 0 -258 54.5t-185 159.5t-69 254q0 161 81.5 257t219.5 143.5t305 65.5q88 11 165.5 18.5t126 27t48.5 65.5v13q0 149 -76.5 213.5t-197.5 64.5q-142 0 -228 -64.5t-116 -145.5l-291 67
q48 140 144.5 227.5t223 128t265.5 40.5q93 0 194.5 -22t190.5 -79.5t144.5 -162.5t55.5 -271v-1021h-302zM1075 536v209q-17 -20 -80 -35t-134.5 -24.5t-114.5 -15.5q-138 -17 -226.5 -69t-88.5 -171q0 -104 76.5 -158.5t196.5 -54.5q172 0 271.5 97.5t99.5 221.5z" />
    <glyph glyph-name="adieresis" unicode="&#xe4;" horiz-adv-x="1579" 
d="M497 1742q-71 0 -121 49.5t-50 116.5q0 72 50 120t121 48q74 0 122 -48t48 -120q0 -67 -48 -116.5t-122 -49.5zM1067 1742q-71 0 -121.5 49.5t-50.5 116.5q0 72 50.5 120t121.5 48q73 0 121.5 -48t48.5 -120q0 -67 -48.5 -116.5t-121.5 -49.5zM1082 0v191h-14
q-26 -49 -79.5 -101t-139.5 -87.5t-208 -35.5q-142 0 -258 54.5t-185 159.5t-69 254q0 161 81.5 257t219.5 143.5t305 65.5q88 11 165.5 18.5t126 27t48.5 65.5v13q0 149 -76.5 213.5t-197.5 64.5q-142 0 -228 -64.5t-116 -145.5l-291 67q48 140 144.5 227.5t223 128
t265.5 40.5q93 0 194.5 -22t190.5 -79.5t144.5 -162.5t55.5 -271v-1021h-302zM1075 536v209q-17 -20 -80 -35t-134.5 -24.5t-114.5 -15.5q-138 -17 -226.5 -69t-88.5 -171q0 -104 76.5 -158.5t196.5 -54.5q172 0 271.5 97.5t99.5 221.5z" />
    <glyph glyph-name="atilde" unicode="&#xe3;" horiz-adv-x="1579" 
d="M1061 2108l202 -16q0 -154 -88 -253t-220 -99q-90 0 -144 31t-102.5 62t-122.5 31q-53 0 -88.5 -40t-35.5 -103l-206 10q0 151 88 254t220 103q74 0 131 -31t112.5 -61.5t125.5 -30.5q53 0 90.5 40t37.5 103zM1082 0v191h-14q-26 -49 -79.5 -101t-139.5 -87.5t-208 -35.5
q-142 0 -258 54.5t-185 159.5t-69 254q0 161 81.5 257t219.5 143.5t305 65.5q88 11 165.5 18.5t126 27t48.5 65.5v13q0 149 -76.5 213.5t-197.5 64.5q-142 0 -228 -64.5t-116 -145.5l-291 67q48 140 144.5 227.5t223 128t265.5 40.5q93 0 194.5 -22t190.5 -79.5
t144.5 -162.5t55.5 -271v-1021h-302zM1075 536v209q-17 -20 -80 -35t-134.5 -24.5t-114.5 -15.5q-138 -17 -226.5 -69t-88.5 -171q0 -104 76.5 -158.5t196.5 -54.5q172 0 271.5 97.5t99.5 221.5z" />
    <glyph glyph-name="a_uni02DE" horiz-adv-x="2183" 
d="M1082 0v191h-14q-26 -49 -79.5 -101t-139.5 -87.5t-208 -35.5q-142 0 -258 54.5t-185 159.5t-69 254q0 161 81.5 257t219.5 143.5t305 65.5q88 11 165.5 18.5t126 27t48.5 65.5v13q0 149 -76.5 213.5t-197.5 64.5q-142 0 -228 -64.5t-116 -145.5l-291 67
q48 140 144.5 227.5t223 128t265.5 40.5q93 0 194.5 -22t190.5 -79.5t144.5 -162.5t55.5 -271v-56l442 91q20 -122 35 -204.5t49.5 -124t110.5 -41.5q17 0 38.5 4.5t37.5 7.5l49 -237q-85 -41 -190 -41q-110 0 -173.5 50t-99 130.5t-61.5 173.5l-238 -49v-725h-302z
M1075 536v209q-17 -20 -80 -35t-134.5 -24.5t-114.5 -15.5q-138 -17 -226.5 -69t-88.5 -171q0 -104 76.5 -158.5t196.5 -54.5q172 0 271.5 97.5t99.5 221.5z" />
    <glyph glyph-name="ae" unicode="&#xe6;" horiz-adv-x="2553" 
d="M169 1160q49 140 145 227.5t222.5 128t264.5 40.5q172 0 291.5 -56.5t182.5 -146.5q85 96 204.5 149.5t271.5 53.5q177 0 330.5 -77t248 -243t94.5 -434v-99l-1072 -92q30 -183 136.5 -281.5t281.5 -98.5q140 0 226 61.5t124 165.5l284 -78q-32 -110 -114.5 -204
t-213 -150.5t-304.5 -56.5q-207 0 -346 83t-219 232h-7q-10 -48 -71 -123t-175 -134.5t-285 -59.5q-144 0 -266.5 52t-197 156.5t-74.5 259.5q0 161 81.5 257t219.5 143.5t305 65.5q89 11 166.5 18.5t125.5 27t48 65.5v13q0 149 -79.5 211t-198.5 62q-142 0 -225.5 -65
t-116.5 -148zM1750 1295q-170 0 -278.5 -119t-127.5 -334l780 64q0 167 -100 278t-274 111zM1077 536v209q-17 -20 -80 -35t-134.5 -24.5t-114.5 -15.5q-138 -17 -226 -69t-88 -171q0 -104 76.5 -158.5t196.5 -54.5q171 0 270.5 97.5t99.5 221.5z" />
    <glyph glyph-name="aturn" unicode="&#x250;" horiz-adv-x="1582" 
d="M495 1528v-191h14q25 49 79 101t140 87.5t208 35.5q142 0 258 -54.5t185 -159.5t69 -254q0 -161 -81.5 -257t-219 -143.5t-305.5 -65.5q-88 -11 -165.5 -18.5t-126 -27t-48.5 -65.5v-13q0 -149 76.5 -213.5t197.5 -64.5q142 0 228 64.5t116 145.5l291 -67
q-49 -141 -145 -228t-223 -127.5t-265 -40.5q-93 0 -194.5 22t-190.5 79.5t-144.5 162.5t-55.5 271v1021h302zM502 992v-209q18 20 80.5 35t134 24.5t114.5 15.5q138 17 226.5 69t88.5 171q0 104 -76.5 158.5t-196.5 54.5q-172 0 -271.5 -97.5t-99.5 -221.5z" />
    <glyph glyph-name="b" unicode="b" horiz-adv-x="1696" 
d="M193 2048h308v-730h18q26 46 73.5 101.5t129.5 96t209 40.5q181 0 325 -93.5t227.5 -270t83.5 -427.5q0 -249 -82 -427t-225.5 -272.5t-325.5 -94.5q-126 0 -208.5 40t-131.5 96t-75 103h-25v-210h-301v2048zM1268 768q0 230 -99.5 378.5t-299.5 148.5
q-198 0 -293 -147.5t-95 -379.5q0 -233 95.5 -385t292.5 -152q198 0 298.5 152.5t100.5 384.5z" />
    <glyph glyph-name="bbar" unicode="&#x180;" horiz-adv-x="1761" 
d="M260 2048h308v-127h370v-209h-370v-394h18q26 46 73.5 101.5t129 96t209.5 40.5q182 0 325.5 -93.5t227 -270t83.5 -427.5q0 -249 -82 -427t-225 -272.5t-326 -94.5q-126 0 -208.5 40t-131.5 96t-75 103h-25v-210h-301v1712h-238v209h238v127zM1335 768
q0 230 -99.5 378.5t-299.5 148.5q-198 0 -293 -147.5t-95 -379.5q0 -233 96 -385t292 -152q198 0 298.5 152.5t100.5 384.5z" />
    <glyph glyph-name="btopbar" unicode="&#x183;" horiz-adv-x="1751" 
d="M193 2048h1183v-271h-875v-459h18q26 46 73.5 101.5t129.5 96t209 40.5q181 0 325 -93.5t227.5 -270t83.5 -427.5q0 -249 -82 -427t-225.5 -272.5t-325.5 -94.5q-126 0 -208.5 40t-131.5 96t-75 103h-25v-210h-301v2048zM1268 768q0 230 -99.5 378.5t-299.5 148.5
q-198 0 -293 -147.5t-95 -379.5q0 -233 95.5 -385t292.5 -152q198 0 298.5 152.5t100.5 384.5z" />
    <glyph glyph-name="bhook" unicode="&#x253;" horiz-adv-x="1696" 
d="M723 1823q-90 0 -156 -38.5t-66 -147.5v-319h18q26 46 73.5 101.5t129.5 96t209 40.5q181 0 325 -93.5t227.5 -270t83.5 -427.5q0 -249 -82 -427t-225.5 -272.5t-325.5 -94.5q-126 0 -208.5 40t-131.5 96t-75 103h-25v-210h-301v1637q0 161 65 257.5t167.5 139
t217.5 42.5q49 0 92 -3t75 -10v-248q-18 3 -40.5 5.5t-46.5 2.5zM1268 768q0 230 -99.5 378.5t-299.5 148.5q-198 0 -293 -147.5t-95 -379.5q0 -233 95.5 -385t292.5 -152q198 0 298.5 152.5t100.5 384.5z" />
    <glyph glyph-name="c" unicode="c" horiz-adv-x="1577" 
d="M1462 1062l-295 -26q-27 107 -109 183t-224 76q-191 0 -298 -144t-107 -383q0 -243 106 -390t299 -147q128 0 213.5 66.5t116.5 182.5l297 -24q-38 -212 -204.5 -349.5t-422.5 -137.5q-218 0 -376 102t-243.5 282.5t-85.5 414.5q0 230 86.5 408t244 279t371.5 101
q251 0 423 -135t208 -359z" />
    <glyph glyph-name="uni023C" unicode="&#x23c;" horiz-adv-x="1542" 
d="M1416 1062l-295 -26q-24 95 -85 160l-360 -950q52 -15 111 -15q127 0 213.5 66.5t117.5 182.5l296 -24q-38 -212 -204 -349.5t-423 -137.5q-109 0 -205 27l-216 -568h-210l247 649q-153 100 -237 279.5t-84 411.5q0 230 86.5 408t244.5 279t372 101q90 0 173 -19l178 467
h207l-204 -537q111 -64 183 -167.5t94 -237.5zM382 768q0 -270 126 -415l356 935q-37 7 -77 7q-191 0 -298 -144t-107 -383z" />
    <glyph glyph-name="chook" unicode="&#x188;" horiz-adv-x="1732" 
d="M1462 1062l-295 -26q-27 107 -109 183t-224 76q-191 0 -298 -144t-107 -383q0 -243 106 -390t299 -147q128 0 213.5 66.5t116.5 182.5l297 -24q-38 -212 -204.5 -349.5t-422.5 -137.5q-218 0 -376 102t-243.5 282.5t-85.5 414.5q0 230 86.5 408t244 279t371.5 101
q216 0 377 -103q52 114 157 174t238 60q40 0 78 -3t72 -13v-231q-19 3 -40.5 6t-45.5 3q-91 0 -148 -42t-57 -160v-185z" />
    <glyph glyph-name="ccurl" unicode="&#x255;" horiz-adv-x="1569" 
d="M834 231q112 0 197.5 48t85.5 133q0 59 -42.5 88t-86.5 29q-91 0 -194 -60t-205 -150q99 -88 245 -88zM1462 1062l-295 -26q-27 107 -109 183t-224 76q-191 0 -298 -144t-107 -383q0 -113 24 -207q128 101 268 163t287 62q213 0 309.5 -103.5t96.5 -251.5
q0 -133 -72 -237t-202.5 -164.5t-305.5 -60.5q-134 0 -246 40t-198 113q-53 -57 -100 -112.5t-87 -103.5l-205 172q51 68 106.5 135t114.5 131q-90 184 -90 424q0 230 86.5 408t244 279t371.5 101q251 0 423 -135t208 -359z" />
    <glyph glyph-name="d" unicode="d" horiz-adv-x="1696" 
d="M1503 0h-301v210h-23q-26 -47 -75.5 -103t-132.5 -96t-210 -40q-182 0 -325 94.5t-225 272.5t-82 427q0 251 83.5 427.5t227 270t324.5 93.5q128 0 210 -40.5t130.5 -96t74.5 -101.5h16v730h308v-2048zM427 768q0 -232 101 -384.5t299 -152.5q197 0 292 152t95 385
q0 232 -95 379.5t-292 147.5q-200 0 -300 -148.5t-100 -378.5z" />
    <glyph glyph-name="dcroat" unicode="&#x111;" horiz-adv-x="1736" 
d="M1503 0h-301v210h-23q-26 -47 -75.5 -103t-132.5 -96t-210 -40q-182 0 -325 94.5t-225 272.5t-82 427q0 251 83.5 427.5t227 270t324.5 93.5q128 0 210 -40.5t130.5 -96t74.5 -101.5h16v381h-385v209h385v140h308v-140h223v-209h-223v-1699zM427 768q0 -232 101 -384.5
t299 -152.5q197 0 292 152t95 385q0 232 -95 379.5t-292 147.5q-200 0 -300 -148.5t-100 -378.5z" />
    <glyph glyph-name="drthook" unicode="&#x256;" horiz-adv-x="1768" 
d="M1195 2048h308v-2185q0 -109 63.5 -147.5t153.5 -38.5q24 0 46.5 2.5t39.5 5.5v-248q-32 -7 -75 -10t-91 -3q-114 0 -216 43.5t-165.5 140t-63.5 255.5v347h-16q-26 -47 -75.5 -103t-132.5 -96t-210 -40q-182 0 -325 94.5t-225 272.5t-82 427q0 251 83.5 427.5t227 270
t324.5 93.5q128 0 210 -40.5t130.5 -96t74.5 -101.5h16v730zM427 768q0 -232 101 -384.5t299 -152.5q197 0 292 152t95 385q0 232 -95 379.5t-292 147.5q-200 0 -300 -148.5t-100 -378.5z" />
    <glyph glyph-name="dhook" unicode="&#x257;" horiz-adv-x="1761" 
d="M1503 0h-301v210h-26q-26 -47 -75 -103t-131 -96t-209 -40q-182 0 -325 94.5t-225 272.5t-82 427q0 251 83.5 427.5t227 270t324.5 93.5q128 0 209.5 -40.5t129 -96t73.5 -101.5h19v321q0 161 67.5 258t172.5 139.5t218 42.5q102 0 166 -18v-250q-19 6 -43 8t-43 2
q-57 0 -109.5 -12.5t-86.5 -51.5t-34 -118v-1639zM427 768q0 -232 101 -384.5t299 -152.5q197 0 292 152t95 385q0 232 -95 379.5t-292 147.5q-200 0 -300 -148.5t-100 -378.5z" />
    <glyph glyph-name="dtopbar" unicode="&#x18c;" horiz-adv-x="1669" 
d="M1505 0h-301v210h-23q-26 -47 -75.5 -103t-132.5 -96t-209 -40q-182 0 -325.5 94.5t-225.5 272.5t-82 427q0 251 83.5 427.5t227.5 270t325 93.5q127 0 209.5 -40.5t130.5 -96t74 -101.5h16v459h-886v271h1194v-2048zM430 768q0 -232 100.5 -384.5t298.5 -152.5
q197 0 292.5 152t95.5 385q0 232 -95 379.5t-293 147.5q-199 0 -299 -148.5t-100 -378.5z" />
    <glyph glyph-name="uni0221" unicode="&#x221;" horiz-adv-x="2124" 
d="M2115 -211q0 -166 -115 -269.5t-324 -103.5q-176 0 -278 71t-147 178l-210 -204l-163 193l331 310v246h-6q-26 -47 -75.5 -103t-132.5 -96t-209 -40q-182 0 -325.5 94.5t-225.5 272.5t-82 427q0 251 83.5 427.5t227 270t324.5 93.5q128 0 210 -40.5t130.5 -96
t74.5 -101.5h16v730h308v-1911q84 21 175 21q187 0 300 -100.5t113 -268.5zM452 768q0 -232 100.5 -384.5t298.5 -152.5q197 0 292.5 152t95.5 385q0 232 -95 379.5t-293 147.5q-200 0 -299.5 -148.5t-99.5 -378.5zM1512 -192q0 -70 47 -117.5t119 -47.5q64 0 106 38.5
t42 103.5t-44 100t-116 35q-79 0 -154 -39v-73z" />
    <glyph glyph-name="dz" unicode="&#x2a3;" horiz-adv-x="2977" 
d="M1503 0h-301v210h-23q-26 -47 -75.5 -103t-132.5 -96t-210 -40q-182 0 -325 94.5t-225 272.5t-82 427q0 251 83.5 427.5t227 270t324.5 93.5q128 0 210 -40.5t130.5 -96t74.5 -101.5h16v730h308v-2048zM2823 265v-265h-1210v219l800 1052h-802v265h1193v-211l-799 -1060
h818zM427 768q0 -232 101 -384.5t299 -152.5q197 0 292 152t95 385q0 232 -95 379.5t-292 147.5q-200 0 -300 -148.5t-100 -378.5z" />
    <glyph glyph-name="dzcaron" unicode="&#x1c6;" horiz-adv-x="2977" 
d="M1503 0h-301v210h-23q-26 -47 -75.5 -103t-132.5 -96t-210 -40q-182 0 -325 94.5t-225 272.5t-82 427q0 251 83.5 427.5t227 270t324.5 93.5q128 0 210 -40.5t130.5 -96t74.5 -101.5h16v730h308v-2048zM2004 2048l229 -222l230 222h251v-15l-390 -381h-184l-388 381v15
h252zM2823 265v-265h-1210v219l800 1052h-802v265h1193v-211l-799 -1060h818zM427 768q0 -232 101 -384.5t299 -152.5q197 0 292 152t95 385q0 232 -95 379.5t-292 147.5q-200 0 -300 -148.5t-100 -378.5z" />
    <glyph glyph-name="dzcurl" unicode="&#x2a5;" horiz-adv-x="3239" 
d="M1503 0h-301v210h-23q-26 -47 -75.5 -103t-132.5 -96t-210 -40q-182 0 -325 94.5t-225 272.5t-82 427q0 251 83.5 427.5t227 270t324.5 93.5q128 0 210 -40.5t130.5 -96t74.5 -101.5h16v730h308v-2048zM3194 470q0 -74 -31.5 -156t-99.5 -153.5t-178.5 -116t-268.5 -44.5
h-304l-212 -297l-215 139l111 158h-383v219l802 1052h-804v265h1193v-211l-800 -1060h179q130 182 234.5 304t203 183.5t211.5 61.5q98 0 180.5 -44t132 -121.5t49.5 -178.5zM427 768q0 -232 101 -384.5t299 -152.5q197 0 292 152t95 385q0 232 -95 379.5t-292 147.5
q-200 0 -300 -148.5t-100 -378.5zM2807 547q-77 0 -144 -71t-165 -211h130q152 0 223 58t71 127q0 49 -35.5 73t-79.5 24z" />
    <glyph glyph-name="dyogh" unicode="&#x2a4;" horiz-adv-x="2701" 
d="M1503 0h-301v210h-23q-26 -47 -75.5 -103t-132.5 -96t-210 -40q-182 0 -325 94.5t-225 272.5t-82 427q0 251 83.5 427.5t227 270t324.5 93.5q128 0 210 -40.5t130.5 -96t74.5 -101.5h16v730h308v-512h1051l3 -209l-548 -722q287 -27 439 -193t152 -418q0 -185 -87 -318
t-242 -204.5t-360 -71.5q-163 0 -310 45t-250.5 151t-137.5 290h298q26 -100 129.5 -171t267.5 -71q182 0 287 106t105 252q0 154 -110 265t-320 111h-193v232l498 662h-672v-1272zM427 768q0 -232 101 -384.5t299 -152.5q197 0 292 152t95 385q0 232 -95 379.5t-292 147.5
q-200 0 -300 -148.5t-100 -378.5z" />
    <glyph glyph-name="e" unicode="e" horiz-adv-x="1641" 
d="M857 -31q-225 0 -388.5 96.5t-251.5 272.5t-88 414q0 236 86 417t245 284t377 103q177 0 330.5 -77t248 -243t94.5 -434v-129h-1079q18 -213 127 -327.5t298 -114.5q140 0 226 61.5t124 165.5l284 -78q-32 -110 -114 -204t-212 -150.5t-307 -56.5zM836 1295
q-157 0 -262 -102t-136 -287h772q0 167 -100 278t-274 111z" />
    <glyph glyph-name="edieresis" unicode="&#xeb;" horiz-adv-x="1639" 
d="M536 1742q-70 0 -120.5 49.5t-50.5 116.5q0 72 50.5 120t120.5 48q74 0 122 -48t48 -120q0 -67 -48 -116.5t-122 -49.5zM1106 1742q-71 0 -121.5 49.5t-50.5 116.5q0 72 50.5 120t121.5 48q74 0 122 -48t48 -120q0 -67 -48 -116.5t-122 -49.5zM857 -31
q-225 0 -388.5 96.5t-251.5 272.5t-88 414q0 236 86 417t245 284t377 103q177 0 330.5 -77t248 -243t94.5 -434v-129h-1079q18 -213 127 -327.5t298 -114.5q140 0 226 61.5t124 165.5l284 -78q-32 -110 -114 -204t-212 -150.5t-307 -56.5zM836 1295q-157 0 -262 -102
t-136 -287h772q0 167 -100 278t-274 111z" />
    <glyph glyph-name="uni0247" unicode="&#x247;" horiz-adv-x="1617" 
d="M857 -31q-121 0 -227 29l-214 -574h-212l245 654q-153 97 -236.5 270t-83.5 404q0 236 86 417t245 284t377 103q82 0 158 -16l190 508h208l-214 -574q146 -80 238.5 -244.5t92.5 -427.5v-129h-629l-158 -425q61 -17 133 -17q140 0 226 61.5t124 165.5l284 -78
q-32 -110 -114 -204t-212 -150.5t-307 -56.5zM836 1295q-157 0 -262 -102t-136 -287h320l144 384q-32 5 -66 5zM1210 906q0 196 -129 305l-113 -305h242zM431 673q18 -207 120 -320l120 320h-240z" />
    <glyph glyph-name="f" unicode="f" horiz-adv-x="1039" 
d="M302 0v1284h-229v252h229v106q0 145 63 241.5t166.5 144.5t225.5 48q93 0 157 -14.5t95 -26.5l-70 -248q-22 7 -54.5 15t-77.5 8q-105 0 -151 -52t-46 -154v-68h325v-252h-325v-1284h-308z" />
    <glyph glyph-name="slongstroke" unicode="&#x1e9c;" horiz-adv-x="1023" 
d="M600 0h-303v814l-219 -78v252l219 77v565q0 226 141 346t352 120q47 0 86 -6t66 -13v-251q-24 4 -43 7t-67 3t-102 -18.5t-92 -63t-38 -124.5v-458l225 80v-251l-225 -80v-921z" />
    <glyph glyph-name="slongdotaccent" unicode="&#x1e9b;" horiz-adv-x="898" 
d="M370 2508q0 73 46 121.5t131 48.5t132 -48.5t47 -121.5q0 -71 -47 -118t-132 -47t-131 47t-46 118zM494 0h-302v1630q0 226 140.5 346t352.5 120q47 0 85.5 -6t66.5 -13v-251q-24 4 -43 7t-67 3q-49 0 -103 -18.5t-92 -63t-38 -124.5v-1630z" />
    <glyph glyph-name="feng" unicode="&#x2a9;" horiz-adv-x="2371" 
d="M302 0v1284h-229v252h229v106q0 145 63 241.5t166.5 144.5t225.5 48q93 0 157 -14.5t95 -26.5l-70 -248q-22 7 -54.5 15t-77.5 8q-105 0 -151 -52t-46 -154v-68h607v-229h16q58 107 169.5 178t272.5 71q139 0 253 -61t181.5 -190t67.5 -334v-1089q0 -225 -128.5 -345.5
t-324.5 -120.5q-43 0 -86 2.5t-80 12.5l12 255q20 -4 43 -7.5t52 -3.5q90 0 147.5 45.5t57.5 161.5v1073q0 154 -84.5 241.5t-214.5 87.5q-87 0 -165.5 -46t-127.5 -136t-49 -223v-879h-308v1284h-311v-1284h-308z" />
    <glyph glyph-name="g" unicode="g" horiz-adv-x="1696" 
d="M1202 1533h301v-1519q0 -202 -93.5 -334t-251.5 -196t-350 -64q-234 0 -388 84t-224 187l190 190q36 -37 89 -83.5t132.5 -80.5t194.5 -34q166 0 282 85.5t115 269.5v217h-22q-24 -41 -71 -95t-130.5 -93.5t-214.5 -39.5q-175 0 -318.5 84.5t-228.5 251.5t-85 414
q0 245 83.5 419t227 267t324.5 93q128 0 210 -40.5t130.5 -96t74.5 -101.5h23v215zM427 780q0 -227 103 -361t297 -134q193 0 290 133t97 362q0 223 -95.5 369t-291.5 146q-200 0 -300 -147.5t-100 -367.5z" />
    <glyph glyph-name="ghook" unicode="&#x260;" horiz-adv-x="1747" 
d="M1725 1823q-90 0 -156 -38.5t-66 -147.5v-1623q0 -202 -93.5 -334t-251.5 -196t-350 -64q-234 0 -388 84t-224 187l190 190q36 -37 89 -83.5t132.5 -80.5t194.5 -34q166 0 282 85.5t115 269.5v217h-22q-24 -41 -71 -95t-130.5 -93.5t-214.5 -39.5q-175 0 -318.5 84.5
t-228.5 251.5t-85 414q0 245 83.5 419t227 267t324.5 93q128 0 210 -40.5t130.5 -96t74.5 -101.5h23v319q0 159 63 255.5t164 140t216 43.5q48 0 91.5 -3t75.5 -10v-248q-18 3 -40.5 5.5t-46.5 2.5zM427 780q0 -227 103 -361t297 -134q193 0 290 133t97 362q0 223 -95.5 369
t-291.5 146q-200 0 -300 -147.5t-100 -367.5z" />
    <glyph glyph-name="gbar" unicode="&#x1e5;" horiz-adv-x="1743" 
d="M1202 1533h301v-639h229v-209h-229v-671q0 -202 -93.5 -334t-251.5 -196t-350 -64q-234 0 -388 84t-224 187l190 190q36 -37 89 -83.5t132.5 -80.5t194.5 -34q166 0 282 85.5t115 269.5v217h-22q-24 -41 -71 -95t-130.5 -93.5t-214.5 -39.5q-175 0 -318.5 84.5
t-228.5 251.5t-85 414q0 245 83.5 419t227 267t324.5 93q128 0 210 -40.5t130.5 -96t74.5 -101.5h23v215zM427 780q0 -227 103 -361t297 -134q172 0 268 106.5t114 293.5h-393v209h391q-22 178 -116 289.5t-264 111.5q-200 0 -300 -147.5t-100 -367.5z" />
    <glyph glyph-name="h" unicode="h" horiz-adv-x="1628" 
d="M501 892v-892h-308v2048h303v-711h16q59 87 168.5 153t267.5 66q213 0 350 -146.5t137 -438.5v-971h-307v972q0 147 -74.5 229.5t-209.5 82.5q-137 0 -240 -97t-103 -295z" />
    <glyph glyph-name="hcedilla" unicode="&#x1e29;" horiz-adv-x="1628" 
d="M262 0h-69v2048h303v-711h16q59 87 168.5 153t267.5 66q213 0 350 -146.5t137 -438.5v-971h-307v972q0 147 -74.5 229.5t-209.5 82.5q-137 0 -240 -97t-103 -295v-892h-1l-16 -77q77 -12 142 -65.5t65 -170.5q0 -137 -113 -222t-333 -85l-9 188q82 0 135.5 27.5
t53.5 92.5q0 64 -48.5 87.5t-158.5 31.5z" />
    <glyph glyph-name="tshecyrillic" unicode="&#x45b;" horiz-adv-x="1625" 
d="M548 892v-892h-308v1709h-232v209h232v130h303v-130h381v-209h-381v-372h16q59 87 168.5 153t267.5 66q213 0 350 -146.5t137 -438.5v-971h-307v972q0 147 -74.5 229.5t-209.5 82.5q-137 0 -240 -97t-103 -295z" />
    <glyph glyph-name="djecyrillic" unicode="&#x452;" horiz-adv-x="1625" 
d="M546 892v-892h-308v1701h-235v210h235v137h303v-137h378v-210h-378v-364h16q60 87 169 153t268 66q213 0 350 -146.5t137 -438.5v-1089q0 -225 -125.5 -345.5t-322.5 -120.5q-43 0 -83 2.5t-77 12.5l5 249q46 -11 97 -11q90 0 146.5 48t56.5 165v118h-5v972
q0 147 -74.5 229.5t-208.5 82.5q-137 0 -240.5 -97t-103.5 -295z" />
    <glyph glyph-name="hhook" unicode="&#x266;" horiz-adv-x="1628" 
d="M501 892v-892h-308v1637q0 159 63 255.5t163.5 140t215.5 43.5q49 0 92 -3t75 -10v-248q-18 3 -40 5.5t-46 2.5q-91 0 -154.5 -38.5t-63.5 -147.5v-220h-2v-80h16q59 87 168.5 153t267.5 66q213 0 350 -146.5t137 -438.5v-971h-307v972q0 147 -74.5 229.5t-209.5 82.5
q-137 0 -240 -97t-103 -295z" />
    <glyph glyph-name="henghook" unicode="&#x267;" horiz-adv-x="1628" 
d="M501 892v-892h-308v1637q0 159 63 255.5t163.5 140t215.5 43.5q49 0 92 -3t75 -10v-248q-18 3 -40 5.5t-46 2.5q-91 0 -154.5 -38.5t-63.5 -147.5v-220h-2v-80h16q59 87 168.5 153t267.5 66q213 0 350 -146.5t137 -438.5v-1108q0 -159 -63.5 -255.5t-164.5 -140
t-216 -43.5q-49 0 -92 3t-75 10v248q18 -3 40 -5.5t46 -2.5q90 0 154 38.5t64 147.5v1109q0 147 -74.5 229.5t-209.5 82.5q-137 0 -240 -97t-103 -295z" />
    <glyph glyph-name="hv" unicode="&#x195;" horiz-adv-x="2539" 
d="M501 892v-892h-308v2048h303v-711h16q59 87 168.5 153t267.5 66q213 0 350 -143.5t137 -441.5v-367q0 -148 47.5 -228t117.5 -110.5t136 -30.5t136 30.5t118 110.5t48 228v932h308v-932q0 -312 -167 -472t-443 -160t-442 160t-166 472v368q0 147 -75.5 229.5t-208.5 82.5
q-135 0 -239 -97t-104 -295z" />
    <glyph glyph-name="hturn" unicode="&#x265;" horiz-adv-x="1628" 
d="M1123 644v892h308v-2048h-303v711h-16q-59 -87 -168.5 -153t-267.5 -66q-213 0 -350 146.5t-137 438.5v971h307v-972q0 -147 74.5 -229.5t209.5 -82.5q137 0 240 97t103 295z" />
    <glyph glyph-name="hturnlthook" unicode="&#x2ae;" horiz-adv-x="1677" 
d="M1176 644v892h308v-2112h-303v775h-16q-59 -87 -168.5 -153t-267.5 -66q-214 0 -350.5 143.5t-136.5 441.5v552q0 109 -64 147.5t-154 38.5q-24 0 -46 -2.5t-40 -5.5v248q32 7 75 10t91 3q115 0 216.5 -43.5t165 -140t63.5 -255.5v-553q0 -147 74.5 -229.5t209.5 -82.5
q137 0 240 97t103 295z" />
    <glyph glyph-name="hturnhook2" unicode="&#x2af;" horiz-adv-x="1680" 
d="M1176 644v892h308v-1673q0 -109 63.5 -147.5t154.5 -38.5q23 0 45.5 2.5t40.5 5.5v-248q-32 -7 -75 -10t-92 -3q-115 0 -215.5 43.5t-163.5 140t-63 255.5v220h2v116h-16q-59 -87 -168.5 -153t-267.5 -66q-214 0 -350.5 143.5t-136.5 441.5v552q0 109 -64 147.5
t-154 38.5q-24 0 -46 -2.5t-40 -5.5v248q32 7 75 10t91 3q115 0 216.5 -43.5t165 -140t63.5 -255.5v-553q0 -147 74.5 -229.5t209.5 -82.5q137 0 240 97t103 295z" />
    <glyph glyph-name="dotlessi" unicode="&#x131;" horiz-adv-x="704" 
d="M506 1536v-1536h-308v1536h308z" />
    <glyph glyph-name="i" unicode="i" horiz-adv-x="704" 
d="M351 1712q-85 0 -139 54t-54 128q0 70 54 126t139 56t139 -56t54 -126q0 -74 -54 -128t-139 -54zM506 1536v-1536h-308v1536h308z" />
    <glyph glyph-name="idieresis" unicode="&#xef;" horiz-adv-x="755" 
d="M93 1742q-71 0 -121 49.5t-50 116.5q0 72 50 120t121 48q74 0 122 -48t48 -120q0 -67 -48 -116.5t-122 -49.5zM663 1742q-71 0 -121.5 49.5t-50.5 116.5q0 72 50.5 120t121.5 48q73 0 121.5 -48t48.5 -120q0 -67 -48.5 -116.5t-121.5 -49.5zM532 1536v-1536h-308v1536
h308z" />
    <glyph glyph-name="idieresisacute" unicode="&#x1e2f;" horiz-adv-x="815" 
d="M240 2100l267 415h377l-381 -415h-263zM-76 1870q0 68 45.5 115t126.5 47q80 0 126.5 -47t46.5 -115t-46.5 -114.5t-126.5 -46.5q-81 0 -126.5 46.5t-45.5 114.5zM549 1868q0 68 46 115.5t126 47.5t126.5 -47.5t46.5 -115.5t-46.5 -114.5t-126.5 -46.5t-126 46.5
t-46 114.5zM565 1536v-1536h-308v1536h308z" />
    <glyph glyph-name="itilde" unicode="&#x129;" horiz-adv-x="851" 
d="M727 2108l202 -16q0 -154 -88 -253t-220 -99q-90 0 -144 31t-102.5 62t-122.5 31q-53 0 -88.5 -40t-35.5 -103l-206 10q0 151 88 254t220 103q74 0 131 -31t112.5 -61.5t125.5 -30.5q53 0 90.5 40t37.5 103zM581 1536v-1536h-308v1536h308z" />
    <glyph glyph-name="itildebelow" unicode="&#x1e2d;" horiz-adv-x="870" 
d="M434 1712q-86 0 -139.5 54t-53.5 128q0 70 53.5 126t139.5 56t139.5 -56t53.5 -126q0 -74 -53.5 -128t-139.5 -54zM589 1536v-1536h-308v1536h308zM736 -125l202 -16q0 -155 -88 -253.5t-220 -98.5q-90 0 -144 31t-102.5 62t-122.5 31q-53 0 -88.5 -40t-35.5 -103
l-206 10q0 151 88 254t220 103q75 0 131.5 -30.5t112 -61.5t125.5 -31q53 0 90.5 40t37.5 103z" />
    <glyph glyph-name="ibar" unicode="&#x268;" horiz-adv-x="991" 
d="M509 1712q-85 0 -139 54t-54 128q0 70 54 126t139 56t139 -56t54 -126q0 -74 -54 -128t-139 -54zM953 926v-209h-289v-717h-308v717h-319v209h319v610h308v-610h289z" />
    <glyph glyph-name="dotlessj" unicode="&#x237;" horiz-adv-x="758" 
d="M253 1536h308v-1628q0 -234 -129.5 -361t-363.5 -127h-86v265h61q116 0 163 61.5t47 164.5v1625z" />
    <glyph glyph-name="jdotlessbar" unicode="&#x25f;" horiz-adv-x="916" 
d="M924 209v-209h-306v-92q0 -234 -129.5 -361t-363.5 -127h-86v265h61q116 0 163 61.5t47 164.5v89h-302v209h302v1327h308v-1327h306z" />
    <glyph glyph-name="uni0249" unicode="&#x249;" horiz-adv-x="953" 
d="M483 1712q-85 0 -139 54t-54 128q0 70 54 126t139 56t139 -56t54 -126q0 -74 -54 -128t-139 -54zM940 926v-209h-302v-809q0 -234 -129.5 -361t-363.5 -127h-86v265h61q116 0 163 61.5t47 164.5v806h-306v209h306v610h308v-610h302z" />
    <glyph glyph-name="j" unicode="j" horiz-adv-x="758" 
d="M406 1712q-86 0 -139.5 54t-53.5 128q0 70 53.5 126t139.5 56t139.5 -56t53.5 -126q0 -74 -53.5 -128t-139.5 -54zM253 1536h308v-1628q0 -234 -129.5 -361t-363.5 -127h-86v265h61q116 0 163 61.5t47 164.5v1625z" />
    <glyph glyph-name="jcrosstail" unicode="&#x29d;" horiz-adv-x="1165" 
d="M724 1712q-86 0 -139.5 54t-53.5 128q0 70 53.5 126t139.5 56t139.5 -56t53.5 -126q0 -74 -53.5 -128t-139.5 -54zM1201 161v-244h-322v-56q0 -191 -107.5 -318t-339.5 -127q-210 0 -323 106.5t-113 266.5q0 173 121 272.5t307 99.5h147v1375h308v-1375h322zM427 -354
q79 0 114 47t35 115v109h-133q-70 0 -113.5 -38t-43.5 -94q0 -61 41 -100t100 -39z" />
    <glyph glyph-name="k" unicode="k" horiz-adv-x="1528" 
d="M1155 0l-495 686l-159 -175v-511h-308v2048h308v-1145h25l555 633h369l-586 -655l637 -881h-346z" />
    <glyph glyph-name="khook" unicode="&#x199;" horiz-adv-x="1528" 
d="M1149 0l-481 658l-167 -186v-472h-308v1637q0 159 63.5 255.5t165.5 140t216 43.5q46 0 90 -3t76 -10v-248q-17 3 -39.5 5.5t-46.5 2.5q-90 0 -153.5 -38.5t-63.5 -147.5v-734h20l555 633h374l-588 -656l639 -880h-352z" />
    <glyph glyph-name="kturn" unicode="&#x29e;" horiz-adv-x="1528" 
d="M57 0l586 655l-637 881h346l495 -686l159 175v511h308v-2048h-308v1145h-25l-555 -633h-369z" />
    <glyph glyph-name="l" unicode="l" horiz-adv-x="694" 
d="M501 2048v-2048h-308v2048h308z" />
    <glyph glyph-name="lslash" unicode="&#x142;" horiz-adv-x="694" 
d="M705 1300v-199l-204 -73v-1028h-308v918l-207 -74v199l207 74v931h308v-821z" />
    <glyph glyph-name="lbar" unicode="&#x19a;" horiz-adv-x="991" 
d="M953 1217v-209h-300v-1008h-308v1008h-308v209h308v831h308v-831h300z" />
    <glyph glyph-name="lmidtilde" unicode="&#x26b;" horiz-adv-x="1067" 
d="M821 1306l202 -16q0 -154 -88 -253t-220 -99q-18 0 -34 2v-940h-308v1061q-13 1 -27 1q-53 0 -88.5 -40t-35.5 -103l-206 10q0 151 88 254t220 103q25 0 49 -5v767h308v-885h12q53 0 90.5 40t37.5 103z" />
    <glyph glyph-name="lrthook" unicode="&#x26d;" horiz-adv-x="694" 
d="M501 2048v-2185q0 -109 63.5 -147.5t153.5 -38.5q24 0 46.5 2.5t39.5 5.5v-248q-32 -7 -75 -10t-91 -3q-114 0 -216 43.5t-165.5 140t-63.5 255.5v2185h308z" />
    <glyph glyph-name="lbelt" unicode="&#x26c;" horiz-adv-x="1386" 
d="M1304 798h-321v-798h-308v798h-152q-186 0 -304.5 102t-118.5 272q0 159 113 271.5t323 112.5q75 0 139 -16v508h308v-1004h321v-246zM541 1044h134v108q0 70 -35.5 115t-109.5 45q-58 0 -98.5 -41t-40.5 -96q0 -52 40.5 -91.5t109.5 -39.5z" />
    <glyph glyph-name="lcurl" unicode="&#x234;" horiz-adv-x="1045" 
d="M501 2048v-1899q100 31 190 31q172 0 282.5 -105.5t110.5 -267.5q0 -161 -112.5 -272t-305.5 -111q-152 0 -262 71.5t-164 187.5l-210 -204l-172 188l275 267q29 27 60 51v2063h308zM501 -175q0 -70 47 -117t119 -47q61 0 99 41t38 101q0 59 -40.5 96.5t-108.5 37.5
q-79 0 -154 -39v-73z" />
    <glyph glyph-name="m" unicode="m" horiz-adv-x="2416" 
d="M1362 960v-960h-305v990q0 158 -70.5 226t-186.5 68q-117 0 -208 -92t-91 -259v-933h-308v1536h304v-229h15q44 93 149 171t251 78q142 0 240.5 -73t148.5 -183h16q43 95 161 175.5t279 80.5q129 0 234.5 -58.5t168.5 -183.5t63 -324v-990h-308v995q0 110 -41 173
t-102.5 89.5t-122.5 26.5q-136 0 -211.5 -86.5t-75.5 -237.5z" />
    <glyph glyph-name="mhook" unicode="&#x271;" horiz-adv-x="2416" 
d="M1362 960v-960h-305v990q0 158 -70.5 226t-186.5 68q-117 0 -208 -92t-91 -259v-933h-308v1536h304v-229h15q44 93 149 171t251 78q142 0 240.5 -73t148.5 -183h16q43 95 161 175.5t279 80.5q129 0 234.5 -58.5t168.5 -183.5t63 -324v-1127q0 -159 -63.5 -255.5
t-165.5 -140t-216 -43.5q-49 0 -92.5 3t-74.5 10v248q18 -3 40 -5.5t46 -2.5q91 0 154.5 38.5t63.5 147.5v1132q0 110 -41 173t-102.5 89.5t-122.5 26.5q-136 0 -211.5 -86.5t-75.5 -237.5z" />
    <glyph glyph-name="mturn" unicode="&#x26f;" horiz-adv-x="2416" 
d="M1032 576v960h305v-990q0 -158 70.5 -226t186.5 -68q117 0 208 92t91 259v933h308v-1536h-304v229h-15q-44 -93 -149 -171t-251 -78q-142 0 -240.5 73t-148.5 183h-16q-43 -95 -161 -175.5t-279 -80.5q-129 0 -235 58.5t-168.5 183.5t-62.5 324v990h308v-995
q0 -110 41 -173t102.5 -89.5t122.5 -26.5q136 0 211.5 86.5t75.5 237.5z" />
    <glyph glyph-name="mturndescend" unicode="&#x270;" horiz-adv-x="2416" 
d="M1032 576v960h305v-990q0 -158 70.5 -226t186.5 -68q117 0 208.5 92t91.5 259v933h307v-1512h22v-600h-304v576h-21v229h-15q-43 -93 -149 -171t-251 -78q-143 0 -241.5 73t-148.5 183h-16q-43 -95 -161 -175.5t-279 -80.5q-128 0 -234 58.5t-168.5 183.5t-62.5 324v990
h308v-995q0 -110 41 -173t102 -89.5t122 -26.5q136 0 211.5 86.5t75.5 237.5z" />
    <glyph glyph-name="n" unicode="n" horiz-adv-x="1642" 
d="M501 879v-879h-308v1536h296v-229h16q58 107 169.5 178t272.5 71q139 0 253 -61t181.5 -190t67.5 -334v-971h-307v955q0 154 -84.5 241.5t-214.5 87.5q-87 0 -165.5 -46t-127.5 -136t-49 -223z" />
    <glyph glyph-name="ntilde" unicode="&#xf1;" horiz-adv-x="1642" 
d="M1079 2108l202 -16q0 -154 -88 -253t-220 -99q-90 0 -144 31t-102.5 62t-122.5 31q-53 0 -88.5 -40t-35.5 -103l-206 10q0 151 88 254t220 103q74 0 131 -31t112.5 -61.5t125.5 -30.5q53 0 90.5 40t37.5 103zM501 879v-879h-308v1536h296v-229h16q58 107 169.5 178
t272.5 71q139 0 253 -61t181.5 -190t67.5 -334v-971h-307v955q0 154 -84.5 241.5t-214.5 87.5q-87 0 -165.5 -46t-127.5 -136t-49 -223z" />
    <glyph glyph-name="nrthook" unicode="&#x273;" horiz-adv-x="1681" 
d="M501 879v-879h-308v1536h296v-229h16q58 107 169.5 178t272.5 71q139 0 253 -61t181.5 -190t67.5 -334v-1108q0 -109 64 -147.5t154 -38.5q24 0 46 2.5t40 5.5v-248q-31 -7 -74.5 -10t-91.5 -3q-115 0 -216.5 43.5t-165 140t-63.5 255.5v1092q0 154 -84.5 241.5
t-214.5 87.5q-87 0 -165.5 -46t-127.5 -136t-49 -223z" />
    <glyph glyph-name="eng" unicode="&#x14b;" horiz-adv-x="1642" 
d="M501 879v-879h-308v1536h296v-229h16q58 107 169.5 178t272.5 71q139 0 253 -61t181.5 -190t67.5 -334v-1089q0 -225 -128.5 -345.5t-324.5 -120.5q-43 0 -86 2.5t-80 12.5l12 255q20 -4 43 -7.5t52 -3.5q90 0 147.5 45.5t57.5 161.5v1073q0 154 -84.5 241.5t-214.5 87.5
q-87 0 -165.5 -46t-127.5 -136t-49 -223z" />
    <glyph glyph-name="ncurl" unicode="&#x235;" horiz-adv-x="2023" 
d="M501 879v-879h-308v1536h296v-229h16q58 107 169.5 178t272.5 71q139 0 253 -61t181.5 -190t67.5 -334v-664q101 31 191 31q171 0 281.5 -105.5t110.5 -267.5q0 -161 -112.5 -272t-305.5 -111q-152 0 -261.5 71.5t-163.5 187.5l-210 -205l-172 188l275 268q29 27 60 51
v812q0 154 -84.5 241.5t-214.5 87.5q-87 0 -165.5 -46t-127.5 -136t-49 -223zM1449 -17q0 -70 47.5 -117t119.5 -47q60 0 98.5 41t38.5 101q0 59 -40.5 96.5t-108.5 37.5q-80 0 -155 -39v-73z" />
    <glyph glyph-name="nlfthook" unicode="&#x272;" horiz-adv-x="1681" 
d="M539 879v-1016q0 -159 -63.5 -255.5t-165.5 -140t-216 -43.5q-48 0 -91 3t-75 10v248q17 -3 39.5 -5.5t46.5 -2.5q90 0 153.5 38.5t63.5 147.5v1673h297v-229h16q58 107 169 178t272 71q139 0 253.5 -61t182 -190t67.5 -334v-971h-308v955q0 154 -84.5 241.5t-214.5 87.5
q-87 0 -165 -46t-127.5 -136t-49.5 -223z" />
    <glyph glyph-name="o" unicode="o" horiz-adv-x="1667" 
d="M834 -31q-214 0 -372.5 100t-245.5 278.5t-87 415.5t87 415.5t245.5 278t372.5 99.5t372 -99.5t245.5 -278t87.5 -415.5t-87.5 -415.5t-245.5 -278.5t-372 -100zM834 231q140 0 230 72t132.5 193t42.5 267q0 145 -42.5 266t-132.5 193.5t-230 72.5q-141 0 -230.5 -72.5
t-132 -193.5t-42.5 -266q0 -146 42.5 -267t132 -193t230.5 -72z" />
    <glyph glyph-name="odieresis" unicode="&#xf6;" horiz-adv-x="1667" 
d="M549 1742q-71 0 -121 49.5t-50 116.5q0 72 50 120t121 48q74 0 122 -48t48 -120q0 -67 -48 -116.5t-122 -49.5zM1119 1742q-71 0 -121.5 49.5t-50.5 116.5q0 72 50.5 120t121.5 48q73 0 121.5 -48t48.5 -120q0 -67 -48.5 -116.5t-121.5 -49.5zM834 -31q-214 0 -372.5 100
t-245.5 278.5t-87 415.5t87 415.5t245.5 278t372.5 99.5t372 -99.5t245.5 -278t87.5 -415.5t-87.5 -415.5t-245.5 -278.5t-372 -100zM834 231q140 0 230 72t132.5 193t42.5 267q0 145 -42.5 266t-132.5 193.5t-230 72.5q-141 0 -230.5 -72.5t-132 -193.5t-42.5 -266
q0 -146 42.5 -267t132 -193t230.5 -72z" />
    <glyph glyph-name="otilde" unicode="&#xf5;" horiz-adv-x="1667" 
d="M1135 2108l202 -16q0 -154 -88 -253t-220 -99q-90 0 -144 31t-102.5 62t-122.5 31q-53 0 -88.5 -40t-35.5 -103l-206 10q0 151 88 254t220 103q74 0 131 -31t112.5 -61.5t125.5 -30.5q53 0 90.5 40t37.5 103zM834 -31q-214 0 -372.5 100t-245.5 278.5t-87 415.5t87 415.5
t245.5 278t372.5 99.5t372 -99.5t245.5 -278t87.5 -415.5t-87.5 -415.5t-245.5 -278.5t-372 -100zM834 231q140 0 230 72t132.5 193t42.5 267q0 145 -42.5 266t-132.5 193.5t-230 72.5q-141 0 -230.5 -72.5t-132 -193.5t-42.5 -266q0 -146 42.5 -267t132 -193t230.5 -72z
" />
    <glyph glyph-name="oslash" unicode="&#xf8;" horiz-adv-x="1667" 
d="M380 -89l-167 114l109 162q-92 105 -142.5 251.5t-50.5 324.5q0 237 87 415.5t245.5 278t372.5 99.5q198 0 353 -88l98 145l167 -114l-108 -159q94 -105 144.5 -251.5t50.5 -325.5q0 -237 -87.5 -415.5t-245.5 -278.5t-372 -100q-199 0 -354 90zM429 763q0 -90 16 -172
t49 -149l541 800q-86 53 -201 53q-141 0 -230.5 -72.5t-132 -193.5t-42.5 -266zM834 231q140 0 230 72t132.5 193t42.5 267q0 90 -16.5 172.5t-49.5 149.5l-541 -801q86 -53 202 -53z" />
    <glyph glyph-name="ohorn" unicode="&#x1a1;" horiz-adv-x="1713" 
d="M834 -31q-214 0 -372.5 100t-245.5 278.5t-87 415.5t87 415.5t245.5 278t372.5 99.5q165 0 298 -60.5t226 -171.5q71 36 92.5 118.5t21.5 199.5h230q0 -176 -57.5 -298.5t-187.5 -175.5q82 -178 82 -405q0 -237 -87.5 -415.5t-245.5 -278.5t-372 -100zM834 231
q140 0 230 72t132.5 193t42.5 267q0 145 -42.5 266t-132.5 193.5t-230 72.5q-141 0 -230.5 -72.5t-132 -193.5t-42.5 -266q0 -146 42.5 -267t132 -193t230.5 -72z" />
    <glyph glyph-name="fitacyrillic" unicode="&#x473;" horiz-adv-x="1667" 
d="M834 -31q-214 0 -372.5 100t-245.5 278.5t-87 415.5t87 415.5t245.5 278t372.5 99.5t372 -99.5t245.5 -278t87.5 -415.5t-87.5 -415.5t-245.5 -278.5t-372 -100zM834 1295q-182 0 -278.5 -118.5t-119.5 -294.5h796q-23 176 -120 294.5t-278 118.5zM834 231
q182 0 279 119.5t119 297.5h-796q22 -178 118.5 -297.5t279.5 -119.5z" />
    <glyph glyph-name="oe" unicode="&#x153;" horiz-adv-x="2743" 
d="M834 -31q-214 0 -372.5 100t-245.5 278.5t-87 415.5t87 415.5t245.5 278t372.5 99.5q180 0 322.5 -72.5t234.5 -202.5q92 129 233 202t323 73q177 0 330.5 -77t248 -243t94.5 -434v-129h-1079q18 -213 127 -327.5t298 -114.5q140 0 226 61.5t124 165.5l284 -78
q-32 -110 -114 -204t-212 -150.5t-307 -56.5q-192 0 -339 70.5t-241 199.5q-92 -128 -233 -199t-320 -71zM834 231q140 0 230 72t132.5 193t42.5 267q0 145 -42.5 266t-132.5 193.5t-230 72.5q-141 0 -230.5 -72.5t-132 -193.5t-42.5 -266q0 -146 42.5 -267t132 -193
t230.5 -72zM1946 1295q-157 0 -262 -102t-136 -287h772q0 167 -100 278t-274 111z" />
    <glyph glyph-name="p" unicode="p" horiz-adv-x="1696" 
d="M193 -576v2112h301v-218h25q26 46 73.5 101.5t129.5 96t209 40.5q181 0 325 -93.5t227.5 -270t83.5 -427.5q0 -249 -82 -427t-225.5 -272.5t-325.5 -94.5q-126 0 -208.5 40t-131.5 96t-75 103h-18v-786h-308zM1268 768q0 230 -99.5 378.5t-299.5 148.5
q-198 0 -293 -147.5t-95 -379.5q0 -233 95.5 -385t292.5 -152q198 0 298.5 152.5t100.5 384.5z" />
    <glyph glyph-name="uni048F" unicode="&#x48f;" horiz-adv-x="1751" 
d="M193 -576v2112h301v-218h25q26 46 73.5 101.5t129.5 96t209 40.5q181 0 325 -93.5t227.5 -270t83.5 -427.5q0 -189 -48.5 -337t-133.5 -250l143 -166l-154 -139l-148 172q-131 -74 -292 -74q-126 0 -208.5 40t-131.5 96t-75 103h-18v-786h-308zM1035 581l149 -172
q84 141 84 359q0 230 -99.5 378.5t-299.5 148.5q-198 0 -293 -147.5t-95 -379.5q0 -233 95.5 -385t292.5 -152q91 0 165 36l-151 175z" />
    <glyph glyph-name="phook" unicode="&#x1a5;" horiz-adv-x="1696" 
d="M193 -576v2112v0q2 136 62.5 220t158.5 122.5t211 38.5q51 0 94 -4t72 -13v-239q-16 4 -42.5 8.5t-56.5 4.5q-78 0 -131.5 -32t-66.5 -113v-211h25q26 46 73.5 101.5t129.5 96t209 40.5q181 0 325 -93.5t227.5 -270t83.5 -427.5q0 -249 -82 -427t-225.5 -272.5
t-325.5 -94.5q-126 0 -208.5 40t-131.5 96t-75 103h-18v-786h-308zM1268 768q0 230 -99.5 378.5t-299.5 148.5q-198 0 -293 -147.5t-95 -379.5q0 -233 95.5 -385t292.5 -152q198 0 298.5 152.5t100.5 384.5z" />
    <glyph glyph-name="q" unicode="q" horiz-adv-x="1696" 
d="M1503 1536v-2112h-308v786h-16q-26 -47 -75.5 -103t-132.5 -96t-210 -40q-182 0 -325 94.5t-225 272.5t-82 427q0 251 83.5 427.5t227 270t324.5 93.5q128 0 210 -40.5t130.5 -96t74.5 -101.5h23v218h301zM427 768q0 -232 101 -384.5t299 -152.5q197 0 292 152t95 385
q0 232 -95 379.5t-292 147.5q-200 0 -300 -148.5t-100 -378.5z" />
    <glyph glyph-name="qhook" unicode="&#x2a0;" horiz-adv-x="1775" 
d="M1720 1646q-90 0 -153.5 -39t-63.5 -147v-2036h-308v786h-16q-26 -47 -75.5 -103t-132.5 -96t-210 -40q-182 0 -325 94.5t-225 272.5t-82 427q0 251 83.5 427.5t227 270t324.5 93.5q128 0 210 -40.5t130.5 -96t74.5 -101.5h21v169q0 25 2 48v1v0q11 130 75 209.5
t160 116.5t203 37q45 0 89.5 -3t76.5 -11v-247q-17 3 -39.5 5.5t-46.5 2.5zM427 768q0 -232 101 -384.5t299 -152.5q197 0 292 152t95 385q0 232 -95 379.5t-292 147.5q-200 0 -300 -148.5t-100 -378.5z" />
    <glyph glyph-name="qrthook" unicode="&#x24b;" horiz-adv-x="1734" 
d="M1503 1536v-1673q0 -109 63.5 -147.5t153.5 -38.5q24 0 46.5 2.5t39.5 5.5v-248q-32 -7 -75 -10t-91 -3q-114 0 -216 43.5t-165.5 140t-63.5 255.5v347h-16q-26 -47 -75.5 -103t-132.5 -96t-210 -40q-182 0 -325 94.5t-225 272.5t-82 427q0 251 83.5 427.5t227 270
t324.5 93.5q128 0 210 -40.5t130.5 -96t74.5 -101.5h23v218h301zM427 768q0 -232 101 -384.5t299 -152.5q197 0 292 152t95 385q0 232 -95 379.5t-292 147.5q-200 0 -300 -148.5t-100 -378.5z" />
    <glyph glyph-name="Q_rthook" unicode="&#x24a;" horiz-adv-x="2169" 
d="M1938 2049v-2186q0 -109 63.5 -147.5t153.5 -38.5q24 0 46.5 2.5t39.5 5.5v-248q-31 -7 -74.5 -10t-91.5 -3q-115 0 -216.5 43.5t-165 140t-63.5 255.5v398h-16q-79 -142 -228 -217t-338 -75q-270 0 -469 135t-308 373.5t-109 551.5q0 304 110 540.5t308.5 371.5
t465.5 135q190 0 341 -74.5t226 -210.5h22v258h303zM472 1027q0 -231 69.5 -403t199.5 -266.5t312 -94.5q209 0 352 118t186 295q20 91 30 196t10 157q0 46 -8 142t-32 190q-31 106 -99 205t-177.5 163t-263.5 64q-185 0 -314.5 -100.5t-197 -274t-67.5 -391.5z" />
    <glyph glyph-name="r" unicode="r" horiz-adv-x="1123" 
d="M1096 1505l-99 -275q-17 9 -52.5 20.5t-84.5 11.5q-110 0 -190 -58.5t-124 -149t-45 -185.5v-869h-308v1536h304v-242h18q33 114 141 189.5t232 75.5q60 0 116 -16.5t92 -37.5z" />
    <glyph glyph-name="rrthook" unicode="&#x27d;" horiz-adv-x="1160" 
d="M1115 1505l-99 -275q-17 9 -52.5 20.5t-84.5 11.5q-110 0 -190 -58.5t-123.5 -149t-45.5 -185.5v-1006q0 -109 63.5 -147.5t153.5 -38.5q24 0 46.5 2.5t40.5 5.5v-248q-32 -7 -75 -10t-92 -3q-115 0 -216.5 43.5t-165 140t-63.5 255.5v1673h304v-242h19q33 114 140 189.5
t232 75.5q60 0 116 -16.5t92 -37.5z" />
    <glyph glyph-name="uni024D" unicode="&#x24d;" horiz-adv-x="1198" 
d="M890 833v-209h-296v-624h-308v624h-312v209h312v703h304v-242h18q33 114 140.5 189.5t232.5 75.5q60 0 116 -16.5t92 -37.5l-99 -275q-17 9 -52.5 20.5t-84.5 11.5q-110 0 -190 -58.5t-124 -149t-45 -185.5v-36h296z" />
    <glyph glyph-name="rturn" unicode="&#x279;" horiz-adv-x="1076" 
d="M-41 31l99 275q17 -9 52.5 -20.5t84.5 -11.5q110 0 190 58.5t124 149t45 185.5v869h308v-1536h-304v242h-18q-33 -114 -140.5 -189.5t-232.5 -75.5q-60 0 -116 16.5t-92 37.5z" />
    <glyph glyph-name="rturnrthook" unicode="&#x27b;" horiz-adv-x="1179" 
d="M-21 -17l99 275q16 -9 52 -20.5t85 -11.5q110 0 190 58.5t123.5 149t45.5 185.5v869h308v-1165h17v-488q0 -117 68 -161.5t158 -44.5q20 0 44.5 1.5t43.5 6.5v-220q-34 -9 -77.5 -13t-90.5 -4q-114 0 -216.5 42t-167.5 137.5t-65 255.5v117h-18v242h-19
q-33 -114 -141 -189.5t-232 -75.5q-60 0 -115.5 16.5t-91.5 37.5z" />
    <glyph glyph-name="rfishhookrev" unicode="&#x27f;" horiz-adv-x="912" 
d="M723 -575h-303v1672q0 115 -75.5 156.5t-165.5 41.5q-21 0 -43.5 -2.5t-43.5 -5.5v236q75 20 167 20q115 0 221 -42t174.5 -137.5t68.5 -255.5v-1683z" />
    <glyph glyph-name="rfishhook" unicode="&#x27e;" horiz-adv-x="923" 
d="M492 0h-303v1108q0 160 68.5 255.5t174.5 137.5t221 42q93 0 168 -20v-236q-22 3 -44 5.5t-43 2.5q-91 0 -166.5 -41.5t-75.5 -156.5v-1097z" />
    <glyph glyph-name="rdescend" unicode="&#x27c;" horiz-adv-x="1076" 
d="M193 -576v2112h304v-242h18q33 114 141 189.5t232 75.5q60 0 116 -16.5t92 -37.5l-99 -275q-17 9 -52.5 20.5t-84.5 11.5q-110 0 -190 -58.5t-124 -149t-45 -185.5v-1445h-308z" />
    <glyph glyph-name="s" unicode="s" horiz-adv-x="1489" 
d="M1330 1157l-279 -48q-12 41 -44.5 89t-93.5 82t-158 34q-121 0 -205 -56.5t-84 -143.5q0 -73 60 -125t170 -78l255 -59q195 -45 299.5 -148.5t104.5 -260.5q0 -137 -77.5 -244t-218.5 -168.5t-332 -61.5q-281 0 -431.5 122.5t-201.5 301.5l289 62q35 -105 120.5 -173.5
t230.5 -68.5q140 0 223.5 61.5t83.5 144.5q0 77 -55.5 118t-149.5 64l-262 63q-199 49 -307 159.5t-108 271.5q0 139 77.5 242.5t213.5 161t313 57.5q240 0 378.5 -106t188.5 -293z" />
    <glyph glyph-name="srthook" unicode="&#x282;" horiz-adv-x="1495" 
d="M104 412h89l200 43q35 -105 121 -173.5t230 -68.5q140 0 223.5 61.5t83.5 144.5q0 77 -55 118t-150 64l-262 63q-199 49 -306.5 159.5t-107.5 271.5q0 139 77 242.5t213 161t313 57.5q240 0 378.5 -106t188.5 -293l-279 -48q-12 41 -44 89t-92.5 82t-158.5 34
q-122 0 -206 -56.5t-84 -143.5q0 -73 60.5 -125t170.5 -78l254 -59q195 -45 299.5 -148.5t104.5 -260.5q0 -137 -77.5 -244t-218.5 -168.5t-331 -61.5q-105 0 -191 18.5t-155 51.5v-96q0 -118 56 -155t147 -37q19 0 43 1.5t44 6.5v-233q-34 -10 -74 -14t-77 -4
q-187 0 -307 112.5t-120 322.5v469z" />
    <glyph glyph-name="uni023F" unicode="&#x23f;" horiz-adv-x="1446" 
d="M1330 1157l-279 -48q-12 41 -44.5 89t-93.5 82t-158 34q-121 0 -205 -56.5t-84 -143.5q0 -73 60 -125t170 -78l255 -59q195 -45 299.5 -148.5t104.5 -260.5q0 -137 -77.5 -244t-218.5 -168.5t-332 -61.5q-70 0 -134 9q69 -124 113 -190t79 -90t76 -24q59 0 111 30.5
t90 62.5l110 -190q-56 -52 -140.5 -102.5t-183.5 -50.5q-152 0 -252 96.5t-185 247.5l-271 476l13 9q-37 64 -59 140l289 62q35 -105 120.5 -173.5t230.5 -68.5q140 0 223.5 61.5t83.5 144.5q0 77 -55.5 118t-149.5 64l-262 63q-199 49 -307 159.5t-108 271.5
q0 139 77.5 242.5t213.5 161t313 57.5q240 0 378.5 -106t188.5 -293z" />
    <glyph glyph-name="germandbls" unicode="&#xdf;" horiz-adv-x="1697" 
d="M496 1497v-1497h-303v1497q0 309 152.5 466t405.5 157q142 0 269 -51t207 -159t80 -279q0 -97 -24.5 -166t-56 -123t-56 -105t-24.5 -114q0 -74 45 -126t111 -98.5t132 -102t111 -135t45 -199.5q0 -226 -148.5 -358t-419.5 -132q-130 0 -240.5 30t-169.5 69l99 242
q43 -23 120 -53.5t172 -30.5q149 0 219 68t70 158q0 85 -46.5 145t-114.5 109t-136 102.5t-114.5 125.5t-46.5 178q0 83 27 146t63 118t63 113.5t27 131.5q0 117 -80 172.5t-183 55.5q-125 0 -190 -84.5t-65 -270.5z" />
    <glyph glyph-name="t" unicode="t" horiz-adv-x="1015" 
d="M886 1536v-252h-300v-830q0 -130 55 -165t126 -35q33 0 59 4t42 8l55 -253q-23 -9 -79 -21t-141 -12q-107 0 -204.5 47t-159 139t-61.5 227v891h-213v252h213v328h308v-328h300z" />
    <glyph glyph-name="tpalatalhook" unicode="&#x1ab;" horiz-adv-x="1021" 
d="M886 1536v-252h-300v-830q0 -130 55 -165t126 -35q24 0 47 3l109 22v-416q0 -211 -118.5 -324.5t-303.5 -113.5q-40 0 -78.5 2.5t-73.5 12.5v231q20 -3 42 -5.5t46 -2.5q90 0 159 40.5t69 159.5v118q-101 8 -189 57.5t-143 138.5t-55 216v891h-213v252h213v328h308v-328
h300z" />
    <glyph glyph-name="trthook" unicode="&#x288;" horiz-adv-x="1086" 
d="M921 1536v-252h-302v-1449q0 -117 77 -157.5t167 -40.5q19 0 42.5 1.5t43.5 6.5v-228q-34 -9 -76.5 -13t-89.5 -4q-116 0 -222.5 42t-174.5 137.5t-68 255.5v1449h-222v252h222v313h301v-313h302z" />
    <glyph glyph-name="tcurl" unicode="&#x236;" horiz-adv-x="1222" 
d="M921 1536v-252h-300v-591q100 31 190 31q172 0 285 -105.5t113 -267.5q0 -161 -115 -272t-308 -111q-152 0 -262 71.5t-164 187.5l-209 -204l-173 188l275 267q29 27 60 51v755h-229v252h229v328h308v-328h300zM621 369q0 -70 47 -117t119 -47q61 0 101.5 41t40.5 101
q0 59 -43 96.5t-111 37.5q-79 0 -154 -39v-73z" />
    <glyph glyph-name="tccurl" unicode="&#x2a8;" horiz-adv-x="2239" 
d="M864 1536v-252h-262v-849q0 -110 46 -152t107 -42q45 0 94 22t101 58q-89 179 -89 412v49q0 203 75 379.5t224.5 285.5t374.5 109q179 0 313.5 -72t211 -198t81.5 -288h-299q-6 113 -84 203.5t-226 90.5q-134 0 -215.5 -77t-118 -194t-36.5 -239v-49q0 -56 7 -112
t23 -108q126 103 271 189t311 86q176 0 271.5 -100.5t95.5 -242.5q0 -131 -78 -238.5t-214.5 -171t-312.5 -63.5q-136 0 -243.5 39t-188.5 108q-95 -63 -203 -105t-233 -42q-158 0 -263 112t-105 351v849h-232v252h232v327h302v-327h262zM1549 234q75 0 145.5 24t116.5 67
t46 100q0 59 -34.5 85.5t-83.5 26.5q-98 0 -197 -72.5t-209 -166.5q42 -30 95.5 -47t120.5 -17z" />
    <glyph glyph-name="tturn" unicode="&#x287;" horiz-adv-x="1023" 
d="M116 108v252h300v830q0 130 -55 165t-126 35q-33 0 -59 -4t-42 -8l-55 253q23 9 79 21t141 12q107 0 204.5 -47t159 -139t61.5 -227v-891h213v-252h-213v-328h-308v328h-300z" />
    <glyph glyph-name="u" unicode="u" horiz-adv-x="1642" 
d="M1142 644v892h307v-1536h-296v199h-16q-60 -85 -170.5 -152t-271.5 -67q-117 0 -233 59.5t-192.5 188t-76.5 337.5v971h308v-966q0 -154 84.5 -236t214.5 -82q87 0 165.5 43t127.5 129.5t49 219.5z" />
    <glyph glyph-name="udieresis" unicode="&#xfc;" horiz-adv-x="1642" 
d="M536 1742q-70 0 -120.5 49.5t-50.5 116.5q0 72 50.5 120t120.5 48q74 0 122 -48t48 -120q0 -67 -48 -116.5t-122 -49.5zM1106 1742q-71 0 -121.5 49.5t-50.5 116.5q0 72 50.5 120t121.5 48q74 0 122 -48t48 -120q0 -67 -48 -116.5t-122 -49.5zM1142 644v892h307v-1536
h-296v199h-16q-60 -85 -170.5 -152t-271.5 -67q-117 0 -233 59.5t-192.5 188t-76.5 337.5v971h308v-966q0 -154 84.5 -236t214.5 -82q87 0 165.5 43t127.5 129.5t49 219.5z" />
    <glyph glyph-name="utilde" unicode="&#x169;" horiz-adv-x="1642" 
d="M1086 2108l202 -16q0 -154 -88 -253t-220 -99q-90 0 -144 31t-102.5 62t-122.5 31q-53 0 -88.5 -40t-35.5 -103l-206 10q0 151 88 254t220 103q75 0 131.5 -31t112 -61.5t125.5 -30.5q53 0 90.5 40t37.5 103zM1142 644v892h307v-1536h-296v199h-16q-60 -85 -170.5 -152
t-271.5 -67q-117 0 -233 59.5t-192.5 188t-76.5 337.5v971h308v-966q0 -154 84.5 -236t214.5 -82q87 0 165.5 43t127.5 129.5t49 219.5z" />
    <glyph glyph-name="uhorn" unicode="&#x1b0;" horiz-adv-x="1794" 
d="M1142 644v892h307v-228q111 21 134 95t23 207h221q0 -214 -80.5 -335t-297.5 -144v-1131h-296v199h-16q-60 -85 -170.5 -152t-271.5 -67q-117 0 -233 59.5t-192.5 188t-76.5 337.5v971h308v-966q0 -154 84.5 -236t214.5 -82q87 0 165.5 43t127.5 129.5t49 219.5z" />
    <glyph glyph-name="mu" unicode="&#xb5;" horiz-adv-x="1645" 
d="M1158 692v844h294v-1536h-266l-13 161q-132 -189 -353 -189q-95 0 -178 42t-146 129v-715h-303v2108h303v-847q0 -229 97 -333t230 -104q143 0 239 111t96 329z" />
    <glyph glyph-name="ubar" unicode="&#x289;" horiz-adv-x="1838" 
d="M1807 970v-220h-253v-750h-297v199h-16q-59 -85 -170 -152t-271 -67q-118 0 -234 59.5t-192.5 188t-76.5 337.5v185h-266v220h266v566h308v-566h641v566h308v-566h253zM1246 644v106h-641v-180q0 -154 84.5 -236t214.5 -82q87 0 165.5 43t127.5 129.5t49 219.5z" />
    <glyph glyph-name="v" unicode="v" horiz-adv-x="1600" 
d="M1517 1536l-567 -1536h-301l-566 1536h325l385 -1138h16l383 1138h325z" />
    <glyph glyph-name="vturn" unicode="&#x28c;" horiz-adv-x="1568" 
d="M30 0l567 1536h301l566 -1536h-325l-385 1138h-16l-383 -1138h-325z" />
    <glyph glyph-name="w" unicode="w" horiz-adv-x="2261" 
d="M2165 1536l-438 -1536h-277l-308 1075h-24l-307 -1075h-276l-439 1536h309l275 -1094h17l299 1094h271l296 -1089h17l276 1089h309z" />
    <glyph glyph-name="wdieresis" unicode="&#x1e85;" horiz-adv-x="2261" 
d="M847 1742q-71 0 -121 49.5t-50 116.5q0 72 50 120t121 48q74 0 122 -48t48 -120q0 -67 -48 -116.5t-122 -49.5zM1417 1742q-71 0 -121.5 49.5t-50.5 116.5q0 72 50.5 120t121.5 48q73 0 121.5 -48t48.5 -120q0 -67 -48.5 -116.5t-121.5 -49.5zM2165 1536l-438 -1536h-277
l-308 1075h-24l-307 -1075h-276l-439 1536h309l275 -1094h17l299 1094h271l296 -1089h17l276 1089h309z" />
    <glyph glyph-name="wturn" unicode="&#x28d;" horiz-adv-x="2261" 
d="M75 0l438 1536h277l308 -1075h24l307 1075h276l439 -1536h-309l-275 1094h-17l-299 -1094h-271l-296 1089h-17l-276 -1089h-309z" />
    <glyph glyph-name="x" unicode="x" horiz-adv-x="1535" 
d="M447 1536l321 -568l323 568h333l-466 -768l471 -768h-333l-328 545l-327 -545h-335l466 768l-460 768h335z" />
    <glyph glyph-name="y" unicode="y" horiz-adv-x="1600" 
d="M606 -111l42 112l-565 1535h325l383 -1124h18l383 1124h325l-655 -1775q-58 -157 -175 -257.5t-305 -100.5q-62 0 -111.5 10t-79.5 23l72 254q134 -34 209 5t134 194z" />
    <glyph glyph-name="ydieresis" unicode="&#xff;" horiz-adv-x="1535" 
d="M483 1742q-71 0 -121 49.5t-50 116.5q0 72 50 120t121 48q74 0 122 -48t48 -120q0 -67 -48 -116.5t-122 -49.5zM1053 1742q-71 0 -121.5 49.5t-50.5 116.5q0 72 50.5 120t121.5 48q73 0 121.5 -48t48.5 -120q0 -67 -48.5 -116.5t-121.5 -49.5zM606 -111l42 112l-565 1535
h325l383 -1124h18l383 1124h325l-655 -1775q-58 -157 -175 -257.5t-305 -100.5q-62 0 -111.5 10t-79.5 23l72 254q134 -34 209 5t134 194z" />
    <glyph glyph-name="yhook" unicode="&#x1b4;" horiz-adv-x="1696" 
d="M588 -100l39 115l-544 1521h327l362 -1070l307 921l26 79q35 100 88.5 192t133.5 153.5t194 71.5q87 12 161 -7t134 -52l-51 -226q-38 16 -74 27.5t-75 7.5q-81 -6 -129.5 -75t-95.5 -207l-20 -57l-515 -1519q-54 -157 -183.5 -266t-323.5 -109q-41 0 -95.5 6t-86.5 17
v262q13 -3 36 -5t62 -2q111 0 194.5 42t128.5 180z" />
    <glyph glyph-name="uni024F" unicode="&#x24f;" horiz-adv-x="1617" 
d="M663 -111l43 111l-323 877h-277v196h205l-170 463h325l158 -463h467l158 463h325l-171 -463h115v-196h-187l-411 -1116q-58 -157 -175.5 -257.5t-305.5 -100.5q-61 0 -110.5 10t-80.5 23l73 254q133 -34 208 5t134 194zM849 412h17l159 465h-335z" />
    <glyph glyph-name="yturn" unicode="&#x28e;" horiz-adv-x="1568" 
d="M1139 0l-383 1124h-18l-383 -1124h-325l655 1775q59 157 176 257.5t304 100.5q62 0 111.5 -10t79.5 -23l-72 -254q-134 34 -209 -5t-134 -194l-42 -112l565 -1535h-325z" />
    <glyph glyph-name="z" unicode="z" horiz-adv-x="1530" 
d="M1376 265v-265h-1210v219l800 1052h-802v265h1193v-211l-799 -1060h818z" />
    <glyph glyph-name="zbar" unicode="&#x1b6;" horiz-adv-x="1530" 
d="M1376 265v-265h-1210v219l341 449h-199v209h358l300 394h-802v265h1193v-211l-338 -448h205v-209h-362l-304 -403h818z" />
    <glyph glyph-name="zhook" unicode="&#x225;" horiz-adv-x="1528" 
d="M1357 1325l-800 -1060h403q223 0 343 -126.5t120 -325.5v-153h-264v86q0 63 -15.5 121t-58.5 95.5t-125 37.5h-794v219l802 1052h-804v265h1193v-211z" />
    <glyph glyph-name="uni0240" unicode="&#x240;" horiz-adv-x="1525" 
d="M557 265h47q148 0 249 -57.5t171.5 -142.5t125 -170.5t107.5 -143t121 -57.5q59 0 110.5 28t86.5 59l110 -204q-54 -53 -138 -103t-194 -50q-116 0 -193.5 58t-137.5 144t-122 172t-145 144t-208 58h-381v219l802 1052h-804v265h1193v-211z" />
    <glyph glyph-name="zrthook" unicode="&#x290;" horiz-adv-x="1530" 
d="M1376 265v-430q0 -117 69 -154.5t160 -37.5q19 0 43 1.5t44 6.5v-234q-34 -10 -73 -13.5t-77 -3.5q-186 0 -305 112t-119 323v165h-952v219l800 1052h-802v265h1193v-211l-799 -1060h818z" />
    <glyph glyph-name="zcurl" unicode="&#x291;" horiz-adv-x="1803" 
d="M1747 470q0 -74 -31.5 -156t-99.5 -153.5t-178.5 -116t-268.5 -44.5h-304l-212 -297l-215 139l111 158h-383v219l802 1052h-804v265h1193v-211l-800 -1060h179q130 182 234.5 304t203 183.5t211.5 61.5q99 0 181 -44t131.5 -121.5t49.5 -178.5zM1360 547q-77 0 -144 -71
t-165 -211h130q152 0 223 58t71 127q0 49 -35.5 73t-79.5 24z" />
    <glyph glyph-name="Thorn" unicode="&#xde;" horiz-adv-x="1791" 
d="M204 2048h317v-406h354q227 0 384 -80t238 -216.5t81 -305.5t-81 -305.5t-238 -216.5t-384 -80h-354v-438h-317v2048zM875 1378h-354v-677h354q199 0 299.5 91t100.5 244q0 154 -100.5 248t-299.5 94z" />
    <glyph glyph-name="Gamma" unicode="&#x393;" horiz-adv-x="1791" 
d="M1530 2048v-272h-952v-1776h-318v2048h1270z" />
    <glyph glyph-name="Delta" unicode="&#x2206;" horiz-adv-x="2129" 
d="M96 0l824 2048h326l791 -2048h-1941zM546 271h1046l-513 1389z" />
    <glyph glyph-name="Delta" unicode="&#x394;" horiz-adv-x="2129" 
d="M96 0l824 2048h326l791 -2048h-1941zM546 271h1046l-513 1389z" />
    <glyph glyph-name="Theta" unicode="&#x398;" horiz-adv-x="2111" 
d="M1958 1023q0 -328 -117 -563.5t-321 -361.5t-463 -126q-261 0 -465 126t-321.5 361.5t-117.5 563.5q0 329 117.5 564.5t321.5 362t465 126.5q259 0 463 -126.5t321 -362t117 -564.5zM1645 1023q0 255 -77.5 424t-210.5 253.5t-300 84.5t-301 -84.5t-212 -253.5t-78 -424
t78 -423.5t212 -252.5t301 -84t300 84t210.5 252.5t77.5 423.5zM1369 1158v-264h-623v264h623z" />
    <glyph glyph-name="Xi" unicode="&#x39e;" horiz-adv-x="1617" 
d="M165 1764v270h1268v-270h-1268zM286 897v264h1043v-264h-1043zM148 0v269h1321v-269h-1321z" />
    <glyph glyph-name="Pi" unicode="&#x3a0;" horiz-adv-x="2047" 
d="M1809 2048v-2048h-315v1778h-940v-1778h-316v2048h1571z" />
    <glyph glyph-name="Sigma" unicode="&#x3a3;" horiz-adv-x="1791" 
d="M1182 1020v-26l-544 -715h964v-279h-1413v209l632 796l-632 801v212h1363v-281h-913z" />
    <glyph glyph-name="Phi" unicode="&#x3a6;" horiz-adv-x="2129" 
d="M1237 2004v-246q228 -6 402.5 -102.5t273 -266.5t98.5 -396q0 -224 -97.5 -392t-271.5 -263.5t-405 -102.5v-235h-339v235q-233 6 -408.5 101t-273.5 262.5t-98 390.5q0 227 99.5 398t275.5 268.5t405 102.5v246h339zM456 989q0 -215 112 -338.5t330 -131.5v955
q-215 -7 -328.5 -135t-113.5 -350zM1675 993q0 222 -112.5 348t-325.5 133v-954q217 8 327.5 133.5t110.5 339.5z" />
    <glyph glyph-name="Psi" unicode="&#x3a8;" horiz-adv-x="2129" 
d="M1232 2004v-1213q182 31 283 164t101 361v688h341v-688q0 -237 -91.5 -408.5t-255 -271.5t-378.5 -123v-513h-340v512q-214 22 -376 121.5t-252.5 272t-90.5 410.5v688h340v-688q0 -226 102.5 -358.5t276.5 -165.5v1212h340z" />
    <glyph glyph-name="Omega" unicode="&#x2126;" horiz-adv-x="1791" 
d="M129 0v275h298q-141 134 -226.5 333.5t-85.5 420.5v140q0 253 98.5 447.5t274.5 304.5t408 110q231 0 407.5 -110t275.5 -304.5t99 -447.5v-140q0 -221 -85.5 -420.5t-225.5 -333.5h293v-275h-681v283q153 40 244 222.5t91 523.5v141q0 290 -112.5 436.5t-305.5 146.5
t-304.5 -146.5t-111.5 -436.5v-141q0 -343 92.5 -526t251.5 -220v-283h-695z" />
    <glyph glyph-name="Omega" unicode="&#x3a9;" horiz-adv-x="1791" 
d="M129 0v275h298q-141 134 -226.5 333.5t-85.5 420.5v140q0 253 98.5 447.5t274.5 304.5t408 110q231 0 407.5 -110t275.5 -304.5t99 -447.5v-140q0 -221 -85.5 -420.5t-225.5 -333.5h293v-275h-681v283q153 40 244 222.5t91 523.5v141q0 290 -112.5 436.5t-305.5 146.5
t-304.5 -146.5t-111.5 -436.5v-141q0 -343 92.5 -526t251.5 -220v-283h-695z" />
    <glyph glyph-name="Gamma1" unicode="&#x194;" horiz-adv-x="1873" 
d="M59 2034h352l524 -1249l527 1249h353l-721 -1625q107 -248 184 -407.5t77 -250.5q0 -175 -116.5 -263t-301.5 -88t-303.5 88t-118.5 263q0 91 77.5 252.5t187.5 413.5zM833 -244q0 -42 27 -72.5t77 -30.5q51 0 77 32t26 71q0 50 -25 119t-76 184q-50 -112 -78 -182.5
t-28 -120.5z" />
    <glyph glyph-name="afii10018" unicode="&#x411;" horiz-adv-x="1791" 
d="M1432 2048v-272h-952v-548h440q340 0 527 -164.5t187 -440.5q0 -183 -84 -323.5t-244 -220t-386 -79.5h-758v2048h1270zM920 960h-440v-694h440q129 0 218.5 51t136 133.5t46.5 176.5q0 137 -103.5 235t-297.5 98z" />
    <glyph glyph-name="afii10050" unicode="&#x490;" horiz-adv-x="1791" 
d="M1517 2519v-743h-954v-1776h-317v2048h942v471h329z" />
    <glyph glyph-name="uni04FA" unicode="&#x4fa;" horiz-adv-x="1791" 
d="M1008 1176v-209h-281v-967h-318v967h-317v209h317v872h1270v-272h-952v-600h281zM850 277h303v-368q0 -233 -121 -371t-347 -138q-47 0 -86.5 4t-84.5 16l20 265q22 -9 64.5 -14t68.5 -5q80 0 131.5 63t51.5 180v368z" />
    <glyph glyph-name="afii10021" unicode="&#x414;" horiz-adv-x="2303" 
d="M644 2004h1257v-1730h256l-14 -766h-327v492h-1329v-495h-330l-10 769h163q49 50 109 152t109.5 284t66.5 473zM938 1183q-18 -327 -83.5 -548t-157.5 -361h864v1452h-591z" />
    <glyph glyph-name="afii10024" unicode="&#x416;" horiz-adv-x="2897" 
d="M2341 0l-489 868h-226v-868h-340v868h-233l-497 -868h-425l647 1068l-602 936h414l479 -840h217v840h340v-840h210l474 840h414l-597 -935l641 -1069h-427z" />
    <glyph glyph-name="Zhedescendercyrillic" unicode="&#x496;" horiz-adv-x="2979" 
d="M2386 0l-489 868h-226v-868h-340v868h-233l-497 -868h-425l647 1068l-602 936h414l479 -840h217v840h340v-840h210l474 840h414l-597 -935l492 -821h186v-743h-303v495h-161z" />
    <glyph glyph-name="afii10025" unicode="&#x417;" horiz-adv-x="1791" 
d="M902 888h-233v268h233q194 0 277.5 84.5t83.5 218.5q0 121 -91.5 208t-289.5 87q-149 0 -252 -79t-103 -205h-343q0 174 96 300t255 193.5t347 67.5q329 0 526.5 -146t197.5 -425q0 -138 -84 -252t-233 -179q168 -57 257 -175.5t89 -293.5q0 -186 -97 -317.5t-266.5 -201
t-389.5 -69.5q-133 0 -262 34t-234 105t-167.5 181.5t-62.5 263.5h342q0 -127 107 -218.5t277 -91.5q197 0 305 90t108 225q0 170 -100.5 248.5t-292.5 78.5z" />
    <glyph glyph-name="Kacyr" unicode="&#x41a;" horiz-adv-x="1893" 
d="M1415 0l-681 914h-202v-914h-317v2048h317v-861h104l783 861h396l-845 -929l833 -1119h-388z" />
    <glyph glyph-name="Kaverticalstrokecyrillic" unicode="&#x49c;" horiz-adv-x="1873" 
d="M587 1505h225v-348h76l427 847h380l-533 -957l575 -1047h-377l-450 857h-98v-318h-225v318h-148v-857h-315v2004h315v-847h148v348z" />
    <glyph glyph-name="Kahookcyrillic" unicode="&#x4c3;" horiz-adv-x="1873" 
d="M527 864v2h-17v-866h-343v2004h343v-832h158l602 832h414l-663 -868q317 -39 497 -240.5t180 -552.5q0 -219 -73.5 -396.5t-229 -282t-402.5 -104.5l-3 262q150 0 229.5 74.5t108 192t27.5 245.5q1 260 -122 395t-364 135h-342z" />
    <glyph glyph-name="afii10029" unicode="&#x41b;" horiz-adv-x="2047" 
d="M593 2004h1289v-2004h-343v1726h-619l-33 -723q-16 -359 -79.5 -580t-196.5 -322t-357 -101h-88v274l58 4q120 10 188.5 89t101 253t44.5 469z" />
    <glyph glyph-name="uni04C5" unicode="&#x4c5;" horiz-adv-x="2303" 
d="M649 2004h1289v-1802h265v-221q-2 -143 -59.5 -279t-149.5 -249l-208 63q50 112 89 218t39 235v31h-319v1726h-619l-33 -723q-16 -359 -79.5 -580t-196.5 -322t-357 -101h-88v274l58 4q120 10 188.5 89t101 253t44.5 469z" />
    <glyph glyph-name="afii10147" unicode="&#x472;" horiz-adv-x="2111" 
d="M1958 1023q0 -328 -117 -563.5t-321 -361.5t-463 -126q-261 0 -465 126t-321.5 361.5t-117.5 563.5q0 329 117.5 564.5t321.5 362t465 126.5q259 0 463 -126.5t321 -362t117 -564.5zM1057 1785q-226 0 -388.5 -155t-195.5 -467q147 33 263 32.5t218 -17.5t204 -35
t218.5 -23.5t263.5 18.5q-27 324 -190 485.5t-393 161.5zM1057 263q227 0 389 155.5t193 469.5q-148 -33 -264.5 -33t-218.5 16.5t-203.5 35t-218 24t-264.5 -17.5q26 -326 190.5 -488t396.5 -162z" />
    <glyph glyph-name="afii10145" unicode="&#x40f;" horiz-adv-x="2047" 
d="M238 0v2004h343v-1730h888v1730h342v-2004h-603v-496h-341v496h-629z" />
    <glyph glyph-name="afii10037" unicode="&#x423;" horiz-adv-x="1791" 
d="M456 2004l469 -1056l404 1056h382l-690 -1645q-45 -103 -104 -191t-156 -142t-256 -54q-32 0 -76.5 2t-64.5 3l2 273q16 -1 58 -2.5t61 -1.5q115 0 161 58t78 140l41 99l-684 1461h375z" />
    <glyph glyph-name="afii10038" unicode="&#x424;" horiz-adv-x="2328" 
d="M967 1813h33v271h330v-271h31q233 0 418.5 -102.5t293.5 -287t108 -430.5q0 -243 -108 -426t-293.5 -285t-418.5 -102h-31v-264h-330v264h-33q-233 0 -417.5 101.5t-292 284t-107.5 425.5q0 245 107.5 430.5t292.5 288.5t417 103zM967 1539q-233 0 -363.5 -145
t-130.5 -403q0 -252 130.5 -394.5t363.5 -142.5h33v1085h-33zM1362 1539h-32v-1085h32q232 0 361.5 143t129.5 396q0 257 -129.5 401.5t-361.5 144.5z" />
    <glyph glyph-name="afii10040" unicode="&#x426;" horiz-adv-x="2303" 
d="M248 0v2004h343v-1730h885v1730h345v-1726h237l-26 -762h-314v484h-1470z" />
    <glyph glyph-name="Tetsecyrillic" unicode="&#x4b4;" horiz-adv-x="2559" 
d="M629 0v1739h-519v265h1316v-265h-454v-1465h886v1730h344v-1726h238l-27 -762h-313v484h-1471z" />
    <glyph glyph-name="afii10041" unicode="&#x427;" horiz-adv-x="2047" 
d="M256 2004h344v-631q0 -213 94 -287.5t286 -74.5q114 0 239 14.5t233 41.5v937h340v-2004h-340v791q-103 -26 -222.5 -41.5t-249.5 -15.5q-335 0 -529.5 148t-194.5 491v631z" />
    <glyph glyph-name="Chedescendercyrillic" unicode="&#x4b6;" horiz-adv-x="2303" 
d="M2004 248v-743h-303v495h-234v791q-103 -26 -222.5 -41.5t-249.5 -15.5q-335 0 -529.5 148t-194.5 491v631h344v-631q0 -213 94 -287.5t286 -74.5q114 0 239 14.5t233 41.5v937h340v-1756h197z" />
    <glyph glyph-name="Cheverticalstrokecyrillic" unicode="&#x4b8;" horiz-adv-x="1965" 
d="M1061 1420v-404q182 13 338 51v937h340v-2004h-340v791q-76 -19 -161 -33t-177 -20v-319h-224v318q-295 17 -464.5 167t-169.5 469v631h343v-631q0 -186 72 -265t219 -93v405h224z" />
    <glyph glyph-name="Shhacyrillic" unicode="&#x4ba;" horiz-adv-x="2047" 
d="M597 0h-341v2004h341v-794q102 28 221 44t249 16q337 0 531 -150t194 -490v-630h-340v630q0 214 -96 288.5t-289 74.5q-113 0 -238 -15t-232 -42v-936z" />
    <glyph glyph-name="afii10060" unicode="&#x40b;" horiz-adv-x="2221" 
d="M2095 0h-341v628q0 215 -95 290t-288 75q-92 0 -192 -10.5t-193 -29.5v-953h-341v1726h-517v278h1544v-278h-686v-496q87 18 184 28t201 10q335 0 529.5 -149t194.5 -491v-628z" />
    <glyph glyph-name="afii10042" unicode="&#x428;" horiz-adv-x="2641" 
d="M196 2004h344v-1730h614v1730h340v-1730h611v1730h343v-2004h-2252v2004z" />
    <glyph glyph-name="afii10043" unicode="&#x429;" horiz-adv-x="2897" 
d="M180 2004h344v-1730h614v1730h340v-1730h612v1730h343v-1740h258l-28 -747h-299v483h-2184v2004z" />
    <glyph glyph-name="afii10044" unicode="&#x42a;" horiz-adv-x="2181" 
d="M52 1783v265h830v-820h441q339 0 526.5 -164.5t187.5 -440.5q0 -183 -84.5 -323.5t-244 -220t-385.5 -79.5h-758v1783h-513zM882 266h441q129 0 218.5 51t136 133.5t46.5 176.5q0 137 -104 235t-297 98h-441v-694z" />
    <glyph glyph-name="afii10045" unicode="&#x42b;" horiz-adv-x="2412" 
d="M1680 623q0 -183 -84 -323.5t-244 -220t-386 -79.5h-758v2048h317v-820h441q340 0 527 -164.5t187 -440.5zM2206 2048v-2048h-317v2048h317zM525 266h441q129 0 218.5 51t136 133.5t46.5 176.5q0 137 -103.5 235t-297.5 98h-441v-694z" />
    <glyph glyph-name="afii10046" unicode="&#x42c;" horiz-adv-x="1800" 
d="M1654 623q0 -183 -84 -323.5t-244 -220t-386 -79.5h-758v2048h317v-820h441q340 0 527 -164.5t187 -440.5zM499 266h441q129 0 218.5 51t136 133.5t46.5 176.5q0 137 -103.5 235t-297.5 98h-441v-694z" />
    <glyph glyph-name="afii10058" unicode="&#x409;" horiz-adv-x="3063" 
d="M508 2034h1288v-760h415q227 0 386.5 -82.5t244 -227t84.5 -328.5q0 -183 -84.5 -326.5t-244 -226.5t-386.5 -83h-758v1756h-618l-34 -753q-15 -359 -78.5 -580t-196.5 -322t-357 -101h-87v274l54 4q122 10 191.5 89t102 253t43.5 469zM1796 274h415q130 0 212.5 52.5
t122 136t39.5 176.5t-39.5 175.5t-122 134t-212.5 51.5h-415v-726z" />
    <glyph glyph-name="afii10059" unicode="&#x40a;" horiz-adv-x="3052" 
d="M540 2034v-884h886v884h342v-805h414q227 0 387 -78t244 -215.5t84 -315.5t-84 -318t-244 -221t-387 -81h-756v876h-886v-876h-343v2034h343zM1768 284h414q195 0 285 102t90 238q0 132 -90 232.5t-285 100.5h-414v-673z" />
    <glyph glyph-name="afii10047" unicode="&#x42d;" horiz-adv-x="1960" 
d="M182 652h321q25 -201 130.5 -307t330.5 -106q234 0 353.5 175t130.5 451h-736v269h736q-11 295 -141.5 460t-357.5 165q-218 0 -321 -109.5t-126 -308.5h-321q20 199 110.5 355.5t254.5 246t403 89.5q251 0 435.5 -117.5t284.5 -331t100 -501.5v-165q0 -288 -98.5 -500.5
t-279.5 -328.5t-427 -116q-244 0 -411.5 88.5t-259.5 242t-111 349.5z" />
    <glyph glyph-name="afii10048" unicode="&#x42e;" horiz-adv-x="2830" 
d="M532 2048v-909h344q21 294 142.5 503.5t317 321.5t440.5 112q260 0 463.5 -126.5t320.5 -362t117 -564.5q0 -328 -117 -563.5t-320.5 -361.5t-463.5 -126q-242 0 -435.5 108.5t-315.5 313t-147 490.5h-346v-884h-317v2048h317zM2364 1023q0 255 -77.5 424t-211 253.5
t-299.5 84.5q-167 0 -301 -84.5t-212 -253.5t-78 -424t78 -423.5t212 -252.5t301 -84q166 0 299.5 84t211 252.5t77.5 423.5z" />
    <glyph glyph-name="afii10049" unicode="&#x42f;" horiz-adv-x="1709" 
d="M1257 0v753h-390l-388 -753h-368l450 852q-172 80 -263 214.5t-91 327.5q0 296 194.5 453t529.5 157h669v-2004h-343zM931 1018h326v708h-326q-194 0 -289.5 -92t-95.5 -254q0 -170 97 -266t288 -96z" />
    <glyph glyph-name="Ghemiddlehookcyrillic" unicode="&#x494;" horiz-adv-x="1710" 
d="M1405 2048v-272h-952v-632h285q385 0 606.5 -195t221.5 -601q0 -216 -74 -393t-227.5 -282.5t-393.5 -105.5l-3 254q148 0 233.5 75.5t121.5 194.5t37 248q0 282 -136 411t-386 129h-285v-879h-318v2048h1270z" />
    <glyph glyph-name="Pemiddlehookcyrillic" unicode="&#x4a6;" horiz-adv-x="3071" 
d="M1735 2048v-905h308q385 0 606.5 -195t221.5 -601q0 -216 -73.5 -393t-227.5 -282.5t-394 -105.5l-3 254q149 0 234 76t121 194.5t37 247.5q0 282 -135.5 411t-386.5 129h-308v-878h-315v1778h-940v-1778h-316v2048h1571z" />
    <glyph glyph-name="afii10053" unicode="&#x404;" horiz-adv-x="1825" 
d="M1367 652h341q-18 -196 -110 -349.5t-260 -242t-412 -88.5q-246 0 -427 116t-280 328.5t-99 500.5v165q0 288 100.5 501.5t285 331t437.5 117.5q238 0 401.5 -89.5t253.5 -246t110 -355.5h-340q-23 193 -116 303t-309 110q-228 0 -348 -159.5t-131 -450.5h703v-274h-703
q7 -279 116.5 -452t345.5 -173q225 0 320.5 106t120.5 301z" />
    <glyph glyph-name="Haabkhasiancyrillic" unicode="&#x4a8;" horiz-adv-x="2303" 
d="M2105 242v-273q-155 0 -294 25.5t-260 73.5q-98 -47 -211.5 -71.5t-238.5 -24.5q-271 0 -473.5 125.5t-315.5 340t-113 481.5v256q0 243 83.5 437t234.5 307t352 113v-287q-99 0 -170 -74.5t-109 -202.5t-38 -290v-259q0 -189 66 -339t189 -236.5t294 -86.5q64 0 123 10
q-148 134 -229.5 317t-81.5 402v287q0 214 72.5 385t202.5 271t305 100q178 0 312.5 -101t209.5 -278.5t75 -408.5v-287q0 -202 -67.5 -377.5t-190.5 -306.5q126 -28 273 -28zM1243 983q0 -184 71 -332.5t208 -246.5q109 94 167.5 236.5t58.5 313.5v310q0 239 -67.5 360
t-187.5 121q-116 0 -183 -123.5t-67 -344.5v-294z" />
    <glyph glyph-name="Cheabkhasiancyrillic" unicode="&#x4bc;" horiz-adv-x="2303" 
d="M1484 -32q-286 0 -483 111t-298 307t-101 450v96q-216 33 -328.5 180t-112.5 376h247q0 -117 46.5 -197.5t147.5 -110.5q1 249 105.5 441t281.5 300.5t394 106.5q251 0 421 -114.5t255.5 -323.5t85.5 -492v-184h-1200v-78q0 -160 53.5 -291.5t172 -210t313.5 -78.5
q170 0 289 34.5t192 64.5l66 -265q-43 -27 -180.5 -74.5t-366.5 -47.5zM945 1178v-7h857v44q0 145 -39.5 264.5t-131 190t-248.5 70.5q-143 0 -240.5 -76t-147.5 -203.5t-50 -282.5z" />
    <glyph glyph-name="Schwacyrillic" unicode="&#x4d8;" horiz-adv-x="2047" 
d="M931 2032q305 0 514 -122.5t316 -338t107 -496.5v-154q0 -281 -113 -495.5t-304 -335t-426 -118.5q-278 0 -465.5 113.5t-282.5 322t-95 493.5v195h1343q-3 180 -63.5 326t-190 232t-340.5 86q-181 0 -306 -32.5t-201 -62.5l-68 265q43 26 188.5 74t386.5 48zM1025 260
q148 0 254 75t167 203.5t75 289.5h-999v-43q0 -147 47.5 -266t158 -189t297.5 -70z" />
    <glyph glyph-name="Dzeabkhasiancyrillic" unicode="&#x4e0;" horiz-adv-x="1617" 
d="M193 2004h1250l1 -222l-521 -597q275 -33 425 -194t150 -431q0 -186 -90.5 -317.5t-250 -201t-364.5 -69.5q-166 0 -320.5 61t-254 190t-99.5 333h340q0 -127 91.5 -218.5t242.5 -91.5q173 0 269.5 90t96.5 225q0 205 -105.5 296t-305.5 91h-194v237l494 541h-855v278z
" />
    <glyph glyph-name="afii10148" unicode="&#x474;" horiz-adv-x="1873" 
d="M967 541l316 1046q71 224 173.5 332.5t277.5 108.5l62 -1l-1 -291h-29q-117 0 -175 -175l-498 -1561h-330l-686 2004h367l447 -1460l38 -160z" />
    <glyph glyph-name="afii10051" unicode="&#x402;" horiz-adv-x="2303" 
d="M1727 2004v-278h-680v-549q91 22 186.5 37t175.5 15q335 0 532 -160t197 -465q0 -179 -75 -320t-234.5 -222.5t-413.5 -81.5l-2 261q157 0 239 49t113 129t31 173q0 166 -100.5 260t-295.5 94q-95 0 -182.5 -12t-170.5 -34v-900h-343v1726h-536v278h1559z" />
    <glyph glyph-name="eth" unicode="&#xf0;" horiz-adv-x="1601" 
d="M801 -32q-206 0 -357 95t-233 261t-82 380t77.5 375t206 254t280.5 101q145 5 251 -58t160 -146h20q-48 110 -121 225t-190 228l-347 -173l-86 173l272 136q-110 81 -243 152l136 205q88 -46 177 -105t173 -131l310 155l86 -174l-246 -123q184 -196 306 -459t122 -587
q0 -248 -84 -423.5t-235 -268t-353 -92.5zM807 226q187 0 285.5 130t98.5 338q0 132 -41 246t-126 183.5t-217 69.5q-185 0 -281.5 -138t-96.5 -350q0 -203 92 -341t286 -138z" />
    <glyph glyph-name="thorn" unicode="&#xfe;" horiz-adv-x="1696" 
d="M193 2048h308v-730h18q26 46 73.5 101.5t129.5 96t209 40.5q181 0 325 -93.5t227.5 -270t83.5 -427.5q0 -249 -82 -427t-225.5 -272.5t-325.5 -94.5q-126 0 -208.5 40t-131.5 96t-75 103h-18v-786h-308v2624zM1268 768q0 230 -99.5 378.5t-299.5 148.5
q-198 0 -293 -147.5t-95 -379.5q0 -233 95.5 -385t292.5 -152q198 0 298.5 152.5t100.5 384.5z" />
    <glyph glyph-name="alpha" unicode="&#x3b1;" horiz-adv-x="1633" 
d="M129 702v28q0 234 66.5 414t196.5 282.5t318 102.5q141 0 242 -62t168 -175l12 211h280v-1100q0 -115 28.5 -154.5t72.5 -39.5q21 0 38 7l33 -202q-45 -28 -87 -35t-88 -7q-113 0 -180 60.5t-95 193.5q-68 -120 -172.5 -187t-252.5 -67q-187 0 -316.5 94t-196.5 259
t-67 377zM430 730v-28q0 -200 91.5 -331.5t269.5 -131.5q143 0 218 83.5t103 200.5l1 428q-27 127 -101 219.5t-217 92.5q-122 0 -203 -71.5t-121.5 -192.5t-40.5 -269z" />
    <glyph glyph-name="beta" unicode="&#x3b2;" horiz-adv-x="1667" 
d="M896 949h-170v254h103q108 0 179.5 44.5t107 114.5t35.5 145q0 126 -90 208.5t-228 82.5q-137 0 -233 -85.5t-96 -228.5v-895q0 -139 96 -240.5t265 -101.5q173 0 272.5 105t99.5 249q0 143 -95.5 245.5t-245.5 102.5zM833 2076q184 0 323 -74.5t217 -198t78 -271.5
q0 -115 -50 -229.5t-150 -196.5q145 -81 216 -222t71 -297q0 -176 -81.5 -314.5t-222 -218t-318.5 -79.5q-105 0 -209.5 36.5t-188.5 137.5l-14 -7v-718h-311v2071q0 171 85 302t230.5 205t324.5 74z" />
    <glyph glyph-name="gamma" unicode="&#x3b3;" horiz-adv-x="1535" 
d="M437 1503l337 -1066l329 1066h339l-509 -1446v-629h-328v640l-509 1435h341z" />
    <glyph glyph-name="delta" unicode="&#x3b4;" horiz-adv-x="1617" 
d="M295 1731q0 199 144 312.5t398 113.5q108 0 189.5 -17.5t177.5 -50.5v-267q-58 21 -154.5 47.5t-198.5 26.5q-109 0 -171 -42t-62 -115q0 -47 49.5 -105t217.5 -119q304 -106 456 -298t152 -480v-28q0 -209 -81 -375.5t-233.5 -264t-365.5 -97.5q-218 0 -371.5 96
t-234 261t-80.5 371v28q0 158 60 289t160.5 219.5t219.5 118.5l-1 8q-124 55 -197.5 148.5t-73.5 219.5zM455 745v-27q0 -131 38 -240.5t117 -175.5t203 -66q121 0 199 66t115.5 175.5t37.5 240.5v27q0 104 -43 206.5t-122.5 177.5t-186.5 97q-123 0 -202.5 -67
t-117.5 -176.5t-38 -237.5z" />
    <glyph glyph-name="epsilon" unicode="&#x3b5;" horiz-adv-x="1617" 
d="M799 880h274v-238h-274q-146 0 -226.5 -49t-80.5 -159q0 -80 81.5 -143t232.5 -63q150 0 235 65t85 150h326q0 -163 -93.5 -267.5t-239.5 -154t-302 -49.5q-187 0 -335 53.5t-233.5 154t-85.5 240.5q0 129 73.5 216.5t208.5 130.5q-119 48 -187 131t-68 182
q0 213 173.5 324.5t453.5 111.5q167 0 306 -54.5t222.5 -155t83.5 -239.5h-327q0 84 -84.5 138.5t-209.5 54.5q-150 0 -219 -61t-69 -132q0 -83 66.5 -135t212.5 -52z" />
    <glyph glyph-name="zeta" unicode="&#x3b6;" horiz-adv-x="1535" 
d="M168 2004h1199v-199l-479 -577q-98 -116 -167.5 -217t-105.5 -209t-36 -244q0 -128 49.5 -188t155.5 -90l152 -43q109 -32 195 -64.5t135.5 -93t48.5 -175.5q-1 -75 -45.5 -158.5t-109 -157.5t-124.5 -120l-169 138q129 139 126 238q1 46 -41 79.5t-144 59.5l-113 33
q-240 64 -342.5 181.5t-102.5 329.5q0 187 93.5 395t291.5 441l328 377h-795v264z" />
    <glyph glyph-name="eta" unicode="&#x3b7;" horiz-adv-x="1632" 
d="M495 879v-879h-307v1536h296v-229h16q58 107 170 178t272 71q140 0 253.5 -61t181 -190t67.5 -334v-1547h-308v1531q0 154 -84.5 241.5t-214.5 87.5q-87 0 -165 -46t-127.5 -136t-49.5 -223z" />
    <glyph glyph-name="theta" unicode="&#x3b8;" horiz-adv-x="1617" 
d="M1463 1156v-285q0 -462 -178.5 -680.5t-471.5 -218.5q-295 0 -476.5 218.5t-181.5 680.5v285q0 460 180 675t474 215q295 0 474.5 -215t179.5 -675zM457 1207v-71h700v71q0 288 -95.5 432.5t-252.5 144.5q-156 0 -254 -144.5t-98 -432.5zM1157 824v54h-700v-54
q0 -291 100 -440.5t256 -149.5q157 0 250.5 149.5t93.5 440.5z" />
    <glyph glyph-name="iota" unicode="&#x3b9;" horiz-adv-x="847" 
d="M198 1488h302l-1 -1070q0 -102 50 -132t118 -30q33 0 66 5.5t50 10.5v-259q-38 -12 -91.5 -22t-126.5 -10q-163 0 -265 94.5t-102 323.5v1089z" />
    <glyph glyph-name="lambda" unicode="&#x3bb;" horiz-adv-x="1791" 
d="M503 2105q152 0 234 -61.5t123 -170.5l586 -1495q26 -62 56 -95t79 -33h47l6 -262q-46 -13 -126 -13q-143 0 -227.5 60.5t-146.5 229.5l-273 720l-344 -985h-359l531 1428l-118 286q-29 73 -68.5 99.5t-98.5 26.5q-14 0 -34 -0.5t-36 -3.5l-4 248q28 8 81.5 14.5
t91.5 6.5z" />
    <glyph glyph-name="xi" unicode="&#x3be;" horiz-adv-x="1535" 
d="M1310 1970l-49 -257q-86 23 -156.5 37.5t-152.5 14.5q-186 0 -271.5 -66.5t-85.5 -158.5q0 -114 88.5 -186t293.5 -72h202v-269h-196q-238 0 -363.5 -96.5t-125.5 -295.5q0 -109 49.5 -182.5t129.5 -118t171 -66.5l147 -35q118 -29 203.5 -64.5t131.5 -97t45 -165.5
q-1 -76 -46 -159.5t-108 -156.5t-122 -119l-181 134q66 74 100.5 128t34.5 118q0 49 -42 80.5t-142 57.5l-81 21q-189 50 -328 115t-215 182t-76 323q0 202 113 336.5t311 197.5q-152 55 -238 153.5t-86 229.5q0 235 182 367t487 132q113 0 207.5 -17t168.5 -45z" />
    <glyph glyph-name="pi" unicode="&#x3c0;" horiz-adv-x="1873" 
d="M1696 1536v-256h-229v-862q0 -102 49.5 -132t116.5 -30q34 0 66.5 5.5t52.5 10.5v-256q-39 -12 -94 -23.5t-127 -11.5q-164 0 -265 94.5t-101 323.5v881h-504v-1280h-302v1280h-233v256h1570z" />
    <glyph glyph-name="rho" unicode="&#x3c1;" horiz-adv-x="1608" 
d="M182 -572v1369q0 238 82 401t227 247t334 84q219 0 364 -105t217.5 -285.5t72.5 -408.5v-28q0 -215 -73.5 -379.5t-210.5 -257.5t-326 -93q-133 0 -227 47.5t-160 134.5l3 -726h-303zM479 784l1 -116q3 -94 36 -195t107.5 -170.5t203.5 -69.5q121 0 196.5 63.5t111.5 170
t36 235.5v28q0 144 -36.5 264t-113.5 192.5t-201 72.5q-122 0 -197 -71t-109.5 -180.5t-34.5 -223.5z" />
    <glyph glyph-name="uni03FC" unicode="&#x3fc;" horiz-adv-x="1737" 
d="M311 -572v217h-278v209h278v943q0 238 82 401t227.5 247t333.5 84q218 0 363.5 -105t218 -285.5t72.5 -408.5v-28q0 -215 -74 -379.5t-210.5 -257.5t-325.5 -93q-133 0 -227 47.5t-160 134.5l1 -300h337v-209h-336l1 -217h-303zM608 784l1 -116q3 -94 36 -195
t107.5 -170.5t203.5 -69.5q120 0 196 63.5t112 170t36 235.5v28q0 144 -36.5 264t-114 192.5t-200.5 72.5q-121 0 -196.5 -71t-110 -180.5t-34.5 -223.5z" />
    <glyph glyph-name="sigma1" unicode="&#x3c2;" horiz-adv-x="1533" 
d="M805 1516q175 0 309 -66t210 -191t76 -301h-309q0 119 -70.5 206.5t-215.5 87.5q-124 0 -204 -71t-119 -182t-39 -231v-48q0 -182 115.5 -293.5t327.5 -170.5q118 -32 208 -65t141.5 -93.5t53.5 -177.5q-1 -75 -45 -158.5t-107.5 -157.5t-123.5 -120l-172 138
q66 72 98.5 127t32.5 119q0 57 -46 85t-138 50q-322 79 -486 252t-164 465v48q0 203 77 373t226 272.5t364 102.5z" />
    <glyph glyph-name="sigma" unicode="&#x3c3;" horiz-adv-x="1791" 
d="M163 728v32q0 206 80 371t232 261t367 96h787v-264h-368q116 -91 185.5 -226t69.5 -298v-28q0 -187 -79 -346t-228.5 -256.5t-362.5 -97.5q-217 0 -369.5 99.5t-233 271t-80.5 385.5zM492 760v-32q0 -134 35.5 -246t113.5 -179t205 -67q122 0 197 67t109.5 179t34.5 246
v32q0 124 -34.5 230t-110.5 170t-200 64t-201.5 -64t-113 -170t-35.5 -230z" />
    <glyph glyph-name="tau" unicode="&#x3c4;" horiz-adv-x="1405" 
d="M1348 1521v-264h-510v-849q0 -78 21 -113.5t54 -45t68 -9.5q41 0 72 11t56 24l55 -237q-68 -41 -129 -53.5t-129 -12.5q-179 0 -274.5 105.5t-95.5 338.5v841h-478v264h1290z" />
    <glyph glyph-name="upsilon" unicode="&#x3c5;" horiz-adv-x="1584" 
d="M198 1488h303v-905q0 -197 78.5 -273.5t178.5 -76.5q114 0 200.5 75t134.5 199.5t48 272.5q-3 175 -50 356t-112 352h302q63 -126 111 -313t48 -395q0 -216 -69.5 -400t-218 -296t-385.5 -112q-253 0 -411 148t-158 467v901z" />
    <glyph glyph-name="phi" unicode="&#x3c6;" horiz-adv-x="2137" 
d="M910 -645v624q-281 28 -448 148.5t-240.5 302t-73.5 390.5q0 230 87 419.5t244 303.5l196 -193q-216 -207 -225 -530q0 -137 46 -257t147 -203.5t267 -111.5v941q0 173 101.5 263.5t268.5 90.5q217 0 376.5 -106t246.5 -280t87 -378q0 -193 -75.5 -366t-246.5 -290.5
t-456 -143.5v-624h-302zM1212 1198v-951q170 25 275.5 104.5t153.5 191.5t48 236q-3 141 -50 256t-133 182.5t-205 67.5q-51 0 -70 -27t-19 -60z" />
    <glyph glyph-name="psi" unicode="&#x3c8;" horiz-adv-x="2129" 
d="M157 1488h330v-673q0 -266 111 -397t284 -167v1237h327v-1238q161 30 257 112.5t138.5 196.5t42.5 239q-5 178 -50 351t-113 339h324q64 -123 114 -297t50 -393q0 -200 -72.5 -376.5t-240 -296t-450.5 -146.5v-635h-327v638q-335 38 -530 239.5t-195 594.5v672z" />
    <glyph glyph-name="omega" unicode="&#x3c9;" horiz-adv-x="2385" 
d="M372 1488h328q-81 -171 -134.5 -348t-58.5 -360q0 -144 24.5 -268t80.5 -199.5t150 -75.5q110 0 186.5 95.5t76.5 328.5v444h338v-444q0 -233 75 -328.5t187 -95.5q95 0 151 75t80.5 198.5t24.5 269.5q-6 183 -59.5 360t-135.5 348h329q78 -126 136.5 -304.5t58.5 -403.5
q0 -218 -54.5 -402t-180 -295t-338.5 -111q-318 0 -444 309q-125 -309 -444 -309q-213 0 -337.5 111t-178.5 295t-54 402q0 225 57.5 403.5t135.5 304.5z" />
    <glyph glyph-name="gamma1" unicode="&#x263;" horiz-adv-x="1723" 
d="M860 -600q-184 0 -303.5 86.5t-119.5 255.5q0 50 22.5 117t59.5 141l179 352l-593 1169h325l431 -850l433 850h326l-592 -1178l172 -340q40 -80 57 -148.5t17 -112.5q0 -169 -115 -255.5t-299 -86.5zM757 -245q0 -42 26.5 -71.5t76.5 -29.5q51 0 77.5 30.5t26.5 70.5
q0 47 -25 107.5t-74 158.5q-49 -96 -78.5 -157.5t-29.5 -108.5z" />
    <glyph glyph-name="becyrillic" unicode="&#x431;" horiz-adv-x="1723" 
d="M941 1404q197 0 335.5 -89t211 -243t72.5 -349v-31q0 -205 -80 -367.5t-232.5 -257.5t-369.5 -95q-216 0 -367.5 98t-231.5 267t-80 381v31v2v77q0 350 84 579t235 354t352 166q150 31 229.5 73.5t79.5 138.5h266q0 -169 -63.5 -256.5t-179 -130t-270.5 -74.5
q-166 -36 -280.5 -145t-162.5 -317q89 88 202 138t250 50zM878 1140q-125 0 -209.5 -58t-127.5 -153t-43 -206v-31q0 -124 42.5 -227.5t127.5 -166t210 -62.5t211 62.5t129.5 166t43.5 227.5v31q0 111 -43.5 206t-129 153t-211.5 58z" />
    <glyph glyph-name="vecyrillic" unicode="&#x432;" horiz-adv-x="1617" 
d="M865 0h-698v1488h602q287 0 454.5 -100.5t167.5 -310.5q0 -102 -63.5 -184.5t-185.5 -126.5q156 -35 234.5 -128.5t78.5 -213.5q0 -210 -156.5 -317t-433.5 -107zM492 1227v-354h280q291 0 291 172q0 182 -294 182h-277zM1125 446q0 88 -63 138.5t-197 50.5h-373v-374
h373q260 0 260 185z" />
    <glyph glyph-name="gecyrillic" unicode="&#x433;" horiz-adv-x="1282" 
d="M1168 1488v-264h-675v-1224h-303v1488h978z" />
    <glyph glyph-name="gheupturncyrillic" unicode="&#x491;" horiz-adv-x="1353" 
d="M1212 1919v-695h-691v-1224h-302v1488h690v431h303z" />
    <glyph glyph-name="uni04FB" unicode="&#x4fb;" horiz-adv-x="1535" 
d="M1075 932v-209h-353v-723h-303v723h-260v209h260v556h978v-264h-675v-292h353zM869 272h303v-368q0 -232 -121 -370.5t-347 -138.5q-46 0 -86 4t-85 16l20 265q23 -9 65 -14t68 -5q80 0 131.5 63t51.5 180v368z" />
    <glyph glyph-name="decyrillic" unicode="&#x434;" horiz-adv-x="1873" 
d="M127 265h124q75 84 127 170t81.5 208t35.5 314l19 531h1029v-1223h206v-709h-330v444h-958v-444h-334v709zM825 957q-8 -241 -58.5 -409.5t-129.5 -282.5h577v940h-382z" />
    <glyph glyph-name="zhecyrillic" unicode="&#x436;" horiz-adv-x="2385" 
d="M1881 0l-346 602h-179v-602h-328v602h-175l-349 -602h-403l495 775l-466 713h400l341 -585h157v585h328v-585h159l341 585h402l-465 -708l495 -780h-407z" />
    <glyph glyph-name="zhedescendercyrillic" unicode="&#x497;" horiz-adv-x="2467" 
d="M1885 0l-346 602h-179v-602h-328v602h-175l-349 -602h-403l495 775l-466 713h400l341 -585h157v585h328v-585h159l341 585h402l-465 -708l338 -532h209v-743h-303v495h-156z" />
    <glyph glyph-name="zecyrillic" unicode="&#x437;" horiz-adv-x="1535" 
d="M785 642h-241v238h241q132 0 184 52t52 135q0 71 -53.5 132t-190.5 61q-113 0 -189 -54.5t-76 -138.5h-328q0 139 79.5 239.5t212 155t292.5 54.5q268 0 425 -111.5t157 -324.5q0 -99 -60.5 -181.5t-169.5 -131.5q258 -88 258 -347q0 -140 -78 -240.5t-215.5 -154
t-316.5 -53.5q-149 0 -288.5 49.5t-229.5 154t-90 267.5h328q0 -85 76 -151.5t213 -66.5q139 0 203.5 64.5t64.5 144.5q0 110 -63 159t-197 49z" />
    <glyph glyph-name="iicyrillic" unicode="&#x438;" horiz-adv-x="1535" 
d="M476 491l588 997h327v-1488h-327v1001l-588 -1001h-330v1488h330v-997z" />
    <glyph glyph-name="uni048B" unicode="&#x48b;" horiz-adv-x="1873" 
d="M1001 2056h249q0 -170 -119.5 -278t-323.5 -108q-202 0 -320.5 108t-118.5 278h247q0 -75 43.5 -132t148.5 -57t149.5 57t44.5 132zM433 491l588 997h327v-1488h-327v1001l-588 -1001h-330v1488h330v-997zM1764 202v-221q-2 -143 -60 -279t-149 -249l-208 63
q49 112 88.5 218t39.5 235v233h289z" />
    <glyph glyph-name="kacyrillic" unicode="&#x43a;" horiz-adv-x="1617" 
d="M1119 0l-420 593h-172v-593h-328v1488h328v-596h150l416 596h408l-542 -712l586 -776h-426z" />
    <glyph glyph-name="kahookcyrillic" unicode="&#x4c4;" horiz-adv-x="1791" 
d="M576 1488v-596h114l452 596h403l-516 -649q228 -51 365 -201.5t137 -403.5q1 -103 -50.5 -229.5t-166 -233.5t-302.5 -151l-115 235q162 52 234.5 147.5t73.5 231.5q-2 188 -120.5 273.5t-313.5 85.5h-195v-593h-330v1488h330z" />
    <glyph glyph-name="kadescendercyrillic" unicode="&#x49b;" horiz-adv-x="1873" 
d="M1110 0l-420 593h-172v-593h-328v1488h328v-596h150l416 596h408l-542 -712l402 -532v4h303v-743h-303v495h-242z" />
    <glyph glyph-name="kaverticalstrokecyrillic" unicode="&#x49d;" horiz-adv-x="1791" 
d="M622 1169h214v-277h52l291 596h406l-437 -706l472 -782h-417l-304 593h-63v-245h-214v245h-119v-593h-330v1488h330v-596h119v277z" />
    <glyph glyph-name="kabashkircyrillic" unicode="&#x4a1;" horiz-adv-x="2047" 
d="M1539 0l-420 593h-171v-593h-329v1223h-548v265h877v-596h149l417 596h407l-542 -712l586 -776h-426z" />
    <glyph glyph-name="elcyrillic" unicode="&#x43b;" horiz-adv-x="1535" 
d="M396 1488h1067v-1488h-330v1224h-425l-26 -470q-23 -411 -141.5 -582.5t-365.5 -171.5h-98l-1 277l54 4q129 10 177 141.5t62 433.5z" />
    <glyph glyph-name="uni04C6" unicode="&#x4c6;" horiz-adv-x="1873" 
d="M403 1488h1067v-1488h-330v1224h-425l-26 -470q-23 -411 -141.5 -582.5t-365.5 -171.5h-98l-1 277l54 4q129 10 177 141.5t62 433.5zM1819 202v-221q-2 -143 -59.5 -279t-149.5 -249l-208 63q50 112 89 218t39 235v233h289z" />
    <glyph glyph-name="uni052F" unicode="&#x52f;" horiz-adv-x="1873" 
d="M431 1488h1067v-1240h268v-743h-330v495h-268v1224h-425l-27 -470q-21 -411 -139 -582.5t-364 -171.5h-101l-1 277l53 4q130 10 179 141.5t61 433.5z" />
    <glyph glyph-name="emcyrillic" unicode="&#x43c;" horiz-adv-x="2047" 
d="M1024 409l446 1079h410v-1488h-328v992l-416 -992h-222l-417 1002v-1002h-327v1488h413z" />
    <glyph glyph-name="uni04CE" unicode="&#x4ce;" horiz-adv-x="2385" 
d="M998 409l446 1079h410v-1488h-328v992l-416 -992h-222l-417 1002v-1002h-327v1488h413zM2262 202v-221q-2 -143 -60 -279t-149 -249l-208 63q49 112 88.5 218t39.5 235v233h289z" />
    <glyph glyph-name="encyrillic" unicode="&#x43d;" horiz-adv-x="1535" 
d="M476 1488v-621h584v621h330v-1488h-330v604h-584v-604h-330v1488h330z" />
    <glyph glyph-name="endescendercyrillic" unicode="&#x4a3;" horiz-adv-x="1873" 
d="M480 1488v-621h584v621h330v-1240h303v-743h-303v495h-330v604h-584v-604h-330v1488h330z" />
    <glyph glyph-name="enghecyrillic" unicode="&#x4a5;" horiz-adv-x="2047" 
d="M459 1488v-621h584v621h864v-264h-534v-1224h-330v604h-584v-604h-330v1488h330z" />
    <glyph glyph-name="enhookcyrillic" unicode="&#x4c8;" horiz-adv-x="1535" 
d="M146 1488h330v-621h584v621h330v-1579q0 -247 -128 -378t-352 -131q-47 0 -88 4t-88 16l20 260q26 -9 68.5 -12.5t69.5 -3.5q80 0 124 64t44 181v695h-584v-604h-330v1488z" />
    <glyph glyph-name="uni04CA" unicode="&#x4ca;" horiz-adv-x="1873" 
d="M446 1488v-621h584v621h330v-1488h-330v604h-584v-604h-330v1488h330zM1776 202v-221q-2 -143 -60 -279t-149 -249l-208 63q49 112 88.5 218t39.5 235v233h289z" />
    <glyph glyph-name="pecyrillic" unicode="&#x43f;" horiz-adv-x="1535" 
d="M1391 1488v-1488h-327v1224h-590v-1224h-328v1488h1245z" />
    <glyph glyph-name="tecyrillic" unicode="&#x442;" horiz-adv-x="1535" 
d="M1413 1488v-261h-482v-1227h-330v1227h-478v261h1290z" />
    <glyph glyph-name="efcyrillic" unicode="&#x444;" horiz-adv-x="2129" 
d="M156 696v28q0 232 62 410.5t184 280t301 101.5q107 0 191 -38v634h325v-640q91 44 208 44q180 0 301.5 -101.5t183 -280t61.5 -410.5v-28q0 -211 -62 -374t-183.5 -256.5t-298.5 -93.5q-119 0 -210 42v-586h-325v581q-85 -37 -194 -37q-176 0 -297.5 93.5t-184 256.5
t-62.5 374zM1643 696v28q0 143 -30.5 263t-98.5 192.5t-180 72.5q-65 0 -115 -18v-982q50 -15 117 -15q112 0 179.5 61.5t97.5 165.5t30 232zM486 724v-28q0 -128 28 -232t93 -165.5t178 -61.5q62 0 109 14v986q-48 15 -109 15q-111 0 -176.5 -72.5t-94 -192.5t-28.5 -263z
" />
    <glyph glyph-name="uni04FD" unicode="&#x4fd;" horiz-adv-x="1639" 
d="M1284 277h303v-368q0 -233 -121 -371t-347 -138q-47 0 -86.5 4t-84.5 16l20 265q22 -9 64.5 -14t68.5 -5q80 0 131.5 63t51.5 180v91h-277l-328 545l-327 -545h-335l466 768l-460 768h335l321 -568l323 568h333l-466 -768l415 -677v186z" />
    <glyph glyph-name="hadescendercyrillic" unicode="&#x4b3;" horiz-adv-x="1617" 
d="M1474 248v-743h-303v495h-54l-328 545l-327 -545h-335l466 768l-460 768h335l321 -568l323 568h333l-466 -768l319 -520h176z" />
    <glyph glyph-name="tsecyrillic" unicode="&#x446;" horiz-adv-x="1791" 
d="M173 0v1488h330v-1223h588v1223h327v-1224h201l-27 -704h-299v440h-1120z" />
    <glyph glyph-name="dzhecyrillic" unicode="&#x45f;" horiz-adv-x="1535" 
d="M146 1488h328v-1223h590v1223h327v-1488h-458v-493h-325v493h-462v1488z" />
    <glyph glyph-name="checyrillic" unicode="&#x447;" horiz-adv-x="1535" 
d="M1383 1488v-1488h-327v500q-65 -16 -135.5 -24.5t-144.5 -8.5q-286 0 -454 139.5t-168 428.5v456h328v-456q0 -163 73.5 -231.5t220.5 -68.5q76 0 145 8t135 24v721h327z" />
    <glyph glyph-name="chedescendercyrillic" unicode="&#x4b7;" horiz-adv-x="1873" 
d="M1669 248v-743h-303v495h-264v500q-65 -16 -135.5 -24.5t-144.5 -8.5q-286 0 -454 139.5t-168 428.5v456h328v-456q0 -163 73.5 -231.5t220.5 -68.5q76 0 145 8t135 24v721h327v-1240h240z" />
    <glyph glyph-name="cheverticalstrokecyrillic" unicode="&#x4b9;" horiz-adv-x="1535" 
d="M890 1112v-373q89 7 177 28v721h327v-1488h-327v500q-88 -21 -177 -29v-186h-225v189q-232 27 -366 165.5t-134 395.5v456h328v-456q0 -125 43 -193.5t129 -92.5v363h225z" />
    <glyph glyph-name="shacyrillic" unicode="&#x448;" horiz-adv-x="2303" 
d="M188 1488h329v-1223h472v1223h330v-1223h467v1223h330v-1488h-1928v1488z" />
    <glyph glyph-name="shchacyrillic" unicode="&#x449;" horiz-adv-x="2641" 
d="M221 1488h330v-1223h472v1223h329v-1223h468v1223h329v-1224h262l-28 -704h-299v440h-1863v1488z" />
    <glyph glyph-name="softsigncyrillic" unicode="&#x44c;" horiz-adv-x="1617" 
d="M1436 509q0 -145 -69.5 -260t-202 -182t-322.5 -67h-660v1488h330v-476h330q285 0 439.5 -141t154.5 -362zM512 264h330q146 0 205.5 73t59.5 164q0 92 -59.5 169.5t-205.5 77.5h-330v-484z" />
    <glyph glyph-name="hardsigncyrillic" unicode="&#x44a;" horiz-adv-x="1873" 
d="M96 1223v265h732v-476h330q285 0 439.5 -141t154.5 -362q0 -145 -69.5 -260t-202 -182t-322.5 -67h-660v1223h-402zM828 264h330q146 0 205.5 73t59.5 164q0 92 -59.5 169.5t-205.5 77.5h-330v-484z" />
    <glyph glyph-name="yericyrillic" unicode="&#x44b;" horiz-adv-x="2303" 
d="M2042 1536v-1536h-308v1536h308zM1468 509q0 -145 -69.5 -260t-202 -182t-322.5 -67h-660v1488h330v-476h330q285 0 439.5 -141t154.5 -362zM544 264h330q146 0 205.5 73t59.5 164q0 92 -59.5 169.5t-205.5 77.5h-330v-484z" />
    <glyph glyph-name="uni048D" unicode="&#x48d;" horiz-adv-x="1617" 
d="M1035 2004v-234h-402v-711h331q284 0 438.5 -148t154.5 -377q0 -152 -69.5 -273t-201.5 -191t-322 -70h-660v1770h-244v234h244v246h329v-246h402zM633 264h331q146 0 205.5 81t59.5 181q0 66 -26 128t-84 102t-155 40h-331v-532z" />
    <glyph glyph-name="yatcyrillic" unicode="&#x463;" horiz-adv-x="1617" 
d="M1035 1722v-234h-402v-429h331q284 0 438.5 -148t154.5 -377q0 -152 -69.5 -273t-201.5 -191t-322 -70h-660v1488h-244v234h244v423h329v-423h402zM633 264h331q146 0 205.5 81t59.5 181q0 66 -26 128t-84 102t-155 40h-331v-532z" />
    <glyph glyph-name="ljecyrillic" unicode="&#x459;" horiz-adv-x="2559" 
d="M464 1488h1032v-520h330q285 0 439 -136t154 -345t-154 -348t-439 -139h-660v1224h-392l-24 -470q-23 -411 -141.5 -582.5t-366.5 -171.5h-99l-3 277l55 4q131 10 179 141.5t62 433.5zM1496 261h330q146 0 205 72.5t59 156.5q0 82 -59 148t-205 66h-330v-443z" />
    <glyph glyph-name="njecyrillic" unicode="&#x45a;" horiz-adv-x="2559" 
d="M525 1488v-564h587v564h327v-523h329q288 0 443 -134.5t155 -343.5t-155 -348t-443 -139h-656v661h-587v-661h-327v1488h327zM1439 261h329q148 0 208 72.5t60 156.5q0 82 -60 148t-208 66h-329v-443z" />
    <glyph glyph-name="ereversedcyrillic" unicode="&#x44d;" horiz-adv-x="1535" 
d="M730 1252q-114 0 -198 -72t-84 -182h-310q0 142 82 259.5t216.5 188t293.5 70.5q216 0 365.5 -102.5t227 -272.5t77.5 -373v-48q0 -204 -77.5 -374t-227 -272t-365.5 -102q-173 0 -306.5 72t-209.5 198t-76 288h310q0 -119 78.5 -206t203.5 -87q110 0 181 57t109 148.5
t47 196.5h-475v230h474q-12 102 -49.5 189.5t-108 140.5t-178.5 53z" />
    <glyph glyph-name="iucyrillic" unicode="&#x44e;" horiz-adv-x="2276" 
d="M1427 -31q-192 0 -340 81.5t-240 228.5t-117 345h-327v-624h-308v1536h308v-648h326q22 202 113.5 352t240.5 233t344 83q213 0 371.5 -99.5t246 -278t87.5 -415.5t-87.5 -415.5t-246 -278.5t-371.5 -100zM1427 231q141 0 230.5 72t132 193t42.5 267q0 145 -42.5 266
t-132 193.5t-230.5 72.5t-230.5 -72.5t-132 -193.5t-42.5 -266q0 -146 42.5 -267t132 -193t230.5 -72z" />
    <glyph glyph-name="iacyrillic" unicode="&#x44f;" horiz-adv-x="1535" 
d="M781 1488h642v-1488h-330v549h-316l-321 -549h-343l353 603q-137 58 -211 166t-74 245q0 206 159.5 340t440.5 134zM762 795h331v432h-312q-142 0 -206 -70t-64 -148q0 -79 60 -146.5t191 -67.5z" />
    <glyph glyph-name="ghemiddlehookcyrillic" unicode="&#x495;" horiz-adv-x="1535" 
d="M1167 1488v-264h-675v-322h148q214 0 379.5 -76.5t259 -224t93.5 -361.5q1 -79 -27.5 -174t-90.5 -187t-162 -164.5t-242 -106.5l-111 235q162 53 234 154t73 243q-2 189 -113 288.5t-293 99.5h-148v-628h-303v1488h978z" />
    <glyph glyph-name="pemiddlehookcyrillic" unicode="&#x4a7;" horiz-adv-x="2559" 
d="M1398 1488v-581h237q223 0 395 -77t270 -224.5t98 -360.5q0 -79 -29 -174.5t-91 -187.5t-162 -164.5t-241 -106.5l-113 235q164 54 235 154.5t73 243.5q-2 188 -121.5 287.5t-313.5 99.5h-237v-632h-327v1224h-589v-1224h-329v1488h1245z" />
    <glyph glyph-name="ecyrillic" unicode="&#x454;" horiz-adv-x="1542" 
d="M866 866v-231h-496q27 -186 129 -295t267 -109q128 0 213.5 66.5t116.5 182.5l297 -24q-38 -212 -204.5 -349.5t-422.5 -137.5q-218 0 -376 102t-243.5 282.5t-85.5 414.5q0 230 86.5 408t244 279t371.5 101q251 0 423 -135t208 -359l-295 -26q-27 107 -109 183t-224 76
q-171 0 -275 -116t-125 -313h500z" />
    <glyph glyph-name="haabkhasiancyrillic" unicode="&#x4a9;" horiz-adv-x="1873" 
d="M1711 203v-228q-132 0 -246.5 20t-212.5 56q-163 -79 -363 -79q-217 0 -379.5 104.5t-253 283t-90.5 402.5v102q0 186 66.5 333.5t186 233t276.5 85.5v-273q-91 -5 -140.5 -110t-49.5 -269v-102q0 -146 46 -263t132.5 -185t205.5 -68q28 0 55 3q-201 209 -201 516v172
q0 167 55.5 299t157 207.5t240.5 75.5q141 0 244.5 -82.5t160 -224.5t56.5 -318v-170q0 -145 -45.5 -272t-129.5 -225q106 -24 229 -24zM1026 755q0 -239 170 -389q136 137 136 367v174q0 140 -41 239t-113 99q-74 0 -113 -88.5t-39 -223.5v-178z" />
    <glyph glyph-name="tetsecyrillic" unicode="&#x4b5;" horiz-adv-x="2047" 
d="M447 0v1223h-316v265h975v-265h-330v-958h589v1223h327v-1224h200l-26 -704h-299v440h-1120z" />
    <glyph glyph-name="cheabkhasiancyrillic" unicode="&#x4bd;" horiz-adv-x="1791" 
d="M1109 -31q-320 0 -513 191.5t-214 516.5q-179 40 -272 172.5t-93 333.5h231q0 -97 35 -168t108 -105q27 193 119 338.5t239 226.5t340 81q177 0 330.5 -77t248 -243t94.5 -434v-129h-1079q18 -213 127 -327.5t298 -114.5q140 0 225.5 61.5t123.5 165.5l285 -78
q-32 -110 -114 -204t-212 -150.5t-307 -56.5zM1088 1295q-157 0 -262 -102t-136 -287h772q0 167 -100 278t-274 111z" />
    <glyph glyph-name="dzeabkhasiancyrillic" unicode="&#x4e1;" horiz-adv-x="1617" 
d="M189 1488h1246v-209l-517 -616q275 -32 425.5 -190.5t150.5 -428.5q0 -186 -90.5 -317.5t-249 -201t-361.5 -69.5q-164 0 -318 61t-253 190t-99 333h330q0 -130 92.5 -225t247.5 -95q176 0 275 93t99 232q0 209 -107.5 299t-309.5 90h-199v232l482 558h-844v264z" />
    <glyph glyph-name="izhitsacyrillic" unicode="&#x475;" horiz-adv-x="1535" 
d="M744 500l170 621q63 203 165.5 299t239.5 96q39 0 75 -5.5t70 -25.5l-30 -259q-5 4 -23.5 6.5t-37.5 2.5q-45 0 -85.5 -38t-59.5 -92l-369 -1105h-283l-505 1488h340l278 -988l28 -132z" />
    <glyph glyph-name="dollar" unicode="$" horiz-adv-x="1816" 
d="M805 -256l3 226q-194 13 -344 87.5t-238 204.5t-96 310h318q11 -148 113 -229t250 -97l9 676l-89 26q-245 72 -394 206.5t-149 348.5q0 162 84 285.5t230 198t332 87.5l3 230h198l-3 -236q256 -32 415 -187t168 -387h-304q-16 120 -89.5 195t-192.5 100l-8 -632l26 -8
q290 -85 438.5 -222.5t148.5 -361.5q0 -242 -166.5 -403t-461.5 -190l-3 -228h-198zM495 1507q0 -105 84 -172t244 -120l8 583q-152 -16 -244 -95t-92 -196zM1328 564q0 108 -74.5 174.5t-236.5 123.5l-8 -610q147 26 233 110t86 202z" />
    <glyph glyph-name="cent" unicode="&#xa2;" horiz-adv-x="1577" 
d="M1462 1062l-295 -26q-27 107 -109 183t-224 76q-191 0 -298 -144t-107 -383q0 -243 106 -390t299 -147q128 0 213.5 66.5t116.5 182.5l297 -24q-34 -187 -167 -317t-341 -161v-314h-238v314q-183 27 -314 134t-201.5 275.5t-70.5 380.5q0 209 71.5 375t203 272t311.5 133
v264h238v-265q204 -31 341 -160.5t168 -324.5z" />
    <glyph glyph-name="yen" unicode="&#xa5;" horiz-adv-x="1550" 
d="M1357 638v-206h-426v-432h-316v432h-438v206h438v190h-438v206h345l-483 1014h338l398 -914l398 914h339l-484 -1014h329v-206h-426v-190h426z" />
    <glyph glyph-name="sterling" unicode="&#xa3;" horiz-adv-x="1791" 
d="M1162 804h-453l8 -222q4 -93 -14.5 -171.5t-68.5 -138.5h941v-272h-1392v272h99q55 4 82 55t35.5 120t8.5 126l-7 231h-225v270h216l-12 369q-6 207 76.5 348t224 213t312.5 72q196 0 339 -84t212.5 -221t43.5 -297l-297 44q9 97 -30.5 161t-108.5 96t-148 32
q-123 0 -221 -87.5t-98 -276.5l14 -369h463v-270z" />
    <glyph glyph-name="florin" unicode="&#x192;" horiz-adv-x="1160" 
d="M984 1488v-241h-284v-1347q0 -243 -121.5 -371.5t-342.5 -128.5q-46 0 -88 4t-86 16l20 260q21 -8 66 -12t66 -4q84 0 129.5 62t45.5 174v1347h-238v241h238v142q0 248 131.5 379t343.5 131q58 0 123.5 -10t110.5 -23l-51 -256q-25 6 -53.5 10.5t-67.5 4.5
q-226 0 -226 -236v-142h284z" />
    <glyph glyph-name="uni20BA" unicode="&#x20ba;" horiz-adv-x="1698" 
d="M1225 919h318q0 -314 -104 -524.5t-291.5 -316.5t-435.5 -106q-88 0 -172 5t-139 12v890l-264 -106v266l264 106v197l-264 -106v266l264 106v440h316v-312l380 153v-267l-380 -153v-197l380 153v-266l-380 -153v-756q147 1 262 66.5t180.5 212t65.5 390.5z" />
    <glyph glyph-name="uni20BD" unicode="&#x20bd;" horiz-adv-x="2009" 
d="M1179 628v-268h-445v-360h-316v360h-308v268h308v169h-308v269h308v982h740q231 0 387 -84.5t235 -227t79 -316.5q0 -178 -79.5 -319t-235.5 -222.5t-386 -81.5h-424v-169h445zM734 1778v-712h419q205 0 298 100t93 252q0 154 -95 257t-291 103h-424z" />
    <glyph glyph-name="Euro" unicode="&#x20ac;" horiz-adv-x="1869" 
d="M1291 924l-97 -209h-524q55 -226 189 -339t314 -113q131 0 234 49.5t176 111.5l123 -260q-105 -95 -243 -143.5t-290 -48.5q-311 0 -531 196t-290 547h-279l75 209h178q-3 49 -3 99q0 51 3 101h-253l75 208h204q70 351 290 547.5t531 196.5q157 0 294 -52t245 -150
l-121 -259q-80 70 -184.5 120t-233.5 50q-180 0 -314 -113.5t-189 -339.5h799l-94 -208h-736q-3 -49 -3 -101q0 -51 3 -99h652z" />
    <glyph glyph-name="uni20B9" unicode="&#x20b9;" horiz-adv-x="1535" 
d="M817 0l-704 865l-3 199h350q326 0 388 241h-763l69 250h686q-34 103 -127.5 161.5t-252.5 58.5h-375l73 273h1296l-70 -251l-309 1q75 -103 99 -243h279l-69 -250h-209q-31 -201 -180.5 -334.5t-449.5 -155.5l643 -798v-17h-371z" />
    <glyph glyph-name="tenge" unicode="&#x20b8;" horiz-adv-x="1813" 
d="M1695 2048v-270h-1576v270h1576zM1695 1615v-270h-632v-1345h-316v1345h-628v270h1576z" />
    <glyph glyph-name="peseta" unicode="&#x20a7;" horiz-adv-x="3276" 
d="M740 780h-208v-780h-317v2048h525q313 0 475.5 -144t193.5 -368h179v328h308v-328h300v-188q69 97 189 152.5t272 55.5q209 0 333.5 -106t167.5 -293l-275 -48q-17 62 -68.5 124t-165.5 62q-101 0 -165 -50t-64 -131q0 -150 178 -200l228 -59q168 -45 261.5 -150
t93.5 -262q0 -208 -150 -341t-407 -133q-140 0 -242.5 41.5t-172.5 113.5l24 -111q-23 -9 -79 -21t-141 -12q-107 0 -204.5 47t-159 139t-61.5 227v891h-183q-36 -222 -198 -363t-467 -141zM532 1776v-725h208q138 0 215 54.5t108 138.5t31 175q0 89 -31 171t-108 134
t-215 52h-208zM2350 455q32 -105 99.5 -166.5t180.5 -61.5q118 0 181.5 54.5t63.5 137.5q0 77 -38 118t-118 64l-232 63q-170 46 -269 159t-99 272q0 102 40 189h-263v-830q0 -130 55 -165t126 -35q19 0 39 2q-32 63 -50 137z" />
    <glyph glyph-name="peso" unicode="&#x20b1;" horiz-adv-x="2135" 
d="M1111 713h-406v-713h-316v1107h-241v220h241v98h-241v220h241v403h719q270 0 437 -111.5t234 -291.5h254v-220h-211q1 -21 1 -43q0 -28 -2 -55h212v-220h-259q-69 -175 -234 -284.5t-429 -109.5zM705 1778v-133h728q-46 62 -125.5 97.5t-199.5 35.5h-403zM1507 1381
q0 23 -1 44h-801v-98h800q2 26 2 54zM1111 982q114 0 191 33.5t123 91.5h-720v-125h406z" />
    <glyph glyph-name="kip" unicode="&#x20ad;" horiz-adv-x="2079" 
d="M1608 0l-660 892l-252 -279v-613h-317v957h-304v274h304v817h317v-817h159l739 817h415l-757 -817h695v-274h-680l723 -957h-382z" />
    <glyph glyph-name="won" unicode="&#x20a9;" horiz-adv-x="2744" 
d="M381 2048l165 -647h497l168 647h321l169 -647h497l165 647h305l-173 -647h160v-220h-219l-60 -226h279v-220h-338l-196 -735h-325l-201 735h-446l-201 -735h-325l-197 735h-337v220h278l-60 226h-218v220h159l-173 647h306zM1364 1521l-33 -120h82l-33 120h-16zM659 955
h267l59 226h-383zM1209 955h326l-62 226h-202zM1817 955h267l58 226h-384zM782 473h19l68 262h-154zM1943 472h18l67 263h-154z" />
    <glyph glyph-name="lira" unicode="&#x20a4;" horiz-adv-x="1791" 
d="M1164 841v-197h-449l2 -66q3 -89 -11 -166.5t-54 -137.5h968v-274h-1443v274h112q46 12 71 60.5t34 112.5t7 122l-2 75h-227v197h221l-5 168h-216v197h211l-8 267q-6 190 74.5 325t224 206.5t325.5 71.5q282 0 438.5 -152.5t156.5 -400.5h-306q0 101 -46 161.5t-117 87.5
t-144 27q-112 0 -204.5 -83t-92.5 -243l10 -267h470v-197h-463l6 -168h457z" />
    <glyph glyph-name="austral" unicode="&#x20b3;" horiz-adv-x="1988" 
d="M411 0h-336l183 497h-142v265h239l84 229h-323v263h420l292 794h333l292 -794h420v-263h-323l84 -229h239v-265h-142l183 -497h-337l-172 496h-822zM982 1642l-135 -388h294l-135 388h-24zM677 764h634l-79 227h-476z" />
    <glyph glyph-name="hryvnia" unicode="&#x20b4;" horiz-adv-x="1871" 
d="M1688 1126h-1504v245h948q45 51 73.5 105.5t28.5 115.5q0 97 -73 155.5t-217 58.5q-156 0 -228 -69t-73 -186h-331q4 149 70 268t203 188t357 69q292 0 450 -124t158 -349q0 -123 -75 -232h213v-245zM936 -28q-308 0 -476.5 126.5t-168.5 358.5q0 137 90 248h-197v243
h1504v-243h-963q-108 -103 -108 -235q0 -106 83.5 -165t235.5 -59q145 0 237.5 59.5t95.5 197.5h332q-7 -275 -181.5 -403t-483.5 -128z" />
    <glyph glyph-name="naira" unicode="&#x20a6;" horiz-adv-x="2322" 
d="M2247 900v-220h-281v-680h-309l-439 680h-545v-680h-317v680h-281v220h281v206h-281v220h281v722h311l465 -722h519v722h315v-722h281v-220h-281v-206h281zM673 1494v-168h128l-109 168h-19zM673 900h403l-133 206h-270v-206zM1407 900h244v206h-377zM1633 549h18v131
h-102z" />
    <glyph glyph-name="guarani" unicode="&#x20b2;" horiz-adv-x="2063" 
d="M1901 1042v-259q0 -227 -94.5 -399.5t-259 -277.5t-373.5 -128v-234h-245v237q-229 30 -404 163t-274 356t-99 523q0 303 99.5 527t275 357t402.5 162v235h245v-236q256 -34 443.5 -202t269.5 -449l-321 -21q-51 158 -155 252t-237 124v-730h727zM465 1023
q0 -330 130.5 -516t333.5 -230v1496q-201 -42 -332.5 -229t-131.5 -521zM1593 783h-419v-510q186 34 302.5 170t116.5 340z" />
    <glyph glyph-name="coloncurrency" unicode="&#x20a1;" horiz-adv-x="2028" 
d="M1889 1407l-312 -21q-22 98 -74 176l-384 -1296q164 16 289 115t166 277l313 -21q-44 -211 -162.5 -359.5t-291 -227t-377.5 -78.5h-24l-68 -228h-261l79 268q-71 22 -136 55l-96 -323h-259l142 481q-132 136 -206.5 338t-74.5 460q0 311 106.5 540t293.5 360.5
t429 149.5l68 231h260l-73 -245q74 -14 143 -39l84 284h260l-122 -410q107 -86 181.5 -208.5t106.5 -278.5zM733 361q61 -44 133 -68l429 1444q-67 29 -142 41zM465 1023q0 -127 20.5 -233t58.5 -191l344 1163q-187 -55 -305 -240.5t-118 -498.5z" />
    <glyph glyph-name="cedi" unicode="&#x20b5;" horiz-adv-x="2028" 
d="M1890 1407l-312 -21q-38 167 -151 265.5t-262 124.5v-1504q149 26 260.5 123t149.5 263l313 -21q-59 -288 -256 -459t-467 -200v-234h-263v240q-221 36 -389.5 170.5t-264 355t-95.5 513.5q0 294 95.5 514.5t264 355.5t389.5 171v240h263v-234q270 -29 467.5 -201
t257.5 -462zM466 1023q0 -319 121.5 -504t314.5 -236v1482q-193 -51 -314.5 -237t-121.5 -505z" />
    <glyph glyph-name="cruzeiro" unicode="&#x20a2;" horiz-adv-x="2031" 
d="M1755 1140l-99 -264q-17 9 -51 19.5t-82 10.5q-110 0 -188 -58.5t-120.5 -149t-43.5 -185.5v-240q147 27 256.5 124t147.5 261l313 -21q-44 -211 -162.5 -359.5t-291 -227t-377.5 -78.5q-261 0 -465.5 126.5t-321.5 362t-117 562.5t117 563t321.5 363t465.5 127
q205 0 378 -79t292 -228.5t163 -361.5l-312 -21q-45 196 -190.5 297.5t-330.5 101.5q-169 0 -302.5 -85t-211 -254.5t-77.5 -422.5q0 -312 116.5 -495.5t301.5 -239.5v882h287v-242h15q33 114 136.5 189.5t228.5 75.5q60 0 114.5 -16.5t89.5 -36.5z" />
    <glyph glyph-name="tugrik" unicode="&#x20ae;" horiz-adv-x="1791" 
d="M1378 1048v-259l-324 -131v-658h-316v531l-322 -130v261l322 129v204l-322 -130v259l322 130v522h-630v272h1576v-272h-630v-395l324 131v-260l-324 -130v-204z" />
    <glyph glyph-name="uni20AF" unicode="&#x20af;" horiz-adv-x="3665" 
d="M1017 444v-19q79 -75 169 -131.5t215 -56.5q153 0 250 93t143 257.5t46 376.5v104q0 220 -65.5 388t-204 262t-357.5 94q-97 0 -196 -7v-1361zM2284 -572v1369q0 238 82 401t227.5 247t334.5 84q218 0 363.5 -105t218 -285.5t72.5 -408.5v-28q0 -215 -74 -379.5
t-211 -257.5t-325 -93q-133 0 -227 47.5t-161 134.5l3 -726h-303zM2582 784v-114q4 -94 36 -195.5t106.5 -171.5t204.5 -70q121 0 197 63.5t112 170t36 235.5v28q0 144 -36.5 264t-114 192.5t-201.5 72.5q-121 0 -196 -71t-109.5 -180.5t-34.5 -223.5zM405 343q0 -61 37 -97
t95 -36q79 0 114.5 43.5t35.5 109.5v48q-33 28 -67.5 44.5t-73.5 15.5q-64 -2 -102.5 -36.5t-38.5 -91.5zM1017 2304v-236q105 8 206 8q300 0 511 -132t322 -360.5t111 -519.5v-100q0 -308 -91.5 -530t-263 -342t-411.5 -120q-159 0 -269.5 52.5t-192.5 124.5
q-53 -80 -149.5 -128.5t-248.5 -48.5q-209 0 -327.5 104.5t-118.5 271.5q0 176 115.5 272.5t303.5 96.5q91 0 173 -33v1078q-184 -35 -387 -93v264q200 58 387 92v279h330z" />
    <glyph glyph-name="mill" unicode="&#x20a5;" horiz-adv-x="2382" 
d="M1361 960v-960h-305v384l-222 -556h-263l484 1204q-10 134 -79.5 193t-176.5 59q-117 0 -208.5 -92t-91.5 -259v-933h-307v1536h304v-229h14q44 93 149.5 171t250.5 78q96 0 172.5 -34.5t131.5 -92.5l133 331h259l-109 -272q55 31 120 49.5t139 18.5q128 0 234 -58.5
t168.5 -183.5t62.5 -324v-990h-307v995q0 110 -41 173t-102.5 89.5t-122.5 26.5q-136 0 -211.5 -86.5t-75.5 -237.5z" />
    <glyph glyph-name="afii57636" unicode="&#x20aa;" horiz-adv-x="2369" 
d="M221 1536h884q257 0 380.5 -126.5t123.5 -370.5v-537h-310v537q0 121 -50 177t-165 56h-552v-1272h-311v1536zM760 0v1034h311v-770h552q115 0 164.5 56t49.5 177v1022h311v-1022q0 -244 -123.5 -370.5t-381.5 -126.5h-883z" />
    <glyph glyph-name="manat" unicode="&#x20bc;" horiz-adv-x="2047" 
d="M1858 0h-308v244q0 282 -101 452.5t-270 223.5v-920h-311v919q-166 -53 -269 -223.5t-103 -451.5v-244h-307v243q0 269 86 472.5t239 329t354 161.5v330h311v-330q204 -35 357 -160.5t237.5 -329.5t84.5 -473v-243z" />
    <glyph glyph-name="rupee" unicode="&#x20a8;" horiz-adv-x="3104" 
d="M1372 0l-394 782h-427v-782h-317v2048h717q243 0 398.5 -83t230 -226t74.5 -323q0 -212 -95.5 -354t-262.5 -216l434 -846h-358zM551 1776v-717h381q223 0 316 97t93 256q0 94 -35 177t-119.5 135t-235.5 52h-400zM2909 1157l-279 -48q-12 41 -44.5 89t-93 82t-158.5 34
q-121 0 -205 -56.5t-84 -143.5q0 -73 60.5 -125t169.5 -78l255 -59q195 -45 299.5 -148.5t104.5 -260.5q0 -137 -77.5 -244t-218.5 -168.5t-332 -61.5q-281 0 -431.5 122.5t-201.5 301.5l289 62q35 -105 120.5 -173.5t230.5 -68.5q139 0 223 61.5t84 144.5q0 77 -55 118
t-150 64l-262 63q-199 49 -307 159.5t-108 271.5q0 139 77.5 242.5t214 161t312.5 57.5q240 0 379 -106t188 -293z" />
    <glyph glyph-name="lari" unicode="&#x20be;" horiz-adv-x="2047" 
d="M199 0v265h267l6 18q-133 120 -204.5 297t-71.5 389q0 304 139.5 514.5t374.5 295.5v269h222v-221q45 4 92 4t92 -4v221h224v-271q236 -88 375 -307t139 -542h-307q0 197 -55 330t-152 206v-536h-224v624q-44 6 -92 6t-92 -6v-624h-222v535q-96 -73 -151.5 -203
t-55.5 -322q0 -299 146 -486t443 -187h747v-265h-1640z" />
    <glyph glyph-name="zero" unicode="0" horiz-adv-x="1690" 
d="M1543 1160v-242q0 -453 -183 -699.5t-509 -246.5q-329 0 -516.5 246.5t-187.5 699.5v242q0 444 186.5 680t514.5 236q326 0 510.5 -236t184.5 -680zM1230 869v341q0 272 -97 434t-285 162q-190 0 -289 -162t-99 -434v-341q0 -277 100.5 -451.5t290.5 -174.5
q186 0 282.5 174.5t96.5 451.5z" />
    <glyph glyph-name="zero.slash" horiz-adv-x="1685" 
d="M1543 1160v-242q0 -453 -183 -699.5t-509 -246.5q-329 0 -516.5 246.5t-187.5 699.5v242q0 444 186.5 680t514.5 236q326 0 510.5 -236t184.5 -680zM460 869q0 -176 41 -312l572 1162q-91 87 -225 87q-190 0 -289 -162t-99 -434v-341zM1230 869v341q0 166 -36 291
l-575 -1161q95 -97 232 -97q186 0 282.5 174.5t96.5 451.5z" />
    <glyph glyph-name="one" unicode="1" horiz-adv-x="1307" 
d="M909 2048v-2048h-295v1616h-16q-26 -47 -138 -95.5t-284 -48.5v259q128 0 213.5 45t137 105.5t76.5 109.5t31 57h275z" />
    <glyph glyph-name="one.1" horiz-adv-x="1293" 
d="M895 2048v-2048h-295v1736h-12l-354 -207l-127 224l503 295h285z" />
    <glyph glyph-name="one.tnum" horiz-adv-x="1726" 
d="M374 0v272h437v1344h-16q-25 -47 -137 -95.5t-285 -48.5v259q127 0 213 45t137.5 105.5t77 109.5t31.5 57h274v-1776h396v-272h-1128z" />
    <glyph glyph-name="one.tnum.1" horiz-adv-x="1726" 
d="M374 0v272h432v1464h-12l-354 -207l-127 224l503 295h285v-1776h401v-272h-1128z" />
    <glyph glyph-name="two" unicode="2" horiz-adv-x="1685" 
d="M1528 272v-272h-1387v230l702 716q172 176 249.5 294.5t77.5 235.5q0 138 -92.5 241.5t-254.5 103.5q-119 0 -192 -59t-105.5 -154.5t-32.5 -205.5h-308q0 173 70 327t213.5 250.5t362.5 96.5q190 0 335 -75.5t226.5 -208.5t81.5 -305q0 -188 -121 -370t-297 -363
l-458 -470v-12h930z" />
    <glyph glyph-name="two.tnum" horiz-adv-x="1726" 
d="M1548 272v-272h-1387v230l702 716q172 176 249.5 294.5t77.5 235.5q0 138 -92.5 241.5t-254.5 103.5q-119 0 -192 -59t-105.5 -154.5t-32.5 -205.5h-308q0 173 70 327t213.5 250.5t362.5 96.5q190 0 335 -75.5t226.5 -208.5t81.5 -305q0 -188 -121 -370t-297 -363
l-458 -470v-12h930z" />
    <glyph glyph-name="twostroke" unicode="&#x1bb;" horiz-adv-x="1685" 
d="M1528 272v-272h-1387v230l664 677h-194v209h388q89 105 130 189.5t41 170.5q0 138 -92.5 241.5t-254.5 103.5q-119 0 -192 -59t-105.5 -154.5t-32.5 -205.5h-308q0 173 70 327t213.5 250.5t362.5 96.5q190 0 335 -75.5t226.5 -208.5t81.5 -305q0 -94 -32.5 -187
t-88.5 -184h174v-209h-330q-33 -38 -68.5 -76.5t-72.5 -76.5l-458 -470v-12h930z" />
    <glyph glyph-name="three" unicode="3" horiz-adv-x="1685" 
d="M657 895v277h149q174 0 266 98t92 236q0 145 -91.5 233.5t-243.5 88.5q-142 0 -233 -81.5t-91 -211.5h-303q0 157 76.5 279t217 192t331.5 70q188 0 333.5 -65t228 -191.5t82.5 -312.5q0 -121 -75.5 -254.5t-234.5 -209.5q191 -64 270.5 -199t79.5 -285
q0 -185 -93 -316.5t-249.5 -201t-347.5 -69.5q-175 0 -321 61.5t-233 184.5t-87 308h316q0 -135 88 -215t240 -80q158 0 263.5 85.5t105.5 244.5q0 173 -107.5 253.5t-279.5 80.5h-149z" />
    <glyph glyph-name="four" unicode="4" horiz-adv-x="1704" 
d="M1604 662v-273h-288v-389h-281v389h-932v205l889 1454h324v-1386h288zM459 662h576v999l-43 -102z" />
    <glyph glyph-name="four.1" horiz-adv-x="1726" 
d="M1588 662v-273h-272v-389h-281v389h-932v205l761 1454h306l-711 -1386h576v618h281v-618h272z" />
    <glyph glyph-name="four.tnum.1" horiz-adv-x="1726" 
d="M1588 662v-273h-272v-389h-281v389h-932v205l761 1454h306l-711 -1386h576v618h281v-618h272z" />
    <glyph glyph-name="five" unicode="5" horiz-adv-x="1685" 
d="M475 938l-274 63l120 1047h1105v-283h-837l-73 -571h11q47 44 138 81.5t202 37.5q190 0 334.5 -82.5t226 -231.5t81.5 -349q0 -191 -79.5 -344.5t-234.5 -243.5t-380 -90q-269 0 -446 149t-195 429h305q23 -146 109.5 -232.5t236.5 -86.5q164 0 273.5 116.5t109.5 301.5
q0 210 -115 309.5t-273 99.5q-128 0 -208.5 -35t-136.5 -85z" />
    <glyph glyph-name="Tonefive" unicode="&#x1bc;" horiz-adv-x="1726" 
d="M531 938l-273 63l87 757h-241v276h272l2 14h1104v-283h-837l-72 -571h11q47 44 137.5 81.5t201.5 37.5q191 0 335.5 -82.5t225.5 -231.5t81 -349q0 -191 -79.5 -344.5t-234 -243.5t-379.5 -90q-270 0 -446.5 149t-195.5 429h305q23 -146 109.5 -232.5t236.5 -86.5
q164 0 273.5 116.5t109.5 301.5q0 210 -114.5 309.5t-272.5 99.5q-129 0 -209.5 -35t-136.5 -85z" />
    <glyph glyph-name="six" unicode="6" horiz-adv-x="1681" 
d="M1167 1526q-21 70 -57 135.5t-99 107.5t-167 42q-103 0 -191 -58.5t-145 -207t-65 -418.5q80 90 192.5 135.5t238.5 45.5q194 0 332.5 -94t212.5 -246t74 -326q0 -180 -78.5 -332.5t-226.5 -245t-357 -92.5q-331 0 -509.5 250t-178.5 722v72q0 325 70 564t223 370
t403 131q261 0 417.5 -145.5t209.5 -409.5h-299zM838 1045q-172 0 -277 -106t-105 -270q1 -147 54 -243.5t139 -144t187 -47.5q160 0 257 110t97 298q0 110 -36.5 201.5t-114 146.5t-201.5 55z" />
    <glyph glyph-name="six.1" horiz-adv-x="1685" 
d="M938 2048h340l-526 -775q94 35 204 35q188 0 313.5 -91t188.5 -241t63 -326q0 -190 -78.5 -344t-226.5 -244t-355 -90q-221 0 -368.5 101.5t-221 261t-73.5 335.5q0 151 51 289.5t148 283.5zM873 1045q-174 0 -275.5 -106.5t-101.5 -269.5q1 -206 110 -320.5t268 -114.5
q154 0 250.5 113.5t96.5 300.5q0 108 -36.5 198t-113.5 144.5t-198 54.5z" />
    <glyph glyph-name="six.tnum.1" horiz-adv-x="1726" 
d="M941 2048h340l-526 -775q94 35 204 35q188 0 313.5 -91t188.5 -241t63 -326q0 -190 -79 -344t-226.5 -244t-354.5 -90q-222 0 -369 101.5t-220.5 261t-73.5 335.5q0 151 51 289.5t148 283.5zM876 1045q-174 0 -275.5 -106.5t-101.5 -269.5q1 -206 110 -320.5t268 -114.5
q154 0 250.5 113.5t96.5 300.5q0 108 -36.5 198t-113 144.5t-198.5 54.5z" />
    <glyph glyph-name="seven" unicode="7" horiz-adv-x="1598" 
d="M1460 2048v-253l-790 -1795h-334l800 1767h-997v281h1321z" />
    <glyph glyph-name="seven.tnum" horiz-adv-x="1726" 
d="M1524 2048v-253l-790 -1795h-334l800 1767h-997v281h1321z" />
    <glyph glyph-name="eight" unicode="8" horiz-adv-x="1677" 
d="M1500 575q0 -188 -87 -323t-236.5 -207.5t-334.5 -72.5q-187 0 -338 72t-239.5 207t-88.5 324q0 176 83 304.5t224 198.5q-121 64 -191 178t-70 274q0 178 80.5 300t220.5 184t317 62t316 -62t218.5 -184t79.5 -300q0 -161 -70.5 -275t-191.5 -177q141 -71 224.5 -199
t83.5 -304zM1155 1517q0 134 -93.5 215.5t-226.5 81.5q-125 0 -219 -77t-94 -217t94.5 -227.5t225.5 -87.5q128 0 220.5 87t92.5 225zM1192 586q0 103 -48 186t-129.5 131.5t-179.5 48.5t-178.5 -48.5t-128 -131t-47.5 -183.5t48 -182t130 -128.5t183 -47.5q151 0 250.5 103
t99.5 252z" />
    <glyph glyph-name="nine" unicode="9" horiz-adv-x="1681" 
d="M493 522q21 -70 57 -135.5t99 -107.5t167 -42q103 0 191 58.5t145 207t65 418.5q-80 -90 -192.5 -135.5t-238.5 -45.5q-194 0 -332.5 94t-212.5 246t-74 326q0 180 78.5 332.5t226.5 245t357 92.5q331 0 509.5 -250t178.5 -722v-72q0 -325 -70 -564t-223 -370t-403 -131
q-261 0 -417.5 145.5t-209.5 409.5h299zM470 1406q0 -110 36.5 -201.5t114 -146.5t201.5 -55q172 0 277 106t105 270q-1 147 -54 243.5t-139 144t-187 47.5q-160 0 -257 -110t-97 -298z" />
    <glyph glyph-name="nine.1" horiz-adv-x="1726" 
d="M743 0h-340l526 775q-94 -35 -204 -35q-188 0 -313.5 91t-188.5 241t-63 326q0 190 78.5 344t226.5 244t355 90q222 0 369 -101.5t220.5 -261t73.5 -335.5q0 -151 -51 -289.5t-148 -283.5zM460 1400q0 -108 36.5 -198t113 -144.5t198.5 -54.5q174 0 275.5 106.5
t101.5 269.5q-1 206 -110 320.5t-268 114.5q-154 0 -250.5 -113.5t-96.5 -300.5z" />
    <glyph glyph-name="nine.tnum.1" horiz-adv-x="1726" 
d="M762 0h-340l526 775q-94 -35 -204 -35q-188 0 -313.5 91t-188.5 241t-63 326q0 190 78.5 344t226.5 244t355 90q221 0 368.5 -101.5t221 -261t73.5 -335.5q0 -151 -51 -289.5t-148 -283.5zM479 1400q0 -108 36.5 -198t113.5 -144.5t198 -54.5q174 0 275.5 106.5
t101.5 269.5q-1 206 -110 320.5t-268 114.5q-154 0 -250.5 -113.5t-96.5 -300.5z" />
    <glyph glyph-name="ampersand" unicode="&#x26;" horiz-adv-x="1873" 
d="M1439 0l-126 150q-110 -91 -246.5 -134.5t-280.5 -43.5q-202 0 -348 74t-225 204t-79 297q0 182 108 307t280 245q-97 124 -158.5 234.5t-61.5 225.5q0 239 142 375.5t380 136.5q152 0 264 -62t172.5 -164.5t60.5 -222.5q0 -145 -74 -254.5t-196 -200.5l-141 -104
l405 -487q39 76 61 166.5t22 193.5h274q0 -176 -40.5 -321t-130.5 -264l291 -351h-353zM588 1566q0 -69 46 -145.5t114 -160.5l123 87q87 57 130 117.5t43 146.5q0 71 -60.5 137t-160.5 66q-107 0 -171 -74t-64 -174zM439 556q0 -133 97 -229.5t259 -96.5q185 0 344 128
l-452 541l-58 -43q-115 -89 -152.5 -169.5t-37.5 -130.5z" />
    <glyph glyph-name="exclam" unicode="!" horiz-adv-x="789" 
d="M564 2048l-32 -1453h-273l-31 1453h336zM395 -29q-91 0 -150 59t-59 145q0 87 59 147.5t150 60.5q89 0 149 -60.5t60 -147.5q0 -86 -60 -145t-149 -59z" />
    <glyph glyph-name="exclamdown" unicode="&#xa1;" horiz-adv-x="789" 
d="M395 1558q89 0 149 -59t60 -145q0 -87 -60 -147.5t-149 -60.5q-91 0 -150 60.5t-59 147.5q0 86 59 145t150 59zM564 -519h-336l31 1453h273z" />
    <glyph glyph-name="question" unicode="?" horiz-adv-x="1535" 
d="M903 595h-285q0 158 34 265.5t87.5 180t114 126.5t114 104.5t87.5 112t34 151.5q0 135 -75 209.5t-202 74.5q-107 0 -194.5 -69t-88.5 -228h-313q0 182 79.5 305t214.5 186t302 63q275 0 428.5 -149t153.5 -394q0 -144 -49 -236t-122 -160t-146 -137t-123 -163.5
t-51 -241.5zM763 -27q-91 0 -150.5 59t-59.5 146t59.5 147t150.5 60q87 0 147.5 -60t60.5 -147t-60.5 -146t-147.5 -59z" />
    <glyph glyph-name="questiondown" unicode="&#xbf;" horiz-adv-x="1535" 
d="M825 1553q91 0 150.5 -59t59.5 -146t-59.5 -147t-150.5 -60q-87 0 -147.5 60t-60.5 147t60.5 146t147.5 59zM685 931h285q0 -158 -34 -265.5t-87.5 -180t-114 -126.5t-114 -104.5t-87.5 -112t-34 -151.5q0 -135 75 -209.5t202 -74.5q107 0 194 69t89 228h313
q-1 -182 -80 -305t-214 -186t-302 -63q-275 0 -428.5 149t-153.5 394q0 144 49 236t122 160t146 137t123 163.5t51 241.5z" />
    <glyph glyph-name="parenleft" unicode="(" horiz-adv-x="974" 
d="M880 -384h-276q-104 148 -185.5 341.5t-128 416t-46.5 458.5q0 354 103.5 674t270.5 542h266q-180 -306 -260 -594.5t-80 -621.5q0 -321 79.5 -615.5t256.5 -600.5z" />
    <glyph glyph-name="parenleft.case" horiz-adv-x="974" 
d="M880 -192h-276q-104 148 -185.5 341.5t-128 416t-46.5 458.5q0 354 103.5 674t270.5 542h266q-180 -306 -260 -594.5t-80 -621.5q0 -321 79.5 -615.5t256.5 -600.5z" />
    <glyph glyph-name="parenright" unicode=")" horiz-adv-x="974" 
d="M73 -384q177 306 256.5 600.5t79.5 615.5q0 333 -80 621.5t-260 594.5h266q167 -222 270.5 -542t103.5 -674q0 -236 -46.5 -458.5t-127.5 -416t-186 -341.5h-276z" />
    <glyph glyph-name="parenright.case" horiz-adv-x="974" 
d="M73 -192q177 306 256.5 600.5t79.5 615.5q0 333 -80 621.5t-260 594.5h266q167 -222 270.5 -542t103.5 -674q0 -236 -46.5 -458.5t-127.5 -416t-186 -341.5h-276z" />
    <glyph glyph-name="bracketleft" unicode="[" horiz-adv-x="974" 
d="M840 2275v-259h-285v-2217h285v-257h-573v2733h573z" />
    <glyph glyph-name="bracketleft.case" horiz-adv-x="974" 
d="M840 2390v-259h-285v-2217h285v-257h-573v2733h573z" />
    <glyph glyph-name="bracketleft_quill" unicode="&#x2045;" horiz-adv-x="974" 
d="M840 1037v-257h-285v-981h285v-257h-573v2733h573v-259h-285v-979h285z" />
    <glyph glyph-name="bracketright" unicode="]" horiz-adv-x="974" 
d="M134 2275h574v-2733h-574v257h285v2217h-285v259z" />
    <glyph glyph-name="bracketright.case" horiz-adv-x="974" 
d="M134 2390h574v-2733h-574v257h285v2217h-285v259z" />
    <glyph glyph-name="bracketright_quill" unicode="&#x2046;" horiz-adv-x="974" 
d="M134 2275h574v-2733h-574v257h285v981h-285v257h285v979h-285v259z" />
    <glyph glyph-name="braceleft" unicode="{" horiz-adv-x="974" 
d="M883 -304l-65 -192q-188 54 -287 149.5t-135.5 222t-36.5 272.5v276q0 140 -63 223.5t-205 83.5v242q142 0 205 81.5t63 221.5v280q0 144 36.5 270.5t135.5 222t287 147.5l65 -188q-144 -48 -196 -170.5t-52 -281.5v-280q0 -136 -48.5 -247.5t-164.5 -176.5
q116 -65 164.5 -177.5t48.5 -250.5v-276q0 -159 52 -281.5t196 -170.5z" />
    <glyph glyph-name="braceleft.case" horiz-adv-x="974" 
d="M883 -132l-65 -192q-188 54 -287 149.5t-135.5 222t-36.5 272.5v276q0 140 -63 223.5t-205 83.5v242q142 0 205 81.5t63 221.5v280q0 144 36.5 270.5t135.5 222t287 147.5l65 -188q-144 -48 -196 -170.5t-52 -281.5v-280q0 -136 -48.5 -247.5t-164.5 -176.5
q116 -65 164.5 -177.5t48.5 -250.5v-276q0 -159 52 -281.5t196 -170.5z" />
    <glyph glyph-name="braceright" unicode="}" horiz-adv-x="974" 
d="M70 -304q144 48 196 170.5t52 281.5v276q0 138 48.5 250.5t164.5 177.5q-116 65 -164.5 176.5t-48.5 247.5v280q0 159 -52 281.5t-196 170.5l65 188q188 -52 287 -147.5t135.5 -222t36.5 -270.5v-280q0 -140 63 -221.5t205 -81.5v-242q-142 0 -205 -83.5t-63 -223.5v-276
q0 -146 -36.5 -272.5t-135.5 -222t-287 -149.5z" />
    <glyph glyph-name="braceright.case" horiz-adv-x="974" 
d="M70 -132q144 48 196 170.5t52 281.5v276q0 138 48.5 250.5t164.5 177.5q-116 65 -164.5 176.5t-48.5 247.5v280q0 159 -52 281.5t-196 170.5l65 188q188 -52 287 -147.5t135.5 -222t36.5 -270.5v-280q0 -140 63 -221.5t205 -81.5v-242q-142 0 -205 -83.5t-63 -223.5v-276
q0 -146 -36.5 -272.5t-135.5 -222t-287 -149.5z" />
    <glyph glyph-name="at" unicode="@" horiz-adv-x="2704" 
d="M1401 1998q287 0 507 -90.5t369.5 -247t225.5 -356.5t76 -420q0 -166 -21.5 -322t-76.5 -279.5t-155 -196t-257 -72.5q-77 0 -155.5 18t-136 67t-70.5 141h-12q-37 -91 -151.5 -156.5t-271.5 -57.5q-258 14 -401 204t-143 506q0 196 74.5 338t196 225t262.5 100
q155 19 273 -28t140 -113h12v112h249v-950q0 -74 38.5 -118.5t106.5 -44.5q132 0 186.5 148t54.5 483q0 253 -104.5 449.5t-311.5 308.5t-516 112q-306 0 -524 -129t-334 -363t-116 -550q0 -497 261 -764.5t761 -267.5q108 0 214 19t190.5 43.5t127.5 40.5l73 -224
q-59 -29 -161 -57t-221.5 -46.5t-230.5 -18.5q-624 0 -954.5 332t-330.5 951q0 388 150.5 674t432 443t674.5 157zM1324 1154q-159 0 -248 -119.5t-89 -286.5q-1 -126 29.5 -232t103 -170t196.5 -64q190 0 280.5 115.5t90.5 350.5q0 238 -96.5 323t-266.5 83z" />
    <glyph glyph-name="at.case" horiz-adv-x="2663" 
d="M1401 2293q287 0 507 -90.5t369.5 -247t225.5 -356.5t76 -420q0 -167 -21.5 -322.5t-76.5 -279t-155 -196t-257 -72.5q-77 0 -155.5 18t-136 66.5t-70.5 141.5h-12q-37 -91 -151.5 -156t-271.5 -58q-258 14 -401 204t-143 506q0 195 74.5 337.5t196 225t262.5 100.5
q155 19 273 -28t140 -113h12v112h249v-950q0 -73 38.5 -118t106.5 -45q132 0 186.5 148t54.5 483q0 253 -104.5 449.5t-311.5 308.5t-516 112q-306 0 -524 -129t-334 -363.5t-116 -549.5q0 -497 261 -764.5t761 -267.5q108 0 214 19t190.5 43.5t127.5 40.5l73 -224
q-59 -28 -161 -56.5t-221.5 -47t-230.5 -18.5q-624 0 -954.5 332t-330.5 951q0 388 150.5 674t432 443t674.5 157zM1324 1449q-159 0 -248 -119.5t-89 -286.5q-1 -127 29.5 -232.5t103 -169.5t196.5 -64q190 0 280.5 115.5t90.5 350.5q0 238 -96.5 322.5t-266.5 83.5z" />
    <glyph glyph-name="numbersign" unicode="#" horiz-adv-x="1813" 
d="M360 0l81 567h-305l19 216h317l67 465h-307l19 222h320l81 564h224l-81 -564h361l81 564h224l-82 -564h301l-19 -222h-314l-67 -465h304l-19 -216h-317l-82 -567h-222l82 567h-361l-82 -567h-223zM696 783h361l67 465h-361z" />
    <glyph glyph-name="currency" unicode="&#xa4;" horiz-adv-x="2050" 
d="M204 836q0 147 41.5 277.5t116.5 236.5l-195 201l170 178l196 -199q102 79 226.5 122.5t261.5 43.5q139 0 264.5 -44.5t228.5 -125.5l197 203l174 -178l-201 -204q73 -106 114.5 -236t41.5 -275q0 -139 -38 -264.5t-106 -229.5l189 -189l-174 -178l-178 183
q-106 -88 -236.5 -137t-275.5 -49q-144 0 -273 48t-234 135l-177 -180l-170 178l183 185q-69 105 -107.5 231t-38.5 267zM435 836q0 -174 79 -316.5t212 -227.5t295 -85q161 0 293 85t210.5 227.5t78.5 316.5q0 176 -78.5 318.5t-210.5 226.5t-293 84q-162 0 -295 -84
t-212 -226.5t-79 -318.5z" />
    <glyph glyph-name="slash" unicode="/" horiz-adv-x="1086" 
d="M982 2048l-596 -2356h-285l596 2356h285z" />
    <glyph glyph-name="bar" unicode="|" horiz-adv-x="813" 
d="M547 2048v-2432h-280v2432h280z" />
    <glyph glyph-name="brokenbar" unicode="&#xa6;" horiz-adv-x="813" 
d="M547 2048v-940h-280v940h280zM267 560h280v-944h-280v944z" />
    <glyph glyph-name="backslash" unicode="\" horiz-adv-x="1064" 
d="M91 2048h284l596 -2356h-284z" />
    <glyph glyph-name="hyphenbullet" unicode="&#x2043;" horiz-adv-x="1279" 
d="M1128 1312v-576h-976v576h976z" />
    <glyph glyph-name="hyphen" unicode="-" horiz-adv-x="1301" 
d="M1119 1001v-255h-937v255h937z" />
    <glyph glyph-name="hyphen.case" horiz-adv-x="1279" 
d="M1119 1154v-255h-937v255h937z" />
    <glyph glyph-name="endash" unicode="&#x2013;" horiz-adv-x="1552" 
d="M1457 1000v-252h-1362v252h1362z" />
    <glyph glyph-name="endash.case" horiz-adv-x="1552" 
d="M1457 1152v-252h-1362v252h1362z" />
    <glyph glyph-name="figuredash" unicode="&#x2012;" horiz-adv-x="1797" 
d="M1794 1000v-252h-1792v252h1792z" />
    <glyph glyph-name="figuredash.case" horiz-adv-x="1797" 
d="M1794 1152v-252h-1792v252h1792z" />
    <glyph glyph-name="emdash" unicode="&#x2014;" horiz-adv-x="2837" 
d="M2699 1000v-252h-2560v252h2560z" />
    <glyph glyph-name="emdash.case" horiz-adv-x="2837" 
d="M2699 1152v-252h-2560v252h2560z" />
    <glyph glyph-name="bullet" unicode="&#x2022;" horiz-adv-x="1336" 
d="M1087 838q0 -116 -56 -211t-150.5 -151t-212.5 -56q-115 0 -210 56t-151.5 151t-56.5 211t56.5 212t151.5 153t210 57q118 0 212.5 -57t150.5 -153t56 -212z" />
    <glyph glyph-name="bullet.case" horiz-adv-x="1260" 
d="M1087 1010q0 -116 -56 -211t-150.5 -151t-212.5 -56q-115 0 -210 56t-151.5 151t-56.5 211t56.5 212t151.5 153t210 57q118 0 212.5 -57t150.5 -153t56 -212z" />
    <glyph glyph-name="quoteleft" unicode="&#x2018;" horiz-adv-x="639" 
d="M172 1408v194q0 128 69.5 270.5t182.5 236.5l150 -107q-58 -86 -101 -182.5t-43 -214.5v-197h-258z" />
    <glyph glyph-name="quoteright" unicode="&#x2019;" horiz-adv-x="639" 
d="M468 2048v-194q0 -128 -69.5 -270.5t-182.5 -236.5l-150 107q57 86 100 182.5t43 214.5v197h259z" />
    <glyph glyph-name="primetripl1" unicode="&#x2034;" horiz-adv-x="1781" 
d="M139 1664l207 484h323l-301 -484h-229zM626 1664l207 484h325l-302 -484h-230zM1112 1664l208 484h325l-302 -484h-231z" />
    <glyph glyph-name="quotesingle" unicode="'" horiz-adv-x="598" 
d="M423 2048v-732h-251v732h251z" />
    <glyph glyph-name="quotedbl" unicode="&#x22;" horiz-adv-x="1197" 
d="M445 2048v-732h-251v732h251zM957 2048v-732h-251v732h251z" />
    <glyph glyph-name="quotedblleft" unicode="&#x201c;" horiz-adv-x="1238" 
d="M194 1408v194q0 128 69.5 270.5t182.5 236.5l150 -107q-58 -86 -101 -182.5t-43 -214.5v-197h-258zM702 1408v194q0 128 69.5 270.5t182.5 236.5l150 -107q-58 -86 -101 -182.5t-43 -214.5v-197h-258z" />
    <glyph glyph-name="quotedblright" unicode="&#x201d;" horiz-adv-x="1238" 
d="M494 2048v-194q0 -128 -69.5 -270.5t-182.5 -236.5l-150 107q57 86 100 182.5t43 214.5v197h259zM1000 2048v-194q0 -128 -69.5 -270.5t-182.5 -236.5l-150 107q57 86 100 182.5t43 214.5v197h259z" />
    <glyph glyph-name="quotedblbase" unicode="&#x201e;" horiz-adv-x="1145" 
d="M454 256v-194q0 -128 -69.5 -270.5t-182.5 -236.5l-150 107q57 86 100 182.5t43 214.5v197h259zM960 256v-194q0 -128 -69.5 -270.5t-182.5 -236.5l-150 107q57 86 100 182.5t43 214.5v197h259z" />
    <glyph glyph-name="quotesinglbase" unicode="&#x201a;" horiz-adv-x="639" 
d="M457 256v-194q0 -128 -69.5 -270.5t-182.5 -236.5l-150 107q57 86 100 182.5t43 214.5v197h259z" />
    <glyph glyph-name="comma" unicode="," horiz-adv-x="784" 
d="M567 285v-221q-2 -143 -59.5 -279.5t-149.5 -248.5l-208 63q50 112 89 218t39 235v233h289z" />
    <glyph glyph-name="comma.tnum" horiz-adv-x="784" 
d="M567 285v-221q-2 -143 -59.5 -279.5t-149.5 -248.5l-208 63q50 112 89 218t39 235v233h289z" />
    <glyph glyph-name="period" unicode="." horiz-adv-x="784" 
d="M392 -20q-84 0 -143 59t-59 144q0 84 60 141.5t142 57.5q83 0 142.5 -58.5t59.5 -140.5q0 -85 -59.5 -144t-142.5 -59z" />
    <glyph glyph-name="period.tnum" horiz-adv-x="784" 
d="M392 -20q-84 0 -143 59t-59 144q0 84 60 141.5t142 57.5q83 0 142.5 -58.5t59.5 -140.5q0 -85 -59.5 -144t-142.5 -59z" />
    <glyph glyph-name="ellipsis" unicode="&#x2026;" horiz-adv-x="2252" 
d="M392 -20q-84 0 -143 59t-59 144q0 84 60 141.5t142 57.5q83 0 142.5 -58.5t59.5 -140.5q0 -85 -59.5 -144t-142.5 -59zM1127 -20q-84 0 -143 59t-59 144q0 84 60 141.5t142 57.5q83 0 142.5 -58.5t59.5 -140.5q0 -85 -59.5 -144t-142.5 -59zM1860 -20q-84 0 -143 59
t-59 144q0 84 60 141.5t142 57.5q83 0 142.5 -58.5t59.5 -140.5q0 -85 -59.5 -144t-142.5 -59z" />
    <glyph glyph-name="twodotleader" unicode="&#x2025;" horiz-adv-x="1552" 
d="M409 -20q-84 0 -143 59t-59 144q0 84 60 141.5t142 57.5q83 0 142.5 -58.5t59.5 -140.5q0 -85 -59.5 -144t-142.5 -59zM1143 -20q-84 0 -143 59t-59 144q0 84 60 141.5t142 57.5q83 0 142.5 -58.5t59.5 -140.5q0 -85 -59.5 -144t-142.5 -59z" />
    <glyph glyph-name="colon" unicode=":" horiz-adv-x="784" 
d="M392 1085q-84 0 -143 59t-59 144q0 84 60 141.5t142 57.5q83 0 142.5 -58.5t59.5 -140.5q0 -85 -59.5 -144t-142.5 -59zM392 -20q-84 0 -143 59t-59 144q0 84 60 141.5t142 57.5q83 0 142.5 -58.5t59.5 -140.5q0 -85 -59.5 -144t-142.5 -59z" />
    <glyph glyph-name="colon.case" horiz-adv-x="784" 
d="M392 1320q-84 0 -143 59t-59 144q0 84 60 141.5t142 57.5q83 0 142.5 -58.5t59.5 -140.5q0 -85 -59.5 -144t-142.5 -59zM392 292q-84 0 -143 59t-59 144q0 84 60 141.5t142 57.5q83 0 142.5 -58.5t59.5 -140.5q0 -85 -59.5 -144t-142.5 -59z" />
    <glyph glyph-name="semicolon" unicode=";" horiz-adv-x="784" 
d="M392 1102q-84 0 -143 59t-59 144q0 84 60 141.5t142 57.5q83 0 142.5 -58.5t59.5 -140.5q0 -85 -59.5 -144t-142.5 -59zM567 285v-221q-2 -143 -59.5 -279.5t-149.5 -248.5l-208 63q50 112 89 218t39 235v233h289z" />
    <glyph glyph-name="guilsinglleft" unicode="&#x2039;" horiz-adv-x="1023" 
d="M818 201h-230l-395 579v28l395 580h230l-362 -594z" />
    <glyph glyph-name="guilsinglright" unicode="&#x203a;" horiz-adv-x="1023" 
d="M193 201l361 593l-361 593h229l396 -580v-27l-396 -579h-229z" />
    <glyph glyph-name="guillemotleft" unicode="&#xab;" horiz-adv-x="1361" 
d="M750 201h-230l-395 579v28l395 580h230l-362 -594zM1276 201h-230l-395 579v28l395 580h230l-362 -594z" />
    <glyph glyph-name="guillemotright" unicode="&#xbb;" horiz-adv-x="1361" 
d="M86 201l361 593l-361 593h229l396 -580v-27l-396 -579h-229zM613 201l361 593l-361 593h229l396 -580v-27l-396 -579h-229z" />
    <glyph glyph-name="less" unicode="&#x3c;" horiz-adv-x="1301" 
d="M1115 356l-191 -181l-801 721l801 721l191 -181l-600 -536v-8z" />
    <glyph glyph-name="greater" unicode="&#x3e;" horiz-adv-x="1301" 
d="M165 356l600 536v8l-600 536l191 181l801 -721l-801 -721z" />
    <glyph glyph-name="lessequal" unicode="&#x2264;" horiz-adv-x="1731" 
d="M1485 626v-278l-1239 655v44l1239 653v-281l-737 -387v-16zM1485 257v-255h-1239v255h1239z" />
    <glyph glyph-name="greaterequal" unicode="&#x2265;" horiz-adv-x="1731" 
d="M225 626l737 390v16l-737 387v281l1239 -653v-44l-1239 -655v278zM225 257h1239v-255h-1239v255z" />
    <glyph glyph-name="equal" unicode="=" horiz-adv-x="1731" 
d="M290 1317h1152v-262h-1152v262zM290 737h1152v-262h-1152v262z" />
    <glyph glyph-name="equal.case" horiz-adv-x="1731" 
d="M290 1445h1152v-262h-1152v262zM290 865h1152v-262h-1152v262z" />
    <glyph glyph-name="notequal" unicode="&#x2260;" horiz-adv-x="1731" 
d="M290 737h393l180 318h-573v262h722l181 320l149 -85l-133 -235h233v-262h-381l-180 -318h561v-262h-709l-191 -338l-150 86l143 252h-245v262z" />
    <glyph glyph-name="notequal.case" horiz-adv-x="1731" 
d="M290 865h393l180 318h-573v262h722l181 320l149 -85l-133 -235h233v-262h-381l-180 -318h561v-262h-709l-191 -338l-150 86l143 252h-245v262z" />
    <glyph glyph-name="plus" unicode="+" horiz-adv-x="1731" 
d="M1506 1028v-264h-508v-508h-265v508h-507v264h507v508h265v-508h508z" />
    <glyph glyph-name="plus.case" horiz-adv-x="1731" 
d="M1506 1156v-264h-508v-508h-265v508h-507v264h507v508h265v-508h508z" />
    <glyph glyph-name="minus" unicode="&#x2212;" horiz-adv-x="1731" 
d="M1485 1028v-264h-1239v264h1239z" />
    <glyph glyph-name="minus.case" horiz-adv-x="1731" 
d="M1485 1156v-264h-1239v264h1239z" />
    <glyph glyph-name="multiply" unicode="&#xd7;" horiz-adv-x="1731" 
d="M433 267l-185 187l433 442l-444 453l185 187l444 -452l443 452l186 -187l-445 -453l434 -442l-186 -187l-432 441z" />
    <glyph glyph-name="multiply.case" horiz-adv-x="1731" 
d="M433 395l-185 187l433 442l-444 453l185 187l444 -452l443 452l186 -187l-445 -453l434 -442l-186 -187l-432 441z" />
    <glyph glyph-name="divide" unicode="&#xf7;" horiz-adv-x="1731" 
d="M672 1421q0 79 50.5 130.5t143.5 51.5q90 0 141.5 -51.5t51.5 -130.5q0 -77 -51.5 -127.5t-141.5 -50.5q-93 0 -143.5 50.5t-50.5 127.5zM1506 1028v-262h-1280v262h1280zM672 366q0 79 50.5 131.5t143.5 52.5q90 0 141.5 -52.5t51.5 -131.5q0 -76 -51.5 -127t-141.5 -51
q-93 0 -143.5 51t-50.5 127z" />
    <glyph glyph-name="divide.case" horiz-adv-x="1731" 
d="M672 1554q0 79 50.5 130.5t143.5 51.5q90 0 141.5 -51.5t51.5 -130.5q0 -76 -51.5 -127t-141.5 -51q-93 0 -143.5 51t-50.5 127zM1506 1161v-262h-1280v262h1280zM672 499q0 79 50.5 131.5t143.5 52.5q90 0 141.5 -52.5t51.5 -131.5q0 -77 -51.5 -127.5t-141.5 -50.5
q-93 0 -143.5 50.5t-50.5 127.5z" />
    <glyph glyph-name="plusminus" unicode="&#xb1;" horiz-adv-x="1731" 
d="M1506 1155v-265h-505v-432h-271v432h-506v265h506v448h271v-448h505zM1504 262v-262h-1277v262h1277z" />
    <glyph glyph-name="plusminus.case" horiz-adv-x="1731" 
d="M1506 1418v-265h-505v-432h-271v432h-506v265h506v448h271v-448h505zM1504 525v-262h-1277v262h1277z" />
    <glyph glyph-name="approxequal" unicode="&#x2248;" horiz-adv-x="1731" 
d="M219 954v298q63 69 154.5 107t181.5 38q111 3 178.5 -26.5t153.5 -73.5q82 -40 143 -66.5t163 -26.5q88 0 171 45.5t149 126.5v-298q-66 -68 -146.5 -106t-168.5 -38q-102 0 -163.5 26.5t-142.5 66.5q-87 44 -154.5 74.5t-177.5 25.5q-90 0 -184 -45.5t-157 -127.5z
M219 378v298q63 67 152.5 105.5t179.5 38.5q110 3 177.5 -27t154.5 -73q81 -41 142.5 -68t163.5 -27q89 0 173.5 45.5t150.5 126.5v-295q-66 -69 -149 -108t-171 -39q-102 0 -163 27t-143 68q-86 43 -153.5 73t-178.5 27q-90 0 -181.5 -45.5t-154.5 -126.5z" />
    <glyph glyph-name="asciitilde" unicode="~" horiz-adv-x="1726" 
d="M1330 1149h252q2 -239 -115.5 -375.5t-300.5 -136.5q-200 0 -367 176q-58 65 -106.5 94t-107.5 29q-83 0 -133 -58t-56 -175h-252q2 241 123 373.5t299 132.5q189 0 361 -173q62 -62 109.5 -95t110.5 -33q78 0 130.5 56t52.5 185z" />
    <glyph glyph-name="logicalnot" unicode="&#xac;" horiz-adv-x="1535" 
d="M1344 1108v-592h-276v356h-872v236h1148z" />
    <glyph glyph-name="periodcentered" unicode="&#xb7;" horiz-adv-x="789" 
d="M392 818q-84 0 -143 59t-59 144q0 84 60 141.5t142 57.5q83 0 142.5 -58.5t59.5 -140.5q0 -85 -59.5 -144t-142.5 -59z" />
    <glyph glyph-name="anoteleia" unicode="&#x387;" horiz-adv-x="789" 
d="M375 818q-84 0 -143 59t-59 144q0 84 60 141.5t142 57.5q83 0 142.5 -58.5t59.5 -140.5q0 -85 -59.5 -144t-142.5 -59z" />
    <glyph glyph-name="questiongreek" unicode="&#x37e;" horiz-adv-x="789" 
d="M394 1149q-84 0 -143 59t-59 144q0 84 60 141.5t142 57.5q83 0 142.5 -58.5t59.5 -140.5q0 -85 -59.5 -144t-142.5 -59zM600 285v-221q-2 -143 -60 -279.5t-149 -248.5l-208 63q49 112 88.5 218t39.5 235v233h289z" />
    <glyph glyph-name="underscore" unicode="_" horiz-adv-x="1285" 
d="M1277 0v-260h-1269v260h1269z" />
    <glyph glyph-name="dagger" unicode="&#x2020;" horiz-adv-x="1709" 
d="M1535 1488v-269h-517v-1219h-330v1219h-513v269h513v516h330v-516h517z" />
    <glyph glyph-name="daggerdbl" unicode="&#x2021;" horiz-adv-x="1535" 
d="M1448 265v-265h-520v-572h-327v572h-513v265h513v959h-513v264h513v516h327v-516h520v-264h-520v-959h520z" />
    <glyph glyph-name="asciicircum" unicode="^" horiz-adv-x="1279" 
d="M887 1004l-247 635l-244 -635h-282l411 1000h232l410 -1000h-280z" />
    <glyph glyph-name="asterisk" unicode="*" horiz-adv-x="1470" 
d="M278 1003l273 365l-426 132l73 227l428 -153l-11 460h245l-12 -463l424 151l75 -227l-431 -132l271 -362l-194 -139l-261 374l-260 -370z" />
    <glyph glyph-name="asterisk.case" horiz-adv-x="1557" 
d="M557 422l-189 109l234 380l-8 16l-447 -12v218l444 -12l8 16l-234 380l192 109l214 -392h16l213 392l192 -109l-230 -380l8 -16l440 12v-218l-445 12l-8 -16l232 -380l-189 -109l-213 388h-16z" />
    <glyph glyph-name="registered" unicode="&#xae;" horiz-adv-x="2303" 
d="M176 1004q0 218 76 404.5t211 327t311.5 218.5t377.5 78q202 0 379 -78t311.5 -218.5t210 -327t75.5 -404.5q0 -219 -75.5 -407t-210 -328t-311.5 -218.5t-379 -78.5q-201 0 -377.5 78.5t-311.5 218.5t-211 328t-76 407zM344 1004q0 -183 63 -339.5t174.5 -273.5
t258 -182t312.5 -65q168 0 314.5 65t257.5 182t173.5 273.5t62.5 339.5q0 182 -62.5 337.5t-173.5 272t-257.5 181.5t-314.5 65q-166 0 -312.5 -65t-258 -181.5t-174.5 -272t-63 -337.5zM1172 900h-216v-464h-208v1168h386q206 0 326 -89.5t120 -266.5q0 -163 -165 -249
q90 -41 125.5 -117.5t35.5 -173.5v-76q0 -110 24 -176v-20h-212q-15 33 -17.5 99.5t-2.5 96.5v76q0 96 -44 144t-152 48zM956 1420v-336h197q89 0 156 40.5t67 119.5q0 99 -54 137.5t-188 38.5h-178z" />
    <glyph glyph-name="trademark" unicode="&#x2122;" horiz-adv-x="1791" 
d="M1377 1261v513l-172 -513h-84l-172 515v-515h-150v743h185l178 -525l185 525h179v-743h-149zM696 2004v-130h-190v-611h-160v611h-192v130h542z" />
    <glyph glyph-name="servicemark" unicode="&#x2120;" horiz-adv-x="1791" 
d="M600 1461q0 38 -33 63.5t-130 46.5q-133 30 -201.5 80t-68.5 152q0 92 76.5 152t209.5 60q137 0 212.5 -61.5t75.5 -172.5h-150q0 50 -33.5 80t-104.5 30q-72 0 -104.5 -25t-32.5 -63t31.5 -61t138.5 -46q126 -32 195 -82.5t69 -150.5q0 -99 -80.5 -157t-221.5 -58
q-128 0 -218 57.5t-90 179.5h148q0 -65 49 -88t111 -23q80 0 116 24.5t36 62.5zM1274 1479l200 525h180v-743h-151v462l-187 -462h-84l-193 476v-476h-153v743h188z" />
    <glyph glyph-name="degree" unicode="&#xb0;" horiz-adv-x="1197" 
d="M600 1125q-122 0 -224 60t-163 161.5t-61 224.5q0 124 61 226t163 162.5t224 60.5q124 0 224.5 -60.5t160.5 -162.5t60 -226q0 -123 -60 -224.5t-160.5 -161.5t-224.5 -60zM600 1339q95 0 164 68.5t69 165.5t-69 166.5t-164 69.5t-165 -69.5t-70 -166.5q0 -96 70 -165
t165 -69z" />
    <glyph glyph-name="ordfeminine" unicode="&#xaa;" horiz-adv-x="1279" 
d="M840 971q-14 45 -22 95q-42 -46 -110.5 -80t-167.5 -34q-165 0 -254 85.5t-89 226.5q0 153 117 236t354 83h140v69q0 176 -160 176q-90 0 -140.5 -35t-50.5 -101l-237 19q0 139 116.5 230t311.5 91q180 0 290 -95.5t110 -284.5v-432q0 -67 7.5 -128t28.5 -121h-244z
M600 1151q56 0 113.5 25.5t94.5 60.5v186h-140q-120 0 -174 -46t-54 -106q0 -120 160 -120z" />
    <glyph glyph-name="ordmasculine" unicode="&#xba;" horiz-adv-x="1279" 
d="M164 1436v107q0 214 128.5 351.5t347.5 137.5q222 0 349 -137.5t127 -351.5v-107q0 -213 -126.5 -349t-345.5 -136q-222 0 -351 136t-129 349zM404 1543v-107q0 -123 60 -203.5t180 -80.5q117 0 174.5 80.5t57.5 203.5v107q0 121 -58 203t-178 82q-117 0 -176.5 -82
t-59.5 -203z" />
    <glyph glyph-name="isuperior" unicode="&#x2071;" horiz-adv-x="593" 
d="M141 2161q0 64 40.5 107.5t115.5 43.5q74 0 115 -43.5t41 -107.5q0 -63 -41 -104.5t-115 -41.5q-75 0 -115.5 41.5t-40.5 104.5zM436 1876v-1104h-270v1104h270z" />
    <glyph glyph-name="nsuperior" unicode="&#x207f;" horiz-adv-x="1279" 
d="M644 1789q-70 0 -116 -33.5t-71 -89.5v-769h-270v1102h209l43 -167q49 86 124.5 135t174.5 49q165 0 260.5 -99t95.5 -321v-699h-267v632q0 145 -49 202.5t-134 57.5z" />
    <glyph glyph-name="paragraph" unicode="&#xb6;" horiz-adv-x="1279" 
d="M1181 0h-288v716h-114q-219 0 -370 83.5t-228.5 229t-77.5 331.5q0 184 77.5 329.5t228.5 230t370 84.5h402v-2004z" />
    <glyph glyph-name="section" unicode="&#xa7;" horiz-adv-x="1572" 
d="M1305 1555h-283q0 109 -59 181.5t-185 72.5q-112 0 -172.5 -57t-60.5 -131q0 -85 68.5 -148t134.5 -98l382 -209q52 -28 124.5 -82t126 -143t47.5 -223q-4 -117 -87 -208t-178 -121l-2 -4q151 -133 151 -342q0 -152 -73.5 -254t-195 -153t-266.5 -51q-167 0 -295 64.5
t-201 183t-73 281.5h286q0 -128 80 -196t204 -66q97 2 173 48t76 143q0 100 -68.5 155t-133.5 91l-381 205q-52 28 -124.5 83t-126 145t-48.5 224q4 115 83.5 208.5t182.5 123.5v7q-67 67 -108 150t-41 186q0 131 66 234t182.5 162t267.5 59q160 0 278.5 -67t183.5 -184.5
t65 -269.5zM1160 709q3 73 -47.5 131.5t-127.5 99.5l-365 198q-40 22 -88 3t-83 -68.5t-36 -117.5q-3 -79 48.5 -135t129.5 -98l352 -191q37 -20 87.5 -1.5t89 65.5t40.5 114z" />
    <glyph glyph-name="copyright" unicode="&#xa9;" horiz-adv-x="2303" 
d="M176 1004q0 218 76 404.5t211 327t311.5 218.5t377.5 78q202 0 379 -78t311.5 -218.5t210 -327t75.5 -404.5q0 -219 -75.5 -407t-210 -328t-311.5 -218.5t-379 -78.5q-201 0 -377.5 78.5t-311.5 218.5t-211 328t-76 407zM344 1004q0 -183 63 -339.5t174.5 -273.5
t258 -182t312.5 -65q168 0 314.5 65t257.5 182t173.5 273.5t62.5 339.5q0 182 -62.5 337.5t-173.5 272t-257.5 181.5t-314.5 65q-166 0 -312.5 -65t-258 -181.5t-174.5 -272t-63 -337.5zM1380 820h216q0 -216 -125 -324t-337 -108q-220 0 -350 147.5t-130 384.5v164
q0 237 130 384.5t350 147.5q212 0 337 -108t125 -324h-214q0 132 -63 190t-185 58q-132 0 -199 -97.5t-67 -250.5v-164q0 -153 67 -250.5t199 -97.5q122 0 184 56.5t62 191.5z" />
    <glyph glyph-name="infinity" unicode="&#x221e;" horiz-adv-x="2644" 
d="M708 1448q170 0 297.5 -71t214.5 -157q29 -28 55 -57t49 -57q21 28 46 57t54 57q87 86 215.5 157t300.5 71q160 0 290.5 -78t208 -208.5t77.5 -289.5q0 -161 -77.5 -292.5t-208 -209t-290.5 -77.5q-172 0 -300 70.5t-214 153.5q-31 29 -56 59t-46 58q-23 -28 -49 -58
t-56 -59q-86 -83 -213.5 -153.5t-297.5 -70.5q-162 0 -293 77.5t-208.5 209t-77.5 292.5q0 159 77.5 289.5t208.5 208.5t293 78zM412 872q0 -124 86 -210t210 -86q92 0 169 41.5t145 105.5q40 40 70 77t54 72q-24 32 -53 68t-71 77q-65 64 -143.5 106t-170.5 42
q-124 0 -210 -86t-86 -207zM2233 872q0 121 -86 207t-207 86q-94 0 -173 -42t-144 -106q-41 -41 -71 -77t-54 -68q24 -35 54.5 -72t70.5 -77q67 -64 145 -105.5t172 -41.5q121 0 207 86t86 210z" />
    <glyph glyph-name="partialdiff" unicode="&#x2202;" horiz-adv-x="1791" 
d="M861 1413q115 0 219.5 -43.5t184.5 -127.5q-35 267 -171 425t-318 158q-107 0 -189 -18.5t-175 -53.5l-39 249q77 34 174 65t257 31q252 0 424.5 -138t261 -393t89.5 -606v-80q0 -257 -80.5 -462.5t-233.5 -326t-369 -120.5t-368 95.5t-232 260t-80 372.5v32
q0 195 75 349t219 243t351 89zM900 1149q-128 0 -206.5 -59t-115 -156.5t-36.5 -210.5v-31q0 -124 36 -227.5t114 -166t204 -62.5t203.5 74.5t113.5 201t36 280.5v120q-13 44 -52.5 99.5t-112 96.5t-184.5 41z" />
    <glyph glyph-name="summation" unicode="&#x2211;" horiz-adv-x="1873" 
d="M1308 837v-41l-736 -904h1156v-264h-1583v208l816 981l-816 976v211h1502v-265h-1074z" />
    <glyph glyph-name="product" unicode="&#x220f;" horiz-adv-x="2047" 
d="M1782 2004v-2319h-331v2058h-855v-2058h-331v2319h1517z" />
    <glyph glyph-name="integral" unicode="&#x222b;" horiz-adv-x="871" 
d="M572 -115q0 -247 -128 -366t-354 -119q-91 0 -176 23l22 257q24 -6 55.5 -11t57.5 -5q94 0 144.5 52t50.5 169v1749q0 248 135 377.5t371 129.5q52 0 103 -8t104 -21l-32 -248q-53 12 -127 12q-112 0 -169 -63t-57 -179v-1749z" />
    <glyph glyph-name="radical" unicode="&#x221a;" horiz-adv-x="1791" 
d="M131 801v265h489l222 -652l523 1590h297l-679 -2004h-265l-303 801h-284z" />
    <glyph glyph-name="lozenge" unicode="&#x25ca;" horiz-adv-x="1535" 
d="M105 1000l531 1004h262l535 -1004l-529 -1000h-266zM435 1000l337 -652l331 652l-337 654z" />
    <glyph glyph-name="fraction" unicode="&#x2044;" horiz-adv-x="1453" 
d="M1300 1716l-976 -1564l-170 97l976 1567z" />
    <glyph glyph-name="zerosub" unicode="&#x2080;" horiz-adv-x="1279" 
d="M1128 145v-207q0 -232 -114 -343.5t-297 -111.5q-188 0 -304 111.5t-116 343.5v207q0 230 115.5 342t300.5 112t300 -112t115 -342zM875 -78v240q0 124 -43 178t-119 54q-77 0 -119 -54t-42 -178v-240q0 -127 43 -180t122 -53q73 0 115.5 53t42.5 180z" />
    <glyph glyph-name="oneinferior" unicode="&#x2081;" horiz-adv-x="1023" 
d="M765 582v-1083h-250v786l-278 -67v201l504 163h24z" />
    <glyph glyph-name="twosub" unicode="&#x2082;" horiz-adv-x="1279" 
d="M1061 -296v-205h-841v171l395 365q86 74 121 133t35 98q0 58 -38.5 94.5t-108.5 36.5q-90 0 -132 -48t-42 -116h-254q0 149 111.5 257.5t305.5 108.5q195 0 303.5 -87.5t108.5 -245.5q0 -114 -72 -203t-208 -201l-197 -158h513z" />
    <glyph glyph-name="threesub" unicode="&#x2083;" horiz-adv-x="1279" 
d="M630 -37v177h119q88 0 130 37.5t42 96.5q0 50 -37 86.5t-123 36.5q-65 0 -110.5 -28t-45.5 -77h-253q0 147 119 227t284 80q188 0 304 -79t116 -230q0 -79 -48.5 -140t-135.5 -94q204 -57 204 -253q0 -152 -126 -236t-314 -84q-103 0 -199 34t-157.5 107.5t-61.5 190.5
h255q0 -52 47 -89t128 -37q89 0 131.5 39t42.5 95q0 77 -51.5 108.5t-140.5 31.5h-119z" />
    <glyph glyph-name="foursub" unicode="&#x2084;" horiz-adv-x="1279" 
d="M1074 -68v-206h-134v-227h-254v227h-494l-12 165l503 692h257v-651h134zM429 -68h257v332l-17 -27z" />
    <glyph glyph-name="fivesub" unicode="&#x2085;" horiz-adv-x="1279" 
d="M443 -23l-203 51l70 555h676v-202h-467l-28 -205q22 8 72.5 22t108.5 14q179 0 275.5 -92.5t96.5 -260.5q0 -97 -44.5 -183t-136 -139.5t-233.5 -53.5q-106 0 -200.5 38.5t-154 110t-62.5 171.5h252q5 -62 50 -88t115 -26q92 0 126.5 50t34.5 123q0 76 -46 123.5
t-136 47.5q-71 0 -107 -19t-59 -37z" />
    <glyph glyph-name="sixinferior" unicode="&#x2086;" horiz-adv-x="1279" 
d="M829 603h38v-210h-16q-165 0 -267 -58.5t-123 -207.5q43 41 104.5 68t140.5 27q171 0 259.5 -103.5t88.5 -258.5q0 -160 -114 -268.5t-303 -108.5q-194 0 -314 112.5t-120 327.5v71q0 304 171.5 456.5t454.5 152.5zM456 -111q0 -103 48 -151.5t128 -48.5q76 0 121.5 49.5
t45.5 120.5q0 76 -44.5 118.5t-124.5 42.5q-62 0 -107.5 -25t-66.5 -58v-48z" />
    <glyph glyph-name="sevensub" unicode="&#x2087;" horiz-adv-x="1279" 
d="M1194 583v-141l-467 -943h-267l467 882h-599v202h866z" />
    <glyph glyph-name="eightsub" unicode="&#x2088;" horiz-adv-x="1279" 
d="M1020 294q0 -78 -42 -139t-116 -98q84 -37 133 -103t49 -155q0 -157 -118 -236.5t-296 -79.5t-297.5 79.5t-119.5 236.5q0 90 49.5 155.5t133.5 103.5q-73 37 -115.5 97.5t-42.5 138.5q0 148 110.5 226.5t280.5 78.5q172 0 281.5 -78.5t109.5 -226.5zM767 279
q0 54 -35.5 86t-102.5 32q-64 0 -100.5 -32t-36.5 -86t37 -88.5t101 -34.5q66 0 101.5 34.5t35.5 88.5zM793 -180q0 64 -46 97t-118 33q-73 0 -117 -33t-44 -97q0 -60 44 -95.5t118 -35.5t118.5 35.5t44.5 95.5z" />
    <glyph glyph-name="nineinferior" unicode="&#x2089;" horiz-adv-x="1279" 
d="M537 -311h18q164 0 253.5 51.5t106.5 185.5q-42 -35 -97 -56.5t-118 -21.5q-172 0 -265.5 97t-93.5 266q0 105 51.5 193.5t145.5 141.5t219 53q185 0 300 -111.5t115 -332.5v-72q0 -312 -161 -455.5t-454 -143.5h-20v205zM596 210q0 -77 42 -124t127 -47q55 0 94.5 21.5
t59.5 49.5v95q0 99 -45 144t-117 45q-77 0 -119 -54t-42 -130z" />
    <glyph glyph-name="plussub" unicode="&#x208a;" horiz-adv-x="1279" 
d="M811 500v-384h350v-212h-350v-380h-219v380h-351v212h351v384h219z" />
    <glyph glyph-name="minussub" unicode="&#x208b;" horiz-adv-x="1279" 
d="M1161 116v-212h-827v212h827z" />
    <glyph glyph-name="equalsub" unicode="&#x208c;" horiz-adv-x="1279" 
d="M1041 316v-211h-827v211h827zM1041 -85v-211h-827v211h827z" />
    <glyph glyph-name="parenleftinferior" unicode="&#x208d;" horiz-adv-x="767" 
d="M143 28v23q0 215 65 374t156.5 258.5t170.5 137.5l91 -175q-50 -49 -100 -123.5t-83 -188t-33 -279.5v-27q0 -175 32.5 -288t82 -184.5t101.5 -121.5l-91 -167q-79 37 -170.5 135t-156.5 255t-65 371z" />
    <glyph glyph-name="parenrightsub" unicode="&#x208e;" horiz-adv-x="767" 
d="M626 67v-24q0 -218 -64.5 -378.5t-155 -260.5t-169.5 -137l-94 167q51 50 100.5 123.5t82 190t32.5 295.5v24q0 163 -32 275t-81.5 184.5t-101.5 119.5l94 175q79 -36 169.5 -133.5t155 -253.5t64.5 -367z" />
    <glyph glyph-name="zerosuperior" unicode="&#x2070;" horiz-adv-x="1279" 
d="M1128 1562v-207q0 -233 -114 -344t-297 -111q-188 0 -304 111t-116 344v207q0 230 115.5 342t300.5 112t300 -112t115 -342zM875 1339v240q0 124 -43 178t-119 54q-77 0 -119 -54t-42 -178v-240q0 -127 43 -180t122 -53q73 0 115.5 53t42.5 180z" />
    <glyph glyph-name="onesuperior" unicode="&#xb9;" horiz-adv-x="1023" 
d="M765 1999v-1083h-250v786l-278 -67v201l504 163h24z" />
    <glyph glyph-name="twosuperior" unicode="&#xb2;" horiz-adv-x="1279" 
d="M1186 1121v-205h-841v171l395 365q86 74 121 133t35 98q0 58 -38.5 94.5t-108.5 36.5q-90 0 -132 -48t-42 -116h-254q0 149 111.5 257.5t305.5 108.5q195 0 303.5 -88t108.5 -245q0 -114 -72 -203t-208 -201l-197 -158h513z" />
    <glyph glyph-name="threesuperior" unicode="&#xb3;" horiz-adv-x="1279" 
d="M589 1380v177h119q88 0 130 37.5t42 96.5q0 49 -37 86t-123 37q-65 0 -110.5 -28t-45.5 -77h-253q0 147 119 227t284 80q188 0 304 -79t116 -230q0 -79 -48.5 -140t-135.5 -94q204 -57 204 -253q0 -152 -126 -236t-314 -84q-103 0 -199 34t-157.5 107t-61.5 191h255
q0 -52 47 -89t128 -37q88 0 131 39t43 95q0 77 -51.5 108.5t-140.5 31.5h-119z" />
    <glyph glyph-name="foursuperior" unicode="&#x2074;" horiz-adv-x="1279" 
d="M1200 1349v-206h-134v-227h-254v227h-494l-12 165l503 692h257v-651h134zM555 1349h257v332l-17 -27z" />
    <glyph glyph-name="fivesuperior" unicode="&#x2075;" horiz-adv-x="1279" 
d="M558 1394l-203 51l70 555h676v-202h-467l-28 -205q22 8 72 22t109 14q179 0 275.5 -92.5t96.5 -260.5q0 -98 -44.5 -183.5t-136 -139t-233.5 -53.5q-106 0 -200.5 38.5t-154.5 110t-62 171.5h252q4 -62 49 -88t116 -26q91 0 126 50t35 123q0 77 -46 124t-136 47
q-71 0 -107 -19t-59 -37z" />
    <glyph glyph-name="sixsuperior" unicode="&#x2076;" horiz-adv-x="1279" 
d="M829 2020h38v-210h-16q-165 0 -267 -58.5t-123 -207.5q43 41 104.5 68t140.5 27q171 0 259.5 -103.5t88.5 -258.5q0 -160 -114 -268.5t-303 -108.5q-194 0 -314 113t-120 327v71q0 305 171.5 457t454.5 152zM456 1306q0 -103 48 -151.5t128 -48.5q76 0 121.5 49.5
t45.5 120.5q0 76 -44.5 118.5t-124.5 42.5q-62 0 -107.5 -25t-66.5 -58v-48z" />
    <glyph glyph-name="sevensuperior" unicode="&#x2077;" horiz-adv-x="1279" 
d="M1194 2000v-141l-467 -943h-267l467 882h-599v202h866z" />
    <glyph glyph-name="eightsuperior" unicode="&#x2078;" horiz-adv-x="1279" 
d="M1166 1216q0 -157 -118 -236.5t-296 -79.5t-297.5 79.5t-119.5 236.5q0 90 49.5 155.5t133.5 103.5q-73 37 -115.5 97.5t-42.5 138.5q0 149 110.5 227t280.5 78q172 0 281.5 -78t109.5 -227q0 -78 -42 -139t-116 -98q84 -37 133 -103t49 -155zM889 1696q0 54 -35.5 86
t-102.5 32q-64 0 -100.5 -32t-36.5 -86t37 -88.5t101 -34.5q66 0 101.5 34.5t35.5 88.5zM915 1237q0 65 -46 97.5t-118 32.5q-73 0 -117 -32.5t-44 -97.5q0 -60 44 -95.5t118 -35.5t118.5 35.5t44.5 95.5z" />
    <glyph glyph-name="ninesuperior" unicode="&#x2079;" horiz-adv-x="1279" 
d="M499 1106h18q164 0 253.5 51.5t106.5 185.5q-42 -35 -97 -56.5t-118 -21.5q-172 0 -265.5 96.5t-93.5 266.5q0 106 51.5 194t145.5 141t219 53q185 0 300 -111.5t115 -332.5v-72q0 -312 -161 -455.5t-454 -143.5h-20v205zM558 1627q0 -77 42 -124t127 -47q55 0 94.5 21.5
t59.5 49.5v95q0 99 -45 144t-117 45q-77 0 -119 -54t-42 -130z" />
    <glyph glyph-name="plussuperior" unicode="&#x207a;" horiz-adv-x="1279" 
d="M1100 1492v-212h-350v-380h-219v380h-351v212h351v384h219v-384h350z" />
    <glyph glyph-name="minussuperior" unicode="&#x207b;" horiz-adv-x="1279" 
d="M1055 1492v-212h-827v212h827z" />
    <glyph glyph-name="equalsuperior" unicode="&#x207c;" horiz-adv-x="1279" 
d="M1055 1692v-211h-827v211h827zM1055 1291v-211h-827v211h827z" />
    <glyph glyph-name="parenleftsuperior" unicode="&#x207d;" horiz-adv-x="767" 
d="M143 1350v24q0 227 65 394t156.5 271.5t170.5 143.5l91 -174q-50 -53 -100 -133t-83 -202t-33 -300v-24q0 -188 32.5 -310t82 -200t101.5 -130l-91 -169q-79 40 -170.5 144.5t-156.5 271t-65 393.5z" />
    <glyph glyph-name="parenrightsuperior" unicode="&#x207e;" horiz-adv-x="767" 
d="M626 1374v-24q0 -227 -64.5 -393.5t-155 -271t-169.5 -144.5l-94 169q51 52 100.5 130t82 200t32.5 310v24q0 178 -32 300t-81.5 202t-101.5 133l94 174q79 -39 169.5 -143.5t155 -271.5t64.5 -394z" />
    <glyph glyph-name="onehalf" unicode="&#xbd;" horiz-adv-x="2303" 
d="M738 1999v-1083h-250v786l-278 -67v201l504 163h24zM1662 1728l-976 -1564l-170 97l976 1567zM2197 205v-205h-841v171l395 365q86 74 121 133t35 98q0 58 -38.5 94.5t-108.5 36.5q-90 0 -132 -48t-42 -116h-254q0 149 111.5 257.5t305.5 108.5q195 0 303.5 -88
t108.5 -245q0 -114 -72 -203t-208 -201l-197 -158h513z" />
    <glyph glyph-name="onequarter" unicode="&#xbc;" horiz-adv-x="2221" 
d="M690 1995v-1083h-250v786l-278 -67v201l504 163h24zM1661 1728l-976 -1564l-170 97l976 1567zM2038 433v-206h-134v-227h-254v227h-494l-12 165l503 692h257v-651h134zM1393 433h257v332l-17 -27z" />
    <glyph glyph-name="threequarters" unicode="&#xbe;" horiz-adv-x="2303" 
d="M588 1380v177h119q88 0 130 37.5t42 96.5q0 49 -37 86t-123 37q-65 0 -110.5 -28t-45.5 -77h-253q0 147 119 227t284 80q188 0 304 -79t116 -230q0 -79 -48.5 -140t-135.5 -94q204 -57 204 -253q0 -152 -126 -236t-314 -84q-103 0 -199 34t-157.5 107t-61.5 191h255
q0 -52 47 -89t128 -37q89 0 131.5 39t42.5 95q0 77 -51.5 108.5t-140.5 31.5h-119zM1899 1728l-976 -1564l-170 97l976 1567zM2245 433v-206h-134v-227h-254v227h-494l-12 165l503 692h257v-651h134zM1600 433h257v332l-17 -27z" />
    <glyph glyph-name="percent" unicode="%" horiz-adv-x="2303" 
d="M228 1556v108q0 116 48.5 214t141 156.5t226.5 58.5q135 0 226.5 -58.5t138.5 -156.5t47 -214v-108q0 -116 -47.5 -213.5t-139.5 -155.5t-225 -58q-136 0 -228.5 58t-140 155.5t-47.5 213.5zM1990 2065l-1429 -2082h-272l1430 2082h271zM464 1664v-108q0 -86 40 -154.5
t140 -68.5q98 0 137 68.5t39 154.5v108q0 86 -37.5 155.5t-138.5 69.5q-98 0 -139 -69.5t-41 -155.5zM1248 384v108q0 116 48.5 214t141 156.5t226.5 58.5q135 0 226.5 -58.5t138.5 -156.5t47 -214v-108q0 -116 -47.5 -214t-139.5 -156.5t-225 -58.5q-136 0 -228.5 58.5
t-140 156.5t-47.5 214zM1484 492v-108q0 -86 40 -154.5t140 -68.5q98 0 137 68.5t39 154.5v108q0 86 -37.5 155.5t-138.5 69.5q-98 0 -139 -69.5t-41 -155.5z" />
    <glyph glyph-name="perthousand" unicode="&#x2030;" horiz-adv-x="2815" 
d="M164 1512v104q0 114 49.5 208.5t142 151t220.5 56.5q133 0 228 -56.5t146 -151t51 -208.5v-104q0 -112 -50.5 -205.5t-145 -150t-225.5 -56.5q-130 0 -223 56.5t-143 150t-50 205.5zM383 1616v-104q0 -83 48.5 -148.5t148.5 -65.5q96 0 143 65.5t47 148.5v104
q0 86 -48 152t-146 66q-97 0 -145 -66t-48 -152zM1654 1716l-977 -1564l-170 97l976 1567zM1182 384v108q0 112 51 205.5t146 150t228 56.5q104 0 183 -41.5t128 -111.5q51 70 130 111.5t183 41.5q133 0 228 -56.5t146 -150t51 -205.5v-108q0 -112 -50.5 -205.5t-145 -150
t-225.5 -56.5q-106 0 -186 42t-131 111q-49 -69 -128 -111t-183 -42q-133 0 -228 56.5t-146 150t-51 205.5zM1413 492v-108q0 -83 49.5 -148.5t144.5 -65.5q104 0 147 65.5t43 148.5v108q0 83 -47 148.5t-143 65.5q-100 0 -147 -65.5t-47 -148.5zM2037 492v-108
q0 -83 51 -148.5t147 -65.5q102 0 146 65.5t44 148.5v108q0 83 -48 148.5t-146 65.5q-97 0 -145.5 -65.5t-48.5 -148.5z" />
    <glyph glyph-name="numero" unicode="&#x2116;" horiz-adv-x="2815" 
d="M1722 1425v118q0 212 128.5 346.5t347.5 134.5q222 0 349 -134.5t127 -346.5v-118q0 -213 -126.5 -347t-346.5 -134q-221 0 -350 134t-129 347zM1529 2004v-2004h-362l-695 1432v-1432h-331v2004h363l698 -1438v1438h327zM1962 1543v-118q0 -122 58.5 -201.5t180.5 -79.5
q118 0 175.5 79.5t57.5 201.5v118q0 120 -58 198.5t-178 78.5t-178 -78.5t-58 -198.5zM2615 772v-203h-840v203h840z" />
    <glyph glyph-name="acute" unicode="&#xb4;" horiz-adv-x="860" 
d="M178 1696l250 416h317l-331 -416h-236z" />
    <glyph glyph-name="hungarumlaut" unicode="&#x2dd;" horiz-adv-x="1127" 
d="M554 1692l308 420h299l-364 -420h-243zM108 1692l238 420h296l-305 -420h-229z" />
    <glyph glyph-name="grave" unicode="`" horiz-adv-x="849" 
d="M465 2112l269 -416h-276l-370 416h377z" />
    <glyph glyph-name="tonos" unicode="&#x384;" horiz-adv-x="849" 
d="M201 1627l82 471h302l-188 -471h-196z" />
    <glyph glyph-name="dieresis" unicode="&#xa8;" horiz-adv-x="1540" 
d="M486 1742q-70 0 -120.5 49.5t-50.5 116.5q0 72 50.5 120t120.5 48q74 0 122 -48t48 -120q0 -67 -48 -116.5t-122 -49.5zM1056 1742q-71 0 -121.5 49.5t-50.5 116.5q0 72 50.5 120t121.5 48q74 0 122 -48t48 -120q0 -67 -48 -116.5t-122 -49.5z" />
    <glyph glyph-name="circumflex" unicode="&#x2c6;" horiz-adv-x="1383" 
d="M463 1792h-252v15l388 381h184l390 -381v-15h-251l-230 222z" />
    <glyph glyph-name="tilde" unicode="&#x2dc;" horiz-adv-x="1279" 
d="M941 2108l202 -16q0 -154 -88 -253t-220 -99q-90 0 -144 31t-102.5 62t-122.5 31q-53 0 -88.5 -40t-35.5 -103l-206 10q0 151 88 254t220 103q74 0 131 -31t112.5 -61.5t125.5 -30.5q53 0 90.5 40t37.5 103z" />
    <glyph glyph-name="macron" unicode="&#xaf;" horiz-adv-x="1361" 
d="M1154 1993v-214h-944v214h944z" />
    <glyph glyph-name="breve" unicode="&#x2d8;" horiz-adv-x="1279" 
d="M834 2075h249q0 -169 -119.5 -277.5t-323.5 -108.5q-202 0 -320.5 108.5t-118.5 277.5h247q0 -75 43.5 -132t148.5 -57t149.5 57t44.5 132z" />
    <glyph glyph-name="dotaccent" unicode="&#x2d9;" horiz-adv-x="767" 
d="M207 1912q0 73 46 121.5t131 48.5t132 -48.5t47 -121.5q0 -70 -47 -117t-132 -47t-131 47t-46 117z" />
    <glyph glyph-name="ring" unicode="&#x2da;" horiz-adv-x="936" 
d="M122 1979q0 89 45.5 164t124 120t176.5 45t176 -45t123 -120t45 -164q0 -135 -98.5 -227t-245.5 -92t-246.5 92t-99.5 227zM292 1979q0 -68 49 -121t127 -53t127.5 53t49.5 121q0 70 -49.5 124.5t-127.5 54.5t-127 -54.5t-49 -124.5z" />
    <glyph glyph-name="caron" unicode="&#x2c7;" horiz-adv-x="1383" 
d="M464 2048l229 -222l230 222h251v-15l-390 -381h-184l-388 381v15h252z" />
    <glyph glyph-name="dieresistonos" unicode="&#x385;" horiz-adv-x="1535" 
d="M657 1944l67 406h309l-173 -406h-203zM186 1879q0 67 46 114.5t125 47.5q80 0 127.5 -47.5t47.5 -114.5t-47.5 -113t-127.5 -46q-79 0 -125 46t-46 113zM1005 1876q0 70 46.5 117.5t127.5 47.5q80 0 126.5 -47.5t46.5 -117.5q0 -67 -46.5 -112.5t-126.5 -45.5
q-81 0 -127.5 45.5t-46.5 112.5z" />
    <glyph glyph-name="cedilla" unicode="&#xb8;" horiz-adv-x="849" 
d="M285 5h238l-16 -77q77 -12 142 -65.5t65 -170.5q0 -136 -113 -221.5t-333 -85.5l-9 188q82 0 135.5 27.5t53.5 92.5t-49 88t-158 31z" />
    <glyph glyph-name="ogonek" unicode="&#x2db;" horiz-adv-x="767" 
d="M465 84l150 -84q-95 -63 -159 -128.5t-64 -148.5q0 -43 21.5 -68.5t77.5 -25.5q42 0 72.5 11.5t50.5 21.5l28 -193q-34 -21 -88 -40.5t-137 -19.5q-122 0 -206 69.5t-84 203.5q0 107 75 211.5t263 190.5z" />
    <glyph glyph-name="commaaccent" unicode="&#xf6c3;" horiz-adv-x="685" 
d="M503 387v-158q-2 -143 -43.5 -295t-127.5 -265l-208 63q48 112 80.5 234t32.5 252v169h266z" />
    <glyph glyph-name="acutecomb" unicode="&#x301;" 
d="M-926 1697l268 415h376l-381 -415h-263z" />
    <glyph glyph-name="acutedblnosp" unicode="&#x30b;" 
d="M-1407 1696l250 416h317l-331 -416h-236zM-813 1696l250 416h317l-331 -416h-236z" />
    <glyph glyph-name="gravecomb" unicode="&#x300;" 
d="M-836 2112l269 -415h-274l-371 415h376z" />
    <glyph glyph-name="dblgravecmb" unicode="&#x30f;" 
d="M-694 1722h-283l-412 365h358zM-285 1722h-263l-337 365h339z" />
    <glyph glyph-name="macroncomb" unicode="&#x304;" 
d="M-332 1993v-216h-944v216h944z" />
    <glyph glyph-name="dieresisnosp" unicode="&#x308;" 
d="M-1121 1742q-71 0 -121 49.5t-50 116.5q0 72 50 120t121 48q74 0 122 -48t48 -120q0 -67 -48 -116.5t-122 -49.5zM-551 1742q-71 0 -121.5 49.5t-50.5 116.5q0 72 50.5 120t121.5 48q73 0 121.5 -48t48.5 -120q0 -67 -48.5 -116.5t-121.5 -49.5z" />
    <glyph glyph-name="brevenosp" unicode="&#x306;" 
d="M-611 2076h248q0 -171 -118.5 -279t-322.5 -108q-203 0 -322 108t-119 279h248q0 -76 43.5 -134t149.5 -58q105 0 149 58t44 134z" />
    <glyph glyph-name="breveinvnosp" unicode="&#x311;" 
d="M-361 1615h-250q0 77 -43.5 134.5t-147.5 57.5q-106 0 -150 -57.5t-44 -134.5h-248q0 171 118.5 279t323.5 108q203 0 322 -108t119 -279z" />
    <glyph glyph-name="hook" unicode="&#x309;" 
d="M-702 1724h-240l-10 202q100 5 146 25.5t46 68.5q0 56 -60 77.5t-148 21.5l9 168q229 0 347 -72t118 -193q0 -100 -65 -146.5t-142 -57.5z" />
    <glyph glyph-name="circumflexnosp" unicode="&#x302;" 
d="M-1036 1792h-252v15l388 381h184l390 -381v-15h-251l-230 222z" />
    <glyph glyph-name="caroncmb" unicode="&#x30c;" 
d="M-710 1718h-194l-369 378v18h261l204 -216l207 216h264v-15z" />
    <glyph glyph-name="tildecomb" unicode="&#x303;" 
d="M-477 2108l202 -16q0 -154 -88 -253t-220 -99q-90 0 -144 31t-102.5 62t-122.5 31q-53 0 -88.5 -40t-35.5 -103l-206 10q0 151 88 254t220 103q74 0 131 -31t112.5 -61.5t125.5 -30.5q53 0 90.5 40t37.5 103z" />
    <glyph glyph-name="dotnosp" unicode="&#x307;" 
d="M-990 1875q0 75 49 125.5t137 50.5q89 0 138.5 -50.5t49.5 -125.5q0 -74 -49.5 -124t-138.5 -50q-88 0 -137 50t-49 124z" />
    <glyph glyph-name="ringnosp" unicode="&#x30a;" 
d="M-1150 2023q0 89 45.5 164t124 120t176.5 45t176 -45t123 -120t45 -164q0 -135 -98.5 -227t-245.5 -92t-246.5 92t-99.5 227zM-980 2023q0 -68 49 -121t127 -53t127.5 53t49.5 121q0 70 -49.5 124.5t-127.5 54.5t-127 -54.5t-49 -124.5z" />
    <glyph glyph-name="hornnosp" unicode="&#x31b;" 
d="M-139 2162v-89q0 -265 -69 -438t-182 -270l-173 106q41 75 69 154.5t41.5 204t13.5 332.5h300z" />
    <glyph glyph-name="ogoneknosp" unicode="&#x328;" 
d="M-776 83l134 -83q-94 -62 -158.5 -128t-64.5 -149q0 -42 22 -67.5t76 -25.5q42 0 73.5 11t51.5 21l27 -193q-34 -21 -88 -41t-138 -20q-121 0 -205 70t-84 206q0 107 83 211t271 188z" />
    <glyph glyph-name="cedillanosp" unicode="&#x327;" 
d="M-955 4h239l-16 -74q77 -14 142 -67t65 -171q0 -137 -113.5 -221.5t-333.5 -84.5l-9 186q81 0 135.5 28.5t54.5 94.5q0 62 -49.5 86t-158.5 32z" />
    <glyph glyph-name="circumflexsubnosp" unicode="&#x32d;" 
d="M-1021 -512h-252v15l388 381h184l390 -381v-15h-251l-230 222z" />
    <glyph glyph-name="brevesubnosp" unicode="&#x32e;" 
d="M-611 -126h249q0 -170 -118.5 -278.5t-322.5 -108.5t-323 108.5t-119 278.5h248q0 -76 43.5 -133.5t150.5 -57.5q105 0 148.5 57.5t43.5 133.5z" />
    <glyph glyph-name="dotbelow" unicode="&#x323;" 
d="M-1016 -333q0 71 49 120t137 49t137.5 -49t49.5 -120t-49.5 -119t-137.5 -48t-137 48t-49 119z" />
    <glyph glyph-name="commabelowcmb" unicode="&#x326;" 
d="M-608 -199v-102q0 -116 -54 -245.5t-151 -214.5l-174 105q50 76 77 158t27 186v113h275z" />
    <glyph glyph-name="dotdblsubnosp" unicode="&#x324;" 
d="M-1403 -333q0 68 46.5 115.5t125.5 47.5q81 0 127.5 -47.5t46.5 -115.5q0 -67 -46.5 -114t-127.5 -47q-79 0 -125.5 47t-46.5 114zM-777 -335q0 68 46 115.5t126 47.5t126.5 -47.5t46.5 -115.5q0 -67 -46.5 -114t-126.5 -47t-126 47t-46 114z" />
    <glyph glyph-name="ringsubnosp" unicode="&#x325;" 
d="M-1149 -279q0 89 45.5 164t124 120t176.5 45t176 -45t123 -120t45 -164q0 -135 -98.5 -227t-245.5 -92t-246.5 92t-99.5 227zM-979 -279q0 -68 49 -121t127 -53t127.5 53t49.5 121q0 70 -49.5 124.5t-127.5 54.5t-127 -54.5t-49 -124.5z" />
    <glyph glyph-name="underscorenosp" unicode="&#x332;" 
d="M-162 -202v-260h-1269v260h1269z" />
    <glyph glyph-name="tildesubnosp" unicode="&#x330;" 
d="M-543 -138l202 -16q0 -154 -88 -253t-220 -99q-90 0 -144 31t-102.5 62t-122.5 31q-53 0 -88.5 -40t-35.5 -103l-206 10q0 151 88 254t220 103q74 0 131 -31t112.5 -61.5t125.5 -30.5q53 0 90.5 40t37.5 103z" />
    <glyph glyph-name="enquad" unicode="&#x2000;" horiz-adv-x="1546" 
 />
    <glyph glyph-name="emquad" unicode="&#x2001;" horiz-adv-x="3082" 
 />
    <glyph glyph-name="enspace" unicode="&#x2002;" horiz-adv-x="1449" 
 />
    <glyph glyph-name="emspace" unicode="&#x2003;" horiz-adv-x="2898" 
 />
    <glyph glyph-name="thirdemspace" unicode="&#x2004;" horiz-adv-x="967" 
 />
    <glyph glyph-name="quarteremspace" unicode="&#x2005;" horiz-adv-x="724" 
 />
    <glyph glyph-name="sixthemspace" unicode="&#x2006;" horiz-adv-x="482" 
 />
    <glyph glyph-name="figurespace" unicode="&#x2007;" horiz-adv-x="1721" 
 />
    <glyph glyph-name="punctuationspace" unicode="&#x2008;" horiz-adv-x="861" 
 />
    <glyph glyph-name="thinspace" unicode="&#x2009;" horiz-adv-x="629" 
 />
    <glyph glyph-name="hairspace" unicode="&#x200a;" horiz-adv-x="512" 
 />
    <glyph glyph-name="zerowidthspace" unicode="&#x200b;" 
 />
    <glyph glyph-name="arrowleft" unicode="&#x2190;" horiz-adv-x="2755" 
d="M2402 743h-1561v-16l565 -565l-179 -179l-892 893l892 892l179 -179l-565 -565v-16h1561v-265z" />
    <glyph glyph-name="arrowleft.case" horiz-adv-x="2755" 
d="M2402 891h-1561v-16l565 -565l-179 -179l-892 893l892 892l179 -179l-565 -565v-16h1561v-265z" />
    <glyph glyph-name="arrowleftlong" unicode="&#x27f5;" horiz-adv-x="3861" 
d="M3508 743h-2667v-16l565 -565l-179 -179l-892 893l892 892l179 -179l-565 -565v-16h2667v-265z" />
    <glyph glyph-name="arrowleftlong.case" horiz-adv-x="3861" 
d="M3508 891h-2667v-16l565 -565l-179 -179l-892 893l892 892l179 -179l-565 -565v-16h2667v-265z" />
    <glyph glyph-name="arrowup" unicode="&#x2191;" horiz-adv-x="2581" 
d="M1158 0v1560h-16l-562 -562l-182 177l893 892l892 -892l-179 -177l-565 562h-16v-1560h-265z" />
    <glyph glyph-name="arrowright" unicode="&#x2192;" horiz-adv-x="2755" 
d="M332 1008h1561v16l-565 565l179 179l892 -893l-892 -892l-179 179l565 565v16h-1561v265z" />
    <glyph glyph-name="arrowright.case" horiz-adv-x="2755" 
d="M332 1156h1561v16l-565 565l179 179l892 -893l-892 -892l-179 179l565 565v16h-1561v265z" />
    <glyph glyph-name="arrowrightlong" unicode="&#x27f6;" horiz-adv-x="3861" 
d="M332 743v265h2667v16l-565 565l179 179l892 -892l-892 -893l-179 179l565 565v16h-2667z" />
    <glyph glyph-name="arrowrightlong.case" horiz-adv-x="3861" 
d="M332 891v265h2667v16l-565 565l179 179l892 -892l-892 -893l-179 179l565 565v16h-2667z" />
    <glyph glyph-name="arrowdown" unicode="&#x2193;" horiz-adv-x="2581" 
d="M1158 2048h265v-1560h16l565 562l179 -177l-892 -892l-893 892l182 177l562 -562h16v1560z" />
    <glyph glyph-name="arrowNW" unicode="&#x2196;" horiz-adv-x="2581" 
d="M1891 494l-1102 1102l-12 -12v-799h-254v1263h1262v-254h-799l-12 -12l1103 -1103z" />
    <glyph glyph-name="arrowNE" unicode="&#x2197;" horiz-adv-x="2581" 
d="M669 494l-186 185l1103 1103l-12 12h-799v254h1262v-1263h-254v799l-12 12z" />
    <glyph glyph-name="arrowSE" unicode="&#x2198;" horiz-adv-x="2581" 
d="M669 1554l1102 -1102l12 12v799h254v-1263h-1262v254h799l12 12l-1103 1103z" />
    <glyph glyph-name="arrowSW" unicode="&#x2199;" horiz-adv-x="2581" 
d="M1891 1554l186 -185l-1103 -1103l12 -12h799v-254h-1262v1263h254v-799l12 -12z" />
    <glyph glyph-name="dngb_check" unicode="&#x2713;" horiz-adv-x="2528" 
d="M2310 1511l-1348 -1341l-745 741l194 194l551 -544l1154 1146z" />
    <glyph glyph-name="dngb_ballotx" unicode="&#x2717;" horiz-adv-x="1826" 
d="M416 172l-185 186l498 506l-509 517l185 187l508 -517l508 517l185 -187l-509 -517l498 -506l-185 -186l-497 505z" />
    <glyph glyph-name="triagrt" unicode="&#x25ba;" horiz-adv-x="2581" 
d="M267 -256v2560l2176 -1280z" />
    <glyph glyph-name="triagdn" unicode="&#x25bc;" horiz-adv-x="2843" 
d="M141 2048h2560l-1280 -2176z" />
    <glyph glyph-name="triagup" unicode="&#x25b2;" horiz-adv-x="2843" 
d="M141 0l1280 2176l1280 -2176h-2560z" />
    <glyph glyph-name="blackleftpointingtriangle" unicode="&#x25c0;" horiz-adv-x="2581" 
d="M2315 -256l-2176 1280l2176 1280v-2560z" />
    <glyph glyph-name="uni2009.fra" horiz-adv-x="522" 
 />
    <glyph glyph-name="overscoredblnosp" unicode="&#x33f;" 
d="M-172 2636v-216h-1263v216h1263zM-172 2267v-216h-1262v216h1262z" />
    <glyph glyph-name="uni215A" unicode="&#x215a;" horiz-adv-x="2559" 
d="M530 1390l-203 51l70 555h676v-202h-467l-28 -205q22 8 72 22t109 14q179 0 275.5 -92.5t96.5 -260.5q0 -98 -44.5 -183.5t-136 -139t-233.5 -53.5q-106 0 -200.5 38.5t-154.5 110t-62 171.5h252q4 -62 49 -88t116 -26q91 0 126 50t35 123q0 77 -46 124t-136 47
q-71 0 -107 -19t-59 -37zM1934 1716l-976 -1564l-170 97l976 1567zM2238 1104h38v-210h-16q-165 0 -267 -58.5t-123 -207.5q43 41 104.5 68t140.5 27q171 0 259.5 -103.5t88.5 -258.5q0 -160 -114 -268.5t-303 -108.5q-194 0 -314 113t-120 327v71q0 305 171.5 457
t454.5 152zM1865 390q0 -103 48 -151.5t128 -48.5q76 0 121.5 49.5t45.5 120.5q0 76 -44.5 118.5t-124.5 42.5q-62 0 -107.5 -25t-66.5 -58v-48z" />
    <glyph glyph-name="uni215F" unicode="&#x215f;" horiz-adv-x="1791" 
d="M753 1995v-1083h-250v786l-278 -67v201l504 163h24zM1707 1716l-976 -1564l-170 97l976 1567z" />
    <glyph glyph-name="macronacutecomb" 
d="M-914 1976l175 265h267l-250 -265h-192zM-331 1886v-217h-943v217h943z" />
    <glyph glyph-name="crossbar" horiz-adv-x="1279" 
d="M1100 1116v-209h-916v209h916z" />
    <glyph glyph-name="uni006A.ccmp" horiz-adv-x="740" 
d="M324 1536h308v-1628q0 -234 -129.5 -361t-363.5 -127h-86v265h61q116 0 163 61.5t47 164.5v1625z" />
    <glyph glyph-name="acutedotcomb.lc" 
d="M-968 2397q0 71 46.5 119.5t131.5 48.5t132 -48.5t47 -119.5t-47 -119t-132 -48t-131.5 48t-46.5 119zM-957 1697l268 415h376l-380 -415h-264z" />
    <glyph glyph-name="tildedieresiscomb.lc" 
d="M-1286 2344q0 68 45.5 115.5t126.5 47.5q80 0 126.5 -47.5t46.5 -115.5t-46.5 -114t-126.5 -46q-81 0 -126.5 46t-45.5 114zM-661 2342q0 68 46 115.5t126 47.5t126.5 -47.5t46.5 -115.5q0 -67 -46.5 -113.5t-126.5 -46.5t-126 46.5t-46 113.5zM-503 2097l203 -17
q0 -154 -88 -253t-219 -99q-91 0 -145 31t-103 62t-123 31q-52 0 -88.5 -40t-36.5 -103l-203 11q0 152 87.5 254.5t218.5 102.5q74 0 131 -31t113 -62t126 -31q53 0 90 39.5t37 104.5z" />
    <glyph glyph-name="underscoredbl" unicode="&#x2017;" horiz-adv-x="1285" 
d="M1277 0v-216h-1269v216h1269zM1277 -357v-215h-1269v215h1269z" />
    <glyph glyph-name="uni2151" unicode="&#x2151;" horiz-adv-x="2477" 
d="M831 1995v-1083h-250v786l-278 -67v201l504 163h24zM1782 1716l-976 -1564l-170 97l976 1567zM1717 190h18q164 0 253.5 51.5t106.5 185.5q-42 -35 -97 -56.5t-118 -21.5q-172 0 -265.5 96.5t-93.5 266.5q0 106 51.5 194t145.5 141t219 53q185 0 300 -111.5t115 -332.5
v-72q0 -312 -161 -455.5t-454 -143.5h-20v205zM1776 711q0 -77 42 -124t127 -47q55 0 94.5 21.5t59.5 49.5v95q0 99 -45 144t-117 45q-77 0 -119 -54t-42 -130z" />
    <glyph glyph-name="uni2150" unicode="&#x2150;" horiz-adv-x="2559" 
d="M798 1995v-1083h-250v786l-278 -67v201l504 163h24zM1750 1716l-976 -1564l-170 97l976 1567zM2471 1084v-141l-467 -943h-267l467 882h-599v202h866z" />
    <glyph glyph-name="uni2152" unicode="&#x2152;" horiz-adv-x="3071" 
d="M796 1995v-1083h-250v786l-278 -67v201l504 163h24zM1749 1716l-976 -1564l-170 97l976 1567zM2974 646v-207q0 -233 -114 -344t-297 -111q-188 0 -304 111t-116 344v207q0 230 115.5 342t300.5 112t300 -112t115 -342zM1947 1083v-1083h-250v786l-278 -67v201l504 163
h24zM2721 423v240q0 124 -43 178t-119 54q-77 0 -119 -54t-42 -178v-240q0 -127 43 -180t122 -53q73 0 115.5 53t42.5 180z" />
    <glyph glyph-name="uni2155" unicode="&#x2155;" horiz-adv-x="2385" 
d="M773 1995v-1083h-250v786l-278 -67v201l504 163h24zM1725 1716l-976 -1564l-170 97l976 1567zM1704 478l-203 51l70 555h676v-202h-467l-28 -205q22 8 72 22t109 14q179 0 275.5 -92.5t96.5 -260.5q0 -98 -44.5 -183.5t-136 -139t-233.5 -53.5q-106 0 -200.5 38.5
t-154.5 110t-62 171.5h252q4 -62 49 -88t116 -26q91 0 126 50t35 123q0 77 -46 124t-136 47q-71 0 -107 -19t-59 -37z" />
    <glyph glyph-name="romanone" unicode="&#x2160;" horiz-adv-x="747" 
d="M532 2048v-2048h-317v2048h317z" />
    <glyph glyph-name="uni2157" unicode="&#x2157;" horiz-adv-x="2559" 
d="M560 1376v177h119q88 0 130 37.5t42 96.5q0 49 -37 86t-123 37q-65 0 -110.5 -28t-45.5 -77h-253q0 147 119 227t284 80q188 0 304 -79t116 -230q0 -79 -48.5 -140t-135.5 -94q204 -57 204 -253q0 -152 -126 -236t-314 -84q-103 0 -199 34t-157.5 107t-61.5 191h255
q0 -52 47 -89t128 -37q89 0 131.5 39t42.5 95q0 77 -51.5 108.5t-140.5 31.5h-119zM1882 1716l-976 -1564l-170 97l976 1567zM1920 478l-203 51l70 555h676v-202h-467l-28 -205q22 8 72 22t109 14q179 0 275.5 -92.5t96.5 -260.5q0 -98 -44.5 -183.5t-136 -139t-233.5 -53.5
q-106 0 -200.5 38.5t-154.5 110t-62 171.5h252q4 -62 49 -88t116 -26q91 0 126 50t35 123q0 77 -46 124t-136 47q-71 0 -107 -19t-59 -37z" />
    <glyph glyph-name="uni2156" unicode="&#x2156;" horiz-adv-x="2733" 
d="M1173 1117v-205h-841v171l395 365q86 74 121 133t35 98q0 58 -38.5 94.5t-108.5 36.5q-90 0 -132 -48t-42 -116h-254q0 149 111.5 257.5t305.5 108.5q195 0 303.5 -88t108.5 -245q0 -114 -72 -203t-208 -201l-197 -158h513zM2062 1716l-976 -1564l-170 97l976 1567z
M2042 478l-203 51l70 555h676v-202h-467l-28 -205q22 8 72 22t109 14q179 0 275.5 -92.5t96.5 -260.5q0 -98 -44.5 -183.5t-136 -139t-233.5 -53.5q-106 0 -200.5 38.5t-154.5 110t-62 171.5h252q4 -62 49 -88t116 -26q91 0 126 50t35 123q0 77 -46 124t-136 47
q-71 0 -107 -19t-59 -37z" />
    <glyph glyph-name="estimated" unicode="&#x212e;" horiz-adv-x="1791" 
d="M1424 272v-144q-114 -72 -243.5 -114t-264.5 -42q-150 0 -280.5 60.5t-229 166.5t-154.5 246t-56 299t61 299t164 246t231.5 166.5t263.5 60.5q188 0 342.5 -97t246 -265t91.5 -382v-64h-1056v-452q76 -69 172.5 -110.5t203.5 -41.5q129 0 257 40.5t251 127.5zM916 1388
q-102 0 -199.5 -46.5t-176.5 -121.5v-384h744v396q-72 72 -167.5 114t-200.5 42z" />
    <glyph glyph-name="degreecentigrade" unicode="&#x2103;" horiz-adv-x="3032" 
d="M2890 1407l-312 -21q-45 196 -190.5 297.5t-330.5 101.5q-169 0 -302.5 -85t-211 -254.5t-77.5 -422.5t77.5 -422t211 -253.5t302.5 -84.5q185 0 329 100t189 295l313 -21q-44 -211 -162.5 -359.5t-291 -227t-377.5 -78.5q-261 0 -465.5 126.5t-321.5 362t-117 562.5
t117 563t321.5 363t465.5 127q205 0 378 -79t292 -228.5t163 -361.5zM585 1125q-122 0 -224 60t-163 161.5t-61 224.5q0 124 61 226t163 162.5t224 60.5q123 0 224 -60.5t161 -162.5t60 -226q0 -123 -60 -224.5t-161 -161.5t-224 -60zM585 1339q95 0 164 68.5t69 165.5
t-69 166.5t-164 69.5t-165 -69.5t-70 -166.5q0 -96 70 -165t165 -69z" />
    <glyph glyph-name="dieresisacutecomb.lc" 
d="M-970 2109l267 415h377l-381 -415h-263zM-1286 1879q0 68 45.5 115t126.5 47q80 0 126.5 -47t46.5 -115q0 -67 -46.5 -114t-126.5 -47q-81 0 -126.5 47t-45.5 114zM-661 1877q0 68 46 115.5t126 47.5t126.5 -47.5t46.5 -115.5q0 -67 -46.5 -114t-126.5 -47t-126 47
t-46 114z" />
    <glyph glyph-name="carondotcomb.lc" 
d="M-982 2373q0 73 46.5 121t131.5 48q86 0 132.5 -48t46.5 -121q0 -71 -46.5 -118.5t-132.5 -47.5q-85 0 -131.5 47.5t-46.5 118.5zM-1006 2114l202 -214l201 214h281v-14l-380 -382h-203l-379 383v13h278z" />
    <glyph glyph-name="aturn_uni02DE" horiz-adv-x="2325" 
d="M568 1528v-191h14q26 49 79.5 101t139.5 87.5t208 35.5q141 0 257.5 -54.5t185.5 -159.5t69 -254q0 -41 -6 -79l503 103q20 -122 35 -204.5t49.5 -124t110.5 -41.5q17 0 38.5 4.5t37.5 7.5l49 -237q-85 -41 -190 -41q-110 0 -173.5 49.5t-99 130.5t-61.5 174l-315 -65
l-2 172q-55 -156 -215 -224.5t-367 -90.5q-88 -11 -165.5 -18.5t-126 -27t-48.5 -65.5v-13q0 -149 76.5 -213.5t197.5 -64.5q142 0 228 64.5t116 145.5l291 -67q-48 -141 -145 -228t-223 -127.5t-265 -40.5q-93 0 -194.5 22t-190.5 79.5t-144.5 162.5t-55.5 271v1021h302z
M575 992v-209q17 20 80 35t134.5 24.5t114.5 15.5q138 17 226.5 69t88.5 171q0 104 -76.5 158.5t-196.5 54.5q-172 0 -271.5 -97.5t-99.5 -221.5z" />
    <glyph glyph-name="uni1FFD" unicode="&#x1ffd;" horiz-adv-x="767" 
d="M164 1589l152 439h290v-28l-316 -440h-126v29z" />
    <glyph glyph-name="uni1FFE" unicode="&#x1ffe;" horiz-adv-x="767" 
d="M208 1936v120h242v-112q0 -178 110 -285l-111 -99q-111 59 -176 156t-65 220z" />
    <glyph glyph-name="oopen" unicode="&#x254;" horiz-adv-x="1535" 
d="M127 491h310q8 -110 92 -182t207 -72q139 0 214 70.5t103.5 181t28.5 231.5v48q0 120 -29.5 231t-104.5 182t-212 71q-138 0 -214.5 -87.5t-84.5 -206.5h-310q5 162 82 288t211 198t313 72q229 0 378.5 -102.5t223.5 -272.5t74 -373v-48q0 -204 -74 -374t-224 -272
t-379 -102q-164 0 -299.5 70.5t-218 188.5t-87.5 260z" />
    <glyph glyph-name="Gsmallcaphook" unicode="&#x29b;" horiz-adv-x="1909" 
d="M1583 778v-559q-41 -50 -122 -107.5t-212 -98t-322 -40.5q-215 0 -378.5 84t-255.5 233.5t-92 345.5v224q0 194 91.5 342t252.5 231t369 83q147 0 260.5 -32t194.5 -91q82 224 345 224q72 0 150 -21v-220q-21 3 -43.5 6.5t-42.5 3.5q-90 0 -144.5 -44.5t-54.5 -162.5
v-176h-312q-39 253 -353 253q-116 0 -207.5 -52t-144.5 -141t-53 -202v-225q0 -171 115.5 -285t302.5 -114q150 0 239 33.5t123 59.5v205h-355v243h649z" />
    <glyph glyph-name="uni0346" unicode="&#x346;" 
d="M-327 1674h-230v341h-494v-341h-230v539h954v-539z" />
    <glyph glyph-name="anglesupnosp" unicode="&#x31a;" 
d="M-362 1764v319h-707v198h936v-517h-229z" />
    <glyph glyph-name="ringacute" horiz-adv-x="1023" 
d="M336 2048l223 266h311l-334 -266h-200zM156 1743q0 105 75 175t181 70q105 0 179 -70t74 -175q0 -104 -74 -170t-179 -66q-106 0 -181 66t-75 170zM291 1743q0 -50 35.5 -83t85.5 -33t82.5 33t32.5 83q0 55 -32.5 89.5t-82.5 34.5t-85.5 -34.5t-35.5 -89.5z" />
    <glyph glyph-name="uni1DD8" unicode="&#x1dd8;" 
d="M-963 2585l63 150q126 -31 233.5 -117.5t173.5 -217t66 -291.5v-61q0 -121 -50.5 -213t-136 -144t-189.5 -52q-161 0 -266 100.5t-105 243.5q0 160 101 257.5t255 97.5q89 0 167 -47q-42 123 -130 193.5t-182 100.5zM-978 1983q0 -79 44.5 -132t131.5 -53
q83 0 131.5 66.5t48.5 183.5v62v16q-22 25 -66.5 41.5t-115.5 16.5q-90 0 -132 -57t-42 -144z" />
    <glyph glyph-name="uni1DD9" unicode="&#x1dd9;" 
d="M-453 2632l-143 -81q76 -84 122.5 -196.5t46.5 -245.5v-61q0 -121 -50.5 -213t-136 -144t-189.5 -52q-161 0 -266 100.5t-105 243.5q0 160 101 257.5t255 97.5q89 0 167 -47q-18 52 -45 94.5t-60 75.5l-156 -87l-55 76l133 74q-59 39 -129 61l63 150q126 -31 232 -117
l160 90zM-978 1983q0 -79 44.5 -132t131.5 -53q83 0 131.5 66.5t48.5 183.5v62v16q-22 25 -66.5 41.5t-115.5 16.5q-90 0 -132 -57t-42 -144z" />
    <glyph glyph-name="uni1DD2" unicode="&#x1dd2;" 
d="M-851 1959q-87 0 -165.5 32t-128 102.5t-49.5 184.5q0 158 112 256t271 98q180 0 296.5 -113t116.5 -312q0 -156 -47.5 -265.5t-125.5 -181t-170.5 -114t-182.5 -65.5l-62 153q86 29 177.5 76.5t153.5 140t62 256.5q0 136 -59.5 203.5t-149.5 67.5q-88 0 -142.5 -51.5
t-54.5 -139.5q0 -97 46.5 -139.5t128.5 -42.5q80 0 132 24l35 -117q-35 -24 -81 -38.5t-113 -14.5z" />
    <glyph glyph-name="uni1DD3" unicode="&#x1dd3;" 
d="M-479 1909h196q0 -136 -86 -203t-223 -67q-133 0 -211 73q-70 -73 -213 -73q-139 0 -223.5 75.5t-84.5 194.5h188q0 -116 120 -116q113 0 113 116h182q0 -54 36.5 -85t92.5 -31q113 0 113 116z" />
    <glyph glyph-name="uni1DD0" unicode="&#x1dd0;" 
d="M-932 -88h208l-133 -338q106 64 186 64q51 0 94.5 -22t84.5 -44t87 -22q43 0 77 26.5t50 83.5l164 -53q-10 -106 -70 -195t-186 -89q-76 0 -141 26t-125 52t-120 26q-58 0 -114 -22t-119 -59l-141 66z" />
    <glyph glyph-name="uni1DD1" unicode="&#x1dd1;" 
d="M-630 1721q80 0 80 90q0 43 -24 79t-87 38v136q95 0 176.5 -65t81.5 -185q0 -101 -61 -169.5t-172 -68.5q-106 0 -158.5 56t-85.5 161q-19 59 -41.5 83.5t-56.5 24.5q-80 0 -80 -81q0 -49 26 -72t72 -28v-140q-104 0 -174.5 67t-70.5 173q0 101 64.5 163.5t167.5 62.5
q104 0 158.5 -60t79.5 -141q23 -73 46.5 -98.5t58.5 -25.5z" />
    <glyph glyph-name="circumflexgravecomb" horiz-adv-x="1535" 
d="M358 2295l206 -368h-214l-297 368h305zM1082 2052l401 -343h-291l-220 195l-219 -195h-291l398 343h222z" />
    <glyph glyph-name="uni1DD4" unicode="&#x1dd4;" 
d="M-535 1632q-114 0 -195.5 46t-125.5 123q-31 -64 -94.5 -113t-164.5 -49q-115 0 -183.5 61.5t-68.5 165.5q0 112 87.5 174t254.5 62h118v47q0 118 -111 118q-122 0 -122 -92l-188 9q0 102 86 169.5t229 67.5q150 0 231 -82q92 80 227 80q167 0 250.5 -105.5t83.5 -269.5
v-74h-489q15 -178 185 -178q125 0 189 85l98 -101q-37 -55 -110.5 -99.5t-186.5 -44.5zM-555 2261q-68 0 -105 -43.5t-47 -120.5h301v12q-4 67 -37 109.5t-112 42.5zM-1065 1789q54 0 103 29t69 73q-11 44 -13 92h-117q-75 0 -111.5 -33.5t-36.5 -76.5q0 -84 106 -84z" />
    <glyph glyph-name="uni1DD5" unicode="&#x1dd5;" 
d="M-551 1632q-107 0 -187 46t-124 127q-30 -65 -94.5 -115.5t-166.5 -50.5q-115 0 -183.5 61.5t-68.5 165.5q0 112 87.5 174t255.5 62h117v47q0 118 -110 118q-123 0 -123 -92l-187 9q0 102 85.5 169.5t228.5 67.5q152 0 233 -83q95 81 236 81q167 0 264.5 -107.5
t97.5 -279.5v-15q0 -171 -97 -278t-264 -107zM-551 1791q89 0 127 62t38 164v15q0 102 -38.5 165.5t-127.5 63.5q-88 0 -127 -63.5t-39 -165.5v-15q0 -102 39 -164t128 -62zM-1073 1789q56 0 105 30t70 76q-11 42 -14 88h-119q-75 0 -111.5 -33.5t-36.5 -76.5q0 -84 106 -84
z" />
    <glyph glyph-name="dieresiscaroncomb" 
d="M-997 2330l192 -165l192 165h282v-23l-368 -306h-212l-365 304v25h279zM-1284 1845q0 66 44 111.5t125 45.5t126 -45.5t45 -111.5q0 -65 -45 -109.5t-126 -44.5t-125 44.5t-44 109.5zM-661 1843q0 66 44.5 111.5t126.5 45.5q80 0 125 -45.5t45 -111.5q0 -65 -45 -109.5
t-125 -44.5q-82 0 -126.5 44.5t-44.5 109.5z" />
    <glyph glyph-name="breveinvsubnosp" unicode="&#x32f;" 
d="M-362 -524h-249q0 76 -43.5 134t-148.5 58q-107 0 -150.5 -58t-43.5 -134h-248q0 171 119 279t323 108t322.5 -108t118.5 -279z" />
    <glyph glyph-name="commaturnsupnosp" unicode="&#x312;" 
d="M-957 1365v261q0 136 68.5 287t181.5 249l174 -107q-59 -93 -91.5 -196.5t-32.5 -230.5v-263h-300z" />
    <glyph glyph-name="uni1DDB" unicode="&#x1ddb;" 
d="M-797 1638q-163 0 -270 93t-107 241v170q0 150 106.5 242t264.5 92q161 0 247.5 -70.5t99.5 -189.5h-186q-12 54 -47.5 78t-113.5 24q-88 0 -131.5 -47.5t-43.5 -153.5v-129q0 -192 181 -192q77 0 114 12.5t54 25.5v110h-163v147h359v-330q-30 -39 -124.5 -81t-239.5 -42
z" />
    <glyph glyph-name="uni1DDC" unicode="&#x1ddc;" 
d="M-630 1651l-213 322l-81 -84v-238h-196v1095h196v-634l49 62l202 236h217l-267 -305l316 -454h-223z" />
    <glyph glyph-name="ringrighthalfsubnosp" unicode="&#x339;" 
d="M-905 -644v126q57 0 96 40t39 100q0 64 -39 104.5t-96 40.5v130q119 0 202.5 -78t83.5 -197q0 -118 -83.5 -192t-202.5 -74z" />
    <glyph glyph-name="uni1DDF" unicode="&#x1ddf;" 
d="M-536 1651v499l-193 -499h-151l-195 505v-505h-195v819h240l226 -601l226 601h239v-819h-197z" />
    <glyph glyph-name="uni1DDD" unicode="&#x1ddd;" 
d="M-901 2739h195v-1088h-195v1088z" />
    <glyph glyph-name="uni1DDE" unicode="&#x1dde;" 
d="M-491 1810v-159h-551v819h196v-660h355z" />
    <glyph glyph-name="romanten" unicode="&#x2169;" horiz-adv-x="1862" 
d="M446 2048l477 -793h16l477 793h366l-629 -1024l634 -1024h-369l-479 784h-16l-479 -784h-369l644 1024l-639 1024h366z" />
    <glyph glyph-name="degreefarenheit" unicode="&#x2109;" horiz-adv-x="2646" 
d="M2348 1162v-273h-821v-889h-317v2048h1273v-272h-956v-614h821zM588 1125q-122 0 -224 60t-163 161.5t-61 224.5q0 124 61 226t163 162.5t224 60.5q124 0 224.5 -60.5t160.5 -162.5t60 -226q0 -123 -60 -224.5t-160.5 -161.5t-224.5 -60zM588 1339q95 0 164 68.5
t69 165.5t-69 166.5t-164 69.5t-165 -69.5t-70 -166.5q0 -96 70 -165t165 -69z" />
    <glyph glyph-name="Upsilon2" unicode="&#x1b1;" horiz-adv-x="1791" 
d="M480 973v-142q0 -288 112 -436t308 -148q190 0 302 148t112 436v142q0 344 -93.5 526t-252.5 222v283h696v-278h-297q140 -135 225.5 -333.5t85.5 -419.5v-138q0 -255 -98.5 -449.5t-274 -304t-405.5 -109.5q-232 0 -409 109.5t-276.5 304t-99.5 449.5v138
q0 220 85.5 419t225.5 334h-294v278h684v-283q-154 -40 -245 -223.5t-91 -524.5z" />
    <glyph glyph-name="degreekelvin" unicode="&#x212a;" horiz-adv-x="1907" 
d="M1444 0l-660 893l-252 -280v-613h-317v2048h317v-965h25l873 965h415l-863 -932l843 -1116h-381z" />
    </font>
</defs>
</svg>
